<svg width="500" height="500" viewBox="0 0 500 500" fill="none" xmlns="http://www.w3.org/2000/svg">
<path d="M165.85 147.91C157.62 152.81 149.06 157.27 140.72 162.15C102.33 184.61 70.72 214.74 66.85 260.89C64 294.68 74.66 334 104.38 353.55C111.717 358.355 119.903 361.715 128.5 363.45C140.63 365.92 153.5 364.95 165.85 364.24V147.91Z" fill="#F97316"/>
<path d="M344.07 99.8501H224.88C217.205 104.638 210.008 110.153 203.39 116.32H367.2C359.979 110.174 352.24 104.664 344.07 99.8501Z" fill="#F97316"/>
<path d="M338.5 96.75C329.867 92.1204 320.761 88.4325 311.34 85.75C282.83 77.75 254.6 83.08 230.17 96.75H338.5Z" fill="#F97316"/>
<path d="M408.37 164.53C398.022 147.796 385.36 132.609 370.76 119.42H260.29V378.74C268.541 381.491 276.984 383.63 285.55 385.14C341.88 394.14 404.9 374.09 426.74 317.33C446.33 266.45 436.59 209.83 408.37 164.53Z" fill="#F97316"/>
<path d="M253.52 119.42H200.14C197.933 121.6 195.787 123.843 193.7 126.15C187.476 132.902 180.388 138.803 172.62 143.7V363.9C191.916 363.176 211.221 365.091 230 369.59C238 371.5 245.72 374.04 253.48 376.59L253.52 119.42Z" fill="#F97316"/>
<g opacity="0.8">
<path d="M165.85 147.91C157.62 152.81 149.06 157.27 140.72 162.15C102.33 184.61 70.72 214.74 66.85 260.89C64 294.68 74.66 334 104.38 353.55C111.717 358.355 119.903 361.715 128.5 363.45C140.63 365.92 153.5 364.95 165.85 364.24V147.91Z" fill="white"/>
<path d="M344.07 99.8501H224.88C217.205 104.638 210.008 110.153 203.39 116.32H367.2C359.979 110.174 352.24 104.664 344.07 99.8501Z" fill="white"/>
<path d="M338.5 96.75C329.867 92.1204 320.761 88.4325 311.34 85.75C282.83 77.75 254.6 83.08 230.17 96.75H338.5Z" fill="white"/>
<path d="M408.37 164.53C398.022 147.796 385.36 132.609 370.76 119.42H260.29V378.74C268.541 381.491 276.984 383.63 285.55 385.14C341.88 394.14 404.9 374.09 426.74 317.33C446.33 266.45 436.59 209.83 408.37 164.53Z" fill="white"/>
<path d="M253.52 119.42H200.14C197.933 121.6 195.787 123.843 193.7 126.15C187.476 132.902 180.388 138.803 172.62 143.7V363.9C191.916 363.176 211.221 365.091 230 369.59C238 371.5 245.72 374.04 253.48 376.59L253.52 119.42Z" fill="white"/>
</g>
<path d="M214.32 128.27H199.77V131.44V150.1V153.28H230.63V131.44H215.35L214.32 128.27Z" fill="#F97316"/>
<path d="M214.32 175.86H199.77V179.03V197.69V200.87H230.63V179.03H215.35L214.32 175.86Z" fill="#F97316"/>
<path d="M214.32 223.45H199.77V226.62V245.28V248.46H230.63V226.62H215.35L214.32 223.45Z" fill="#F97316"/>
<path d="M214.32 271.04H199.77V274.21V292.87V296.05H230.63V274.21H215.35L214.32 271.04Z" fill="#F97316"/>
<path d="M214.32 318.63H199.77V321.81V340.46V343.64H230.63V321.81H215.35L214.32 318.63Z" fill="#F97316"/>
<path d="M307.6 128.27H293.05V131.44V150.1V153.28H323.92V131.44H308.64L307.6 128.27Z" fill="#F97316"/>
<path d="M368.13 131.44L367.09 128.27H352.54V131.44V150.1V153.28H383.4V131.44H368.13Z" fill="#F97316"/>
<path d="M307.6 175.86H293.05V179.03V197.69V200.87H323.92V179.03H308.64L307.6 175.86Z" fill="#F97316"/>
<path d="M367.09 223.45H352.54V226.62V245.28V248.46H383.4V226.62H368.13L367.09 223.45Z" fill="#F97316"/>
<path d="M367.09 175.86H352.54V179.03V197.69V200.87H383.4V179.03H368.13L367.09 175.86Z" fill="#F97316"/>
<path d="M307.6 223.45H293.05V226.62V245.28V248.46H323.92V226.62H308.64L307.6 223.45Z" fill="#F97316"/>
<path d="M307.6 271.04H293.05V274.21V292.87V296.05H323.92V274.21H308.64L307.6 271.04Z" fill="#F97316"/>
<path d="M367.09 271.04H352.54V274.21V292.87V296.05H383.4V274.21H368.13L367.09 271.04Z" fill="#F97316"/>
<path d="M307.6 318.63H293.05V321.81V340.46V343.64H323.92V321.81H308.64L307.6 318.63Z" fill="#F97316"/>
<path d="M367.09 318.63H352.54V321.81V340.46V343.64H383.4V321.81H368.13L367.09 318.63Z" fill="#F97316"/>
<g opacity="0.5">
<path d="M214.32 128.27H199.77V131.44V150.1V153.28H230.63V131.44H215.35L214.32 128.27Z" fill="white"/>
<path d="M214.32 175.86H199.77V179.03V197.69V200.87H230.63V179.03H215.35L214.32 175.86Z" fill="white"/>
<path d="M214.32 223.45H199.77V226.62V245.28V248.46H230.63V226.62H215.35L214.32 223.45Z" fill="white"/>
<path d="M214.32 271.04H199.77V274.21V292.87V296.05H230.63V274.21H215.35L214.32 271.04Z" fill="white"/>
<path d="M214.32 318.63H199.77V321.81V340.46V343.64H230.63V321.81H215.35L214.32 318.63Z" fill="white"/>
<path d="M307.6 128.27H293.05V131.44V150.1V153.28H323.92V131.44H308.64L307.6 128.27Z" fill="white"/>
<path d="M368.13 131.44L367.09 128.27H352.54V131.44V150.1V153.28H383.4V131.44H368.13Z" fill="white"/>
<path d="M307.6 175.86H293.05V179.03V197.69V200.87H323.92V179.03H308.64L307.6 175.86Z" fill="white"/>
<path d="M367.09 223.45H352.54V226.62V245.28V248.46H383.4V226.62H368.13L367.09 223.45Z" fill="white"/>
<path d="M367.09 175.86H352.54V179.03V197.69V200.87H383.4V179.03H368.13L367.09 175.86Z" fill="white"/>
<path d="M307.6 223.45H293.05V226.62V245.28V248.46H323.92V226.62H308.64L307.6 223.45Z" fill="white"/>
<path d="M307.6 271.04H293.05V274.21V292.87V296.05H323.92V274.21H308.64L307.6 271.04Z" fill="white"/>
<path d="M367.09 271.04H352.54V274.21V292.87V296.05H383.4V274.21H368.13L367.09 271.04Z" fill="white"/>
<path d="M307.6 318.63H293.05V321.81V340.46V343.64H323.92V321.81H308.64L307.6 318.63Z" fill="white"/>
<path d="M367.09 318.63H352.54V321.81V340.46V343.64H383.4V321.81H368.13L367.09 318.63Z" fill="white"/>
</g>
<path d="M216.5 432C244.39 432 267 427.299 267 421.5C267 415.701 244.39 411 216.5 411C188.61 411 166 415.701 166 421.5C166 427.299 188.61 432 216.5 432Z" fill="#F97316"/>
<path opacity="0.5" d="M216.5 432C244.39 432 267 427.299 267 421.5C267 415.701 244.39 411 216.5 411C188.61 411 166 415.701 166 421.5C166 427.299 188.61 432 216.5 432Z" fill="white"/>
<path d="M106.91 236.65C106.91 236.15 107 235.65 107.05 235.16" stroke="#263238" stroke-miterlimit="10"/>
<path d="M107.39 232.19C111.806 196.917 128.923 164.461 155.539 140.896C182.155 117.33 216.445 104.271 251.994 104.16C287.543 104.05 321.914 116.897 348.675 140.296C375.437 163.696 392.755 196.045 397.39 231.29" stroke="#263238" stroke-miterlimit="10" stroke-dasharray="2.98 2.98"/>
<path d="M397.6 232.78C397.66 233.27 397.72 233.78 397.77 234.27" stroke="#263238" stroke-miterlimit="10"/>
<path d="M126.69 135.28L113.75 175.63L165 183.39L173.8 146.14C173.8 146.14 142.72 144.07 126.69 135.28Z" fill="white" stroke="#263238" stroke-linecap="round" stroke-linejoin="round"/>
<path d="M180 109.41C180 109.41 204.31 112 221.9 100.1C221.9 100.1 243.62 117.17 251.9 118.73C251.9 118.73 238.97 132.73 225.52 136.83C225.49 136.83 192.38 121.83 180 109.41Z" fill="white" stroke="#263238" stroke-linecap="round" stroke-linejoin="round"/>
<path d="M180 109.41C183.569 106.702 187.652 104.749 192 103.67C192.444 111.083 195.375 118.129 200.32 123.67C200.32 123.67 185.29 115.56 180 109.41Z" fill="#263238" stroke="#263238" stroke-linecap="round" stroke-linejoin="round"/>
<path d="M276 126.4C276 126.4 275.14 128.99 280.31 133.3C282.66 135.3 287.96 136.04 287.96 136.04L301.86 118.64C301.86 118.64 279.05 121.74 276 126.4Z" fill="#263238" stroke="#263238" stroke-linecap="round" stroke-linejoin="round"/>
<path d="M276 126.4C283.646 123.764 291.706 122.537 299.79 122.78C303.644 122.968 307.419 123.936 310.888 125.625C314.357 127.315 317.447 129.691 319.97 132.61L334.97 113.98C334.97 113.98 322 102.09 307.5 102.6C293 103.11 277 122.26 276 126.4Z" fill="white" stroke="#263238" stroke-linecap="round" stroke-linejoin="round"/>
<path d="M363.15 136.35C363.15 136.35 353.84 160.84 333.5 164.29C333.5 164.29 353.84 188.43 365.22 191.19C365.22 191.19 388.33 180.84 394.54 169.81C394.54 169.81 374.19 158.08 363.15 136.35Z" fill="white" stroke="#263238" stroke-linecap="round" stroke-linejoin="round"/>
<path d="M141.17 261.09L150.21 222.78H89.53L88.24 261.09H141.17Z" fill="#263238" stroke="#263238" stroke-linecap="round" stroke-linejoin="round"/>
<path d="M96.34 208.59L96.15 252.59L141.55 257.2L144.97 210.42L96.34 208.59Z" fill="white" stroke="#263238" stroke-linecap="round" stroke-linejoin="round"/>
<path d="M81.35 215.9L88.24 261.09H141.17L137.73 220.2H109.33L106.74 215.04L81.35 215.9Z" fill="#F97316" stroke="#263238" stroke-linecap="round" stroke-linejoin="round"/>
<path d="M369.11 261.09L360.07 222.78H420.75L422.04 261.09H369.11Z" fill="#263238" stroke="#263238" stroke-linecap="round" stroke-linejoin="round"/>
<path d="M413.94 208.59L414.13 252.59L368.73 257.2L365.31 210.42L413.94 208.59Z" fill="white" stroke="#263238" stroke-linecap="round" stroke-linejoin="round"/>
<path d="M428.93 215.9L422.04 261.09H369.11L372.55 220.2H400.96L403.54 215.04L428.93 215.9Z" fill="#F97316" stroke="#263238" stroke-linecap="round" stroke-linejoin="round"/>
</svg>
