<svg width="500" height="500" viewBox="0 0 500 500" fill="none" xmlns="http://www.w3.org/2000/svg">
<path d="M96.38 405.5V413.02H152.68V405.5H96.38Z" fill="#E0E0E0"/>
<path d="M104.06 405.8C104.25 405.8 104.41 407.38 104.41 409.33C104.41 411.28 104.25 412.85 104.06 412.85C103.87 412.85 103.7 411.27 103.7 409.33C103.7 407.39 103.86 405.8 104.06 405.8Z" fill="#FAFAFA"/>
<path d="M102.83 405.65C103.03 405.65 103.18 407.23 103.18 409.17C103.18 411.11 103.03 412.7 102.83 412.7C102.63 412.7 102.48 411.12 102.48 409.17C102.48 407.22 102.63 405.65 102.83 405.65Z" fill="#FAFAFA"/>
<path d="M148.33 405.8C148.53 405.8 148.69 407.38 148.69 409.33C148.69 411.28 148.53 412.85 148.33 412.85C148.13 412.85 147.98 411.27 147.98 409.33C147.98 407.39 148.14 405.8 148.33 405.8Z" fill="#FAFAFA"/>
<path d="M147.11 405.65C147.3 405.65 147.46 407.23 147.46 409.17C147.46 411.11 147.3 412.7 147.11 412.7C146.92 412.7 146.75 411.12 146.75 409.17C146.75 407.22 146.91 405.65 147.11 405.65Z" fill="#FAFAFA"/>
<path d="M139.75 409.48C139.75 409.68 133.3 409.83 125.35 409.83C117.4 409.83 110.95 409.68 110.95 409.48C110.95 409.28 117.4 409.13 125.35 409.13C133.3 409.13 139.75 409.28 139.75 409.48Z" fill="#FAFAFA"/>
<path d="M96.14 439.36V454.4H152.44V439.36H96.14Z" fill="#E0E0E0"/>
<path d="M153.16 450.17C153.16 450.17 153.07 450.24 152.86 450.34C152.65 450.44 152.34 450.59 151.92 450.77C150.696 451.289 149.413 451.655 148.1 451.86C145.996 452.241 143.825 451.933 141.91 450.98C140.726 450.349 139.716 449.435 138.97 448.32C138.114 447.049 137.758 445.507 137.97 443.99C138.093 443.166 138.439 442.391 138.97 441.75C139.255 441.399 139.617 441.118 140.028 440.931C140.439 440.744 140.888 440.654 141.34 440.67C141.805 440.708 142.257 440.841 142.668 441.061C143.079 441.281 143.441 441.584 143.73 441.95C144.346 442.676 144.726 443.572 144.82 444.52C144.897 445.495 144.763 446.476 144.429 447.395C144.094 448.315 143.566 449.152 142.88 449.85C141.455 451.357 139.534 452.298 137.47 452.5C135.345 452.704 133.201 452.438 131.19 451.72C129.041 451.048 127.134 449.766 125.7 448.03C124.96 447.097 124.515 445.966 124.42 444.78C124.36 444.163 124.437 443.54 124.644 442.956C124.851 442.372 125.185 441.841 125.62 441.4C126.097 440.942 126.72 440.669 127.38 440.63C128.032 440.612 128.674 440.794 129.22 441.15C130.275 441.841 131.018 442.918 131.29 444.15C131.525 445.353 131.445 446.596 131.056 447.758C130.666 448.92 129.982 449.961 129.07 450.78C127.283 452.289 125.063 453.192 122.73 453.36C120.519 453.614 118.279 453.392 116.16 452.71C114.08 452.055 112.306 450.675 111.16 448.82C110.59 447.94 110.237 446.937 110.129 445.894C110.022 444.851 110.162 443.798 110.54 442.82C110.727 442.33 111.035 441.895 111.435 441.555C111.836 441.216 112.316 440.984 112.83 440.88C113.325 440.791 113.832 440.805 114.321 440.923C114.81 441.04 115.269 441.257 115.67 441.56C116.372 442.176 116.874 442.988 117.113 443.891C117.351 444.794 117.316 445.747 117.01 446.63C116.463 448.206 115.477 449.593 114.17 450.63C112.004 452.464 109.286 453.521 106.45 453.63C104.724 453.691 103.004 453.389 101.402 452.743C99.7995 452.097 98.351 451.121 97.15 449.88C96.9095 449.632 96.6825 449.372 96.47 449.1C96.3949 449.009 96.328 448.912 96.27 448.81C97.4587 450.122 98.8791 451.203 100.46 452C102.323 452.915 104.387 453.341 106.46 453.24C109.196 453.084 111.805 452.03 113.88 450.24C115.098 449.253 116.013 447.943 116.52 446.46C116.785 445.687 116.815 444.853 116.607 444.063C116.399 443.273 115.961 442.562 115.35 442.02C115.014 441.77 114.63 441.591 114.223 441.495C113.815 441.398 113.392 441.387 112.98 441.46C112.562 441.546 112.173 441.739 111.851 442.019C111.529 442.299 111.284 442.658 111.14 443.06C110.811 443.943 110.695 444.891 110.801 445.828C110.907 446.764 111.232 447.662 111.75 448.45C112.824 450.163 114.478 451.434 116.41 452.03C118.437 452.673 120.578 452.877 122.69 452.63C124.873 452.467 126.951 451.624 128.63 450.22C129.454 449.478 130.071 448.535 130.422 447.484C130.772 446.432 130.844 445.307 130.63 444.22C130.405 443.162 129.777 442.234 128.88 441.63C128.475 441.33 127.979 441.182 127.476 441.212C126.973 441.241 126.497 441.445 126.13 441.79C125.766 442.158 125.488 442.601 125.315 443.088C125.143 443.576 125.079 444.095 125.13 444.61C125.214 445.66 125.607 446.662 126.26 447.49C127.608 449.117 129.396 450.322 131.41 450.96C133.33 451.651 135.378 451.913 137.41 451.73C139.312 451.546 141.086 450.688 142.41 449.31C143.041 448.678 143.529 447.918 143.842 447.081C144.154 446.245 144.283 445.351 144.22 444.46C144.186 443.651 143.879 442.877 143.349 442.265C142.818 441.653 142.096 441.238 141.3 441.09C140.929 441.078 140.561 441.151 140.223 441.304C139.885 441.456 139.586 441.684 139.35 441.97C138.862 442.538 138.54 443.23 138.42 443.97C138.215 445.37 138.54 446.796 139.33 447.97C140.023 449.038 140.968 449.92 142.08 450.54C143.928 451.488 146.03 451.821 148.08 451.49C149.377 451.312 150.652 450.994 151.88 450.54C152.72 450.33 153.15 450.14 153.16 450.17Z" fill="#FAFAFA"/>
<path d="M101.17 413.23V439.33H152.44V413.23H101.17Z" fill="#EBEBEB"/>
<path d="M109.69 414.13C109.88 414.13 110.04 419.78 110.04 426.76C110.04 433.74 109.88 439.39 109.69 439.39C109.5 439.39 109.33 433.74 109.33 426.76C109.33 419.78 109.49 414.13 109.69 414.13Z" fill="#E0E0E0"/>
<path d="M113.58 413.8C113.77 413.8 113.93 419.39 113.93 426.27C113.93 433.15 113.77 438.74 113.58 438.74C113.39 438.74 113.22 433.16 113.22 426.27C113.22 419.38 113.38 413.8 113.58 413.8Z" fill="#E0E0E0"/>
<path d="M146.65 413C146.84 413 147 418.88 147 426.14C147 433.4 146.84 439.27 146.65 439.27C146.46 439.27 146.29 433.39 146.29 426.14C146.29 418.89 146.45 413 146.65 413Z" fill="#E0E0E0"/>
<path d="M142.08 413.32C142.27 413.32 142.43 419.04 142.43 426.11C142.43 433.18 142.27 438.9 142.08 438.9C141.89 438.9 141.72 433.18 141.72 426.11C141.72 419.04 141.88 413.32 142.08 413.32Z" fill="#E0E0E0"/>
<path d="M418.07 356.26C423.39 353.51 429.64 353.16 435.55 354.13C438.72 354.66 442.02 355.6 444.18 357.99C446.34 360.38 446.74 364.56 444.27 366.6C442.79 367.82 440.74 368.01 438.82 367.98C434.2 367.93 429.08 367.12 425.39 369.9C423.28 371.48 421.88 374.12 419.39 374.9C416.9 375.68 414.15 374.21 412.85 371.99C411.648 369.674 411.383 366.985 412.11 364.48C412.404 362.744 413.095 361.099 414.129 359.673C415.163 358.247 416.511 357.079 418.07 356.26Z" fill="#EBEBEB"/>
<path d="M405.89 332.75C409.14 337.39 415.46 335.85 418.39 333.02C421.32 330.19 422.56 326.08 423.68 322.16C426.26 313.22 428.85 303.83 426.94 294.72C426.482 291.957 425.267 289.374 423.43 287.26C422.501 286.217 421.315 285.436 419.991 284.994C418.666 284.552 417.249 284.464 415.88 284.74C412.7 285.59 410.72 288.74 409.29 291.67C405.076 300.434 402.866 310.026 402.82 319.75C402.82 324.27 403.34 329.01 405.89 332.75Z" fill="#EBEBEB"/>
<path d="M397 339.41C400.53 335.22 401.2 329.11 399.63 323.87C398.06 318.63 394.51 314.15 390.42 310.51C385.608 306.226 380.007 302.921 373.93 300.78C371.579 299.833 369.052 299.404 366.52 299.52C365.254 299.593 364.026 299.975 362.942 300.632C361.857 301.289 360.951 302.202 360.3 303.29C358.56 306.6 360.23 310.61 362.03 313.89C365.202 319.656 368.82 325.167 372.85 330.37C376.1 334.56 379.85 338.69 384.76 340.58C389.67 342.47 394.85 342.24 397.47 338.81" fill="#EBEBEB"/>
<path d="M405.67 402.77C405.842 402.079 405.942 401.372 405.97 400.66C406.12 399.13 406.3 397.2 406.53 394.91C406.817 392.073 407.247 389.253 407.82 386.46C408.572 383.049 409.599 379.705 410.89 376.46C412.157 373.236 413.87 370.207 415.98 367.46C417.699 365.221 419.896 363.393 422.41 362.11C424.119 361.271 425.947 360.701 427.83 360.42C428.539 360.398 429.243 360.297 429.93 360.12C429.219 360.042 428.501 360.042 427.79 360.12C425.834 360.269 423.921 360.767 422.14 361.59C419.495 362.841 417.175 364.685 415.36 366.98C413.154 369.768 411.375 372.869 410.08 376.18C408.788 379.463 407.785 382.853 407.08 386.31C406.535 389.135 406.158 391.99 405.95 394.86C405.77 397.3 405.7 399.28 405.67 400.65C405.596 401.355 405.596 402.065 405.67 402.77Z" fill="#E0E0E0"/>
<path d="M406.07 398.34C406.13 398.01 406.15 397.674 406.13 397.34C406.13 396.61 406.13 395.68 406.13 394.54C406.13 392.12 406.13 388.6 406.25 384.26C406.47 375.58 407.25 366.26 408.66 353.06C410.03 340.68 411.86 326.26 413.8 316.89C414.21 314.76 414.63 312.84 415.03 311.16C415.43 309.48 415.72 308.03 416.03 306.86C416.34 305.69 416.51 304.86 416.68 304.14C416.77 303.813 416.83 303.478 416.86 303.14C416.707 303.431 416.593 303.74 416.52 304.06C416.3 304.76 416.03 305.65 415.7 306.74C415.37 307.83 414.97 309.34 414.55 311.02C414.13 312.7 413.65 314.61 413.2 316.74C410.798 327.822 408.992 339.024 407.79 350.3C406.35 363.5 405.7 375.52 405.64 384.22C405.59 388.57 405.64 392.09 405.79 394.52C405.86 395.66 405.92 396.59 405.96 397.32C405.954 397.663 405.991 398.006 406.07 398.34Z" fill="#E0E0E0"/>
<path d="M406.13 375.16C406.206 374.188 406.206 373.212 406.13 372.24C406.02 370.36 405.76 367.64 405.23 364.32C404.592 360.428 403.734 356.575 402.66 352.78C401.399 348.111 399.784 343.544 397.83 339.12C394.484 330.965 389.683 323.486 383.66 317.05C382.61 315.95 381.495 314.915 380.32 313.95C379.81 313.52 379.32 313.09 378.9 312.75L377.61 311.86C376.832 311.266 376.006 310.737 375.14 310.28C375 310.47 378.63 312.6 383.21 317.48C389.036 323.973 393.71 331.413 397.03 339.48C398.94 343.873 400.554 348.39 401.86 353C403.13 357.24 403.97 361.14 404.61 364.42C405.25 367.7 405.56 370.42 405.77 372.27C405.812 373.241 405.932 374.208 406.13 375.16Z" fill="#E0E0E0"/>
<path d="M382.17 412.53L384.5 444.35H425.37L427.7 412.53H382.17Z" fill="#EBEBEB"/>
<path d="M432.57 399.99H378.22V412.53H432.57V399.99Z" fill="#EBEBEB"/>
<path d="M378.22 443.13V446.61H380.78H431.68V443.13H378.22Z" fill="#E0E0E0"/>
<path d="M383.28 452.34L380.78 446.23H429.73L426.81 452.34H383.28Z" fill="#E0E0E0"/>
<path d="M426.94 422.93C426.89 423.034 426.826 423.132 426.75 423.22C426.58 423.44 426.38 423.7 426.14 424.03L423.75 427.08L423.65 427.22L423.55 427.07C422.05 425 420.05 422.24 417.7 418.98H418L412.24 427.14L412.06 427.39L411.86 427.15L405.06 419H405.45L405.08 419.47L399 427.15L398.79 427.41L398.61 427.14C396.53 424.21 394.61 421.46 392.84 418.99H393.18L386.08 427.08L385.96 427.22L385.86 427.06L383.64 423.33C383.4 422.92 383.22 422.59 383.07 422.33C382.996 422.221 382.936 422.103 382.89 421.98C382.982 422.073 383.063 422.177 383.13 422.29L383.76 423.29L386.09 426.96H385.87L392.87 418.77L393.04 418.57L393.2 418.79L399.02 426.91H398.62L404.72 419.24L405.09 418.76L405.29 418.52L405.49 418.76L412.3 426.9H411.92L417.74 418.78L417.91 418.54L418.07 418.78L423.8 426.96H423.59C424.64 425.7 425.46 424.71 426.07 423.96L426.73 423.19C426.85 423 426.93 422.92 426.94 422.93Z" fill="#F5F5F5"/>
<path d="M428.27 412.32C428.27 412.46 418.02 412.57 405.39 412.57C392.76 412.57 382.51 412.46 382.51 412.32C382.51 412.18 392.75 412.07 405.39 412.07C418.03 412.07 428.27 412.18 428.27 412.32Z" fill="#F5F5F5"/>
<path d="M195.21 80.8398C195.21 80.8398 195.12 80.8398 194.97 80.7698L194.31 80.5098L191.79 79.4598L182.54 75.4598L152.14 62.2198L151.08 61.7498H151.3L121.51 74.5398L112.51 78.3198L110.05 79.3198C109.77 79.4485 109.479 79.5522 109.18 79.6298C109.445 79.4715 109.723 79.3344 110.01 79.2198L112.43 78.1198L121.43 74.1698L151.15 61.2798H151.26H151.37L152.43 61.7398L182.77 75.1398L191.94 79.2498L194.42 80.3998L195.06 80.7098C195.115 80.7471 195.165 80.7907 195.21 80.8398Z" fill="#E0E0E0"/>
<path d="M242.63 76.48H47.34V222.71H242.63V76.48Z" fill="#E0E0E0"/>
<path d="M236.54 83.2798H54.17V216.7H236.54V83.2798Z" fill="#FAFAFA"/>
<path d="M94.45 141.57C94.45 141.57 94.64 163.96 95.78 170.8L123.87 169.47C123.87 169.47 121.41 147.47 122.36 141.57H94.45Z" fill="#E0E0E0"/>
<path d="M108.29 144.73H108.7C109.091 144.715 109.483 144.736 109.87 144.79C110.485 144.881 111.085 145.06 111.65 145.32C112.398 145.69 113.059 146.215 113.59 146.86C114.242 147.644 114.704 148.568 114.94 149.56C115.16 150.722 115.059 151.921 114.65 153.03C114.441 153.633 114.176 154.215 113.86 154.77C113.524 155.334 113.224 155.919 112.96 156.52C112.4 157.795 112.016 159.141 111.82 160.52V160.61H111.73H108.96H106.05H105.94V160.51C105.815 159.138 105.351 157.818 104.59 156.67C104.25 156.09 103.88 155.56 103.59 155.01C103.227 154.492 102.893 153.955 102.59 153.4C102.077 152.338 101.923 151.138 102.15 149.98C102.313 148.981 102.685 148.027 103.24 147.18C103.714 146.5 104.336 145.935 105.06 145.53C105.953 145.056 106.933 144.767 107.94 144.68H108.34C108.34 144.68 108.34 144.68 108.24 144.68H107.94C107.558 144.725 107.181 144.799 106.81 144.9C106.219 145.054 105.65 145.286 105.12 145.59C104.412 145.99 103.807 146.548 103.35 147.22C102.833 148.059 102.493 148.995 102.35 149.97C102.132 151.092 102.286 152.254 102.79 153.28C103.096 153.827 103.43 154.357 103.79 154.87C104.14 155.4 104.51 155.95 104.85 156.53C105.639 157.704 106.118 159.06 106.24 160.47L106.13 160.36H109.04H111.82L111.71 160.46C111.91 159.063 112.3 157.701 112.87 156.41C113.144 155.804 113.452 155.213 113.79 154.64C114.101 154.098 114.362 153.529 114.57 152.94C114.975 151.865 115.082 150.701 114.88 149.57C114.652 148.602 114.211 147.697 113.59 146.92C113.074 146.283 112.43 145.762 111.7 145.39C111.147 145.122 110.557 144.937 109.95 144.84C109.569 144.782 109.185 144.748 108.8 144.74H108.49C108.33 144.74 108.29 144.74 108.29 144.73Z" fill="white"/>
<path d="M109.73 160.34C109.728 160.31 109.728 160.28 109.73 160.25V159.99C109.73 159.76 109.64 159.42 109.58 158.99C109.45 158.11 109.26 156.85 109.14 155.28C109.14 154.89 109.08 154.48 109.07 154.05C109.045 153.6 109.045 153.15 109.07 152.7C109.081 152.217 109.186 151.742 109.38 151.3C109.596 150.823 109.981 150.442 110.46 150.23C110.715 150.123 110.997 150.093 111.269 150.145C111.541 150.196 111.792 150.327 111.99 150.52C112.096 150.618 112.179 150.737 112.234 150.87C112.289 151.003 112.315 151.146 112.31 151.29C112.304 151.58 112.206 151.86 112.03 152.09C111.849 152.324 111.616 152.512 111.35 152.64C111.086 152.764 110.807 152.855 110.52 152.91C109.348 153.149 108.145 153.19 106.96 153.03C106.667 152.99 106.381 152.909 106.11 152.79C105.846 152.671 105.608 152.501 105.41 152.29C105.207 152.078 105.065 151.816 105 151.53C104.937 151.25 104.972 150.957 105.1 150.7C105.216 150.441 105.427 150.237 105.69 150.13C105.815 150.076 105.949 150.049 106.085 150.049C106.221 150.049 106.355 150.076 106.48 150.13C106.721 150.239 106.929 150.412 107.08 150.63C107.221 150.844 107.322 151.081 107.38 151.33C107.465 151.805 107.512 152.287 107.52 152.77L107.66 155.34C107.73 156.91 107.8 158.18 107.84 159.07C107.84 159.5 107.84 159.84 107.84 160.07V160.42C107.842 160.39 107.842 160.36 107.84 160.33C107.84 160.27 107.84 160.18 107.84 160.07C107.84 159.96 107.84 159.49 107.78 159.07C107.78 158.18 107.65 156.91 107.56 155.34C107.56 154.56 107.47 153.7 107.42 152.77C107.414 152.293 107.363 151.818 107.27 151.35C107.221 151.111 107.126 150.883 106.99 150.68C106.842 150.476 106.646 150.312 106.42 150.2C106.305 150.151 106.18 150.125 106.055 150.125C105.93 150.125 105.805 150.151 105.69 150.2C105.447 150.301 105.25 150.49 105.14 150.73C105.025 150.973 104.993 151.247 105.05 151.51C105.117 151.776 105.252 152.02 105.44 152.22C105.846 152.62 106.374 152.874 106.94 152.94C107.527 153.017 108.119 153.044 108.71 153.02C109.301 153.004 109.89 152.937 110.47 152.82C110.751 152.766 111.023 152.675 111.28 152.55C111.533 152.428 111.756 152.25 111.93 152.03C112.095 151.814 112.189 151.552 112.2 151.28C112.199 151.148 112.173 151.017 112.121 150.895C112.07 150.773 111.994 150.663 111.9 150.57C111.712 150.39 111.476 150.269 111.221 150.219C110.966 150.169 110.702 150.194 110.46 150.29C110.016 150.49 109.66 150.846 109.46 151.29C109.27 151.726 109.165 152.194 109.15 152.67C109.15 153.13 109.15 153.57 109.15 154C109.15 154.43 109.15 154.84 109.22 155.24C109.34 156.81 109.52 158.07 109.63 158.94C109.69 159.38 109.74 159.71 109.77 159.94V160.2C109.762 160.248 109.749 160.295 109.73 160.34Z" fill="white"/>
<path d="M106 160.49C106.046 160.798 106.072 161.108 106.08 161.42C106.08 162.086 106.12 162.896 106.2 163.85V163.79L108.1 166H108L110.19 165.88H110.1L111.18 164.56L111.73 163.89V163.98C111.73 162.69 111.67 161.48 111.65 160.38L111.77 160.49H107.68H106C106.129 160.471 106.261 160.471 106.39 160.49L107.54 160.43L111.7 160.27H111.82V160.39C111.82 161.5 111.89 162.71 111.93 163.99V164C111.75 164.22 111.57 164.45 111.38 164.67L110.29 166H110.23L108.04 166.11H108L106.14 163.9C106.14 162.9 106.14 162.1 106.14 161.4C106.075 161.099 106.029 160.796 106 160.49Z" fill="white"/>
<path d="M111.68 163.65C111.68 163.65 111.6 163.65 111.47 163.56C111.284 163.477 111.094 163.403 110.9 163.34C110.258 163.116 109.58 163.014 108.9 163.04C108.213 163.055 107.535 163.197 106.9 163.46L106.35 163.72L106.15 163.82C106.202 163.766 106.263 163.722 106.33 163.69C106.507 163.582 106.691 163.485 106.88 163.4C107.511 163.12 108.19 162.967 108.88 162.95C109.562 162.925 110.242 163.037 110.88 163.28C111.073 163.349 111.26 163.432 111.44 163.53L111.68 163.65Z" fill="white"/>
<path d="M111.67 162.78L111.47 162.69L110.9 162.46C110.256 162.242 109.579 162.14 108.9 162.16C108.214 162.185 107.538 162.327 106.9 162.58C106.66 162.68 106.48 162.77 106.35 162.84L106.15 162.94L106.33 162.81C106.506 162.702 106.69 162.609 106.88 162.53C107.51 162.246 108.19 162.09 108.88 162.07C109.561 162.055 110.24 162.167 110.88 162.4C111.12 162.5 111.31 162.59 111.44 162.66C111.57 162.73 111.68 162.77 111.67 162.78Z" fill="white"/>
<path d="M111.62 161.94L111.42 161.86C111.28 161.8 111.09 161.71 110.85 161.63C110.206 161.412 109.529 161.311 108.85 161.33C108.163 161.344 107.484 161.486 106.85 161.75C106.61 161.85 106.43 161.94 106.3 162.01L106.1 162.11L106.28 161.98C106.456 161.87 106.64 161.773 106.83 161.69C107.462 161.415 108.141 161.262 108.83 161.24C109.511 161.226 110.189 161.337 110.83 161.57C111.022 161.644 111.21 161.73 111.39 161.83C111.473 161.851 111.551 161.889 111.62 161.94Z" fill="white"/>
<path d="M63.17 105C63.17 105 63.36 127.4 64.5 134.23L92.59 132.9C92.59 132.9 90.12 110.9 91.07 105H63.17Z" fill="#EBEBEB"/>
<path d="M86.84 114.36C83.7222 114.821 80.5803 115.102 77.43 115.2C74.2889 115.489 71.133 115.586 67.98 115.49C71.0985 115.034 74.2401 114.754 77.39 114.65C80.5318 114.372 83.687 114.275 86.84 114.36Z" fill="white"/>
<path d="M86.84 119.1C83.7229 119.569 80.5807 119.853 77.43 119.95C74.2915 120.227 71.1396 120.324 67.99 120.24C71.1077 119.778 74.2497 119.497 77.4 119.4C80.5381 119.116 83.6902 119.016 86.84 119.1Z" fill="white"/>
<path d="M82.07 123.76C80.3081 124.14 78.5123 124.341 76.71 124.36C74.9213 124.542 73.1187 124.542 71.33 124.36C73.0886 123.98 74.881 123.779 76.68 123.76C78.472 123.578 80.278 123.578 82.07 123.76Z" fill="white"/>
<path d="M61.84 170.85C61.84 170.85 62.03 193.24 63.17 200.08L91.26 198.75C91.26 198.75 88.79 176.75 89.74 170.85H61.84Z" fill="#EBEBEB"/>
<path d="M85.51 180.25C82.3928 180.718 79.2506 181.002 76.1 181.1C72.9615 181.377 69.8096 181.474 66.66 181.39C69.7743 180.927 72.913 180.647 76.06 180.55C79.2015 180.266 82.3568 180.166 85.51 180.25Z" fill="white"/>
<path d="M85.51 185C82.3923 185.463 79.2503 185.743 76.1 185.84C72.9615 186.118 69.8096 186.214 66.66 186.13C69.7777 185.668 72.9197 185.387 76.07 185.29C79.2085 185.012 82.3604 184.916 85.51 185Z" fill="white"/>
<path d="M80.74 189.66C78.9815 190.039 77.1888 190.237 75.39 190.25C73.5996 190.449 71.7937 190.465 70 190.3C71.7586 189.92 73.551 189.719 75.35 189.7C77.1405 189.501 78.9467 189.488 80.74 189.66Z" fill="white"/>
<path d="M138.61 110.89L141.39 175.49L222.03 176.46L218.41 111.74L138.61 110.89Z" fill="#EBEBEB"/>
<path d="M217.78 110.43H137.67V170.92H217.78V110.43Z" fill="#F5F5F5"/>
<path d="M217.78 170.92C217.78 170.92 217.78 170.53 217.78 169.79C217.78 169.05 217.78 167.97 217.78 166.57C217.78 163.73 217.78 159.57 217.72 154.33C217.72 143.78 217.65 128.69 217.6 110.43L217.83 110.65H137.73L138.01 110.38C138.01 132.13 138.01 152.73 138.01 170.87L137.76 170.62L195.54 170.74L211.98 170.81H216.35H217.48H217.87H216.4L212 171L195.63 171.07L137.63 171.19H137.38V170.95C137.38 152.81 137.38 132.21 137.38 110.46V110.18H137.66H217.76H218V110.41C218 128.72 217.91 143.87 217.88 154.41C217.88 159.66 217.88 163.77 217.82 166.6C217.82 167.98 217.82 169.04 217.82 169.78C217.8 170.56 217.78 170.92 217.78 170.92Z" fill="#E0E0E0"/>
<path d="M179.81 123.24H147.34V164.11H179.81V123.24Z" fill="#F5F5F5"/>
<path d="M179.81 164.11C179.799 164.04 179.799 163.969 179.81 163.9V163.32C179.81 162.78 179.81 162.04 179.81 161.09C179.81 159.09 179.81 156.28 179.75 152.7C179.75 145.51 179.67 135.33 179.62 123.24L179.87 123.49H147.4C147.33 123.49 147.92 122.97 147.67 123.22V134.33C147.67 137.96 147.67 141.5 147.67 144.93C147.67 151.8 147.67 158.23 147.67 164.07L147.45 163.84L170.96 163.96L177.55 164.02H179.3H179.92C179.73 164.034 179.54 164.034 179.35 164.02H177.65L171.1 164.08L147.45 164.2H147.22V163.97C147.22 158.13 147.22 151.7 147.22 144.83C147.22 141.4 147.22 137.83 147.22 134.23V123.26C146.97 123.5 147.55 122.91 147.5 122.98H179.97H180.22V123.23C180.17 135.38 180.12 145.62 180.09 152.85L180.03 161.18C180.03 162.113 180.03 162.843 180.03 163.37C180.03 163.59 180.03 163.77 180.03 163.92C179.964 163.992 179.891 164.056 179.81 164.11Z" fill="#E0E0E0"/>
<path d="M210.81 113.89H148.58V119.78H210.81V113.89Z" fill="#F5F5F5"/>
<path d="M210.81 119.78C210.81 119.78 210.81 119.63 210.81 119.38C210.81 119.13 210.81 118.71 210.81 118.23C210.81 117.23 210.81 115.76 210.74 113.89L210.85 114C200.36 114.1 176.44 114.17 148.62 114.17C149.17 113.61 148.77 114.01 148.9 113.89V119.76L148.63 119.48L192.74 119.6L205.98 119.68H209.58H210.53C210.64 119.672 210.75 119.672 210.86 119.68H210.57H209.66H206.12L192.94 119.77L148.63 119.88H148.36V119.61C148.36 118.67 148.36 117.7 148.36 116.72V113.72L148.64 113.44C176.46 113.44 200.38 113.51 210.87 113.61H210.99V113.72C210.99 115.61 210.99 117.09 210.93 118.13C210.93 118.6 210.93 118.96 210.93 119.24C210.922 119.426 210.881 119.608 210.81 119.78Z" fill="#E0E0E0"/>
<path d="M210.81 123.24H183.78V147.87H210.81V123.24Z" fill="#F5F5F5"/>
<path d="M210.81 147.87C210.81 147.87 210.81 147.7 210.81 147.4V146.06C210.81 144.86 210.81 143.17 210.75 141.06C210.75 136.72 210.68 130.61 210.63 123.26L210.86 123.5H183.86L184.13 123.23V129.84C184.13 132 184.13 134.12 184.13 136.19C184.13 140.32 184.13 144.19 184.13 147.85L183.88 147.61L203.38 147.73L208.91 147.8H210.39C210.563 147.785 210.737 147.785 210.91 147.8C210.754 147.814 210.596 147.814 210.44 147.8H209.01L203.54 147.86L183.88 147.98H183.64V147.73C183.64 144.12 183.64 140.2 183.64 136.07C183.64 134 183.64 131.88 183.64 129.72V123.11C183.39 123.35 183.97 122.77 183.92 122.83H210.92H211.16V123.06C211.11 130.47 211.07 136.64 211.04 141.06C211.04 143.16 210.99 144.83 210.98 146.06C210.98 146.586 210.98 147.016 210.98 147.35C210.947 147.53 210.89 147.705 210.81 147.87Z" fill="#E0E0E0"/>
<path d="M210.81 151.73H183.78V164.11H210.81V151.73Z" fill="#F5F5F5"/>
<path d="M210.81 164.11C210.81 164.11 210.81 163.79 210.81 163.21L210.76 160.73C210.76 158.54 210.7 155.49 210.65 151.73L210.85 151.93L183.85 152.01C183.6 152.26 184.18 151.67 184.12 151.74V158.11C184.12 160.18 184.12 162.19 184.12 164.11L183.85 163.85L203.18 163.97L208.82 164.05H210.34H210.88C210.72 164.065 210.56 164.065 210.4 164.05H208.93L203.36 164.13L183.85 164.25H183.59V163.99C183.59 162.07 183.59 160.06 183.59 157.99V151.62C183.53 151.62 184.11 151.09 183.87 151.34L210.87 151.41H211V151.61C211 155.42 210.92 158.52 210.9 160.73C210.9 161.73 210.9 162.56 210.9 163.17C210.9 163.485 210.87 163.8 210.81 164.11Z" fill="#E0E0E0"/>
<path d="M179 123.31C168.94 137.2 157.38 150.22 147.33 164.11L179 123.31Z" fill="white"/>
<path d="M147.34 164.11C147.34 164.11 147.41 163.94 147.6 163.65L148.45 162.41C149.19 161.33 150.3 159.8 151.7 157.93C154.49 154.17 158.48 149.09 162.96 143.54C167.44 137.99 171.47 132.95 174.33 129.26L177.72 124.89L178.65 123.7C178.87 123.44 178.99 123.3 179.01 123.31C178.938 123.473 178.847 123.627 178.74 123.77L177.89 125.01C177.15 126.09 176.04 127.62 174.64 129.5C171.85 133.25 167.86 138.33 163.38 143.88C158.9 149.43 154.88 154.47 152.01 158.16L148.62 162.54L147.69 163.72C147.589 163.863 147.471 163.994 147.34 164.11Z" fill="#E0E0E0"/>
<path d="M179.81 164.11C179.69 164.2 172.32 155.11 163.36 143.85C154.4 132.59 147.22 123.34 147.36 123.24C147.5 123.14 154.84 132.24 163.81 143.51C172.78 154.78 179.93 164 179.81 164.11Z" fill="#E0E0E0"/>
<path d="M141.39 123.33C141.39 124.335 141.092 125.317 140.534 126.152C139.976 126.988 139.182 127.639 138.254 128.023C137.326 128.408 136.304 128.508 135.319 128.312C134.334 128.116 133.428 127.633 132.718 126.922C132.007 126.212 131.524 125.306 131.328 124.321C131.132 123.336 131.232 122.314 131.617 121.386C132.001 120.458 132.652 119.664 133.488 119.106C134.323 118.548 135.305 118.25 136.31 118.25C137.656 118.253 138.947 118.789 139.899 119.741C140.851 120.693 141.387 121.984 141.39 123.33Z" fill="#E0E0E0"/>
<path d="M224.48 111C224.48 112.005 224.182 112.987 223.624 113.822C223.066 114.658 222.272 115.309 221.344 115.693C220.416 116.078 219.394 116.178 218.409 115.982C217.424 115.786 216.518 115.302 215.808 114.592C215.097 113.882 214.614 112.976 214.418 111.991C214.222 111.006 214.322 109.984 214.707 109.056C215.091 108.128 215.742 107.334 216.578 106.776C217.413 106.218 218.395 105.92 219.4 105.92C220.746 105.923 222.037 106.459 222.989 107.411C223.941 108.363 224.477 109.653 224.48 111Z" fill="#E0E0E0"/>
<path d="M423.2 146.38H364.66V231.24H423.2V146.38Z" fill="#E0E0E0"/>
<path d="M420.27 146.38H361.73V231.24H420.27V146.38Z" fill="#F5F5F5"/>
<path d="M413 155.57H369V222.05H413V155.57Z" fill="white"/>
<path d="M413 222.05C413 222.05 413 221.93 413 221.72C413 221.51 413 221.19 413 220.78C413 219.94 413 218.72 413 217.13C413 213.95 413 209.3 413 203.44C413 191.72 413 175.12 412.93 155.57L413.08 155.72H369L369.16 155.56C369.16 180.64 369.16 203.76 369.16 222.04L369.03 221.91L401.03 221.98H409.88H412.2H413.01H412.23H409.93H401.11L369.01 222.04H368.88V221.92C368.88 203.64 368.88 180.52 368.88 155.44V155.28H369H413H413.14V155.42C413.14 175.01 413.09 191.64 413.07 203.42C413.07 209.27 413.07 213.9 413.07 217.08C413.07 218.65 413.07 219.86 413.07 220.69C413.07 221.1 413.07 221.4 413.07 221.62L413 222.05Z" fill="#E0E0E0"/>
<path d="M420.43 146.38C420.148 146.918 419.813 147.428 419.43 147.9C418.75 148.81 417.78 150.04 416.68 151.38C415.58 152.72 414.55 153.9 413.79 154.75C413.402 155.226 412.97 155.664 412.5 156.06C412.834 155.544 413.208 155.056 413.62 154.6L416.44 151.18L419.25 147.76C419.609 147.272 420.003 146.81 420.43 146.38Z" fill="#E0E0E0"/>
<path d="M413.22 221.83C415.404 225.31 417.977 228.531 420.89 231.43L413.22 221.83Z" fill="white"/>
<path d="M420.89 231.43C420.403 231.073 419.957 230.664 419.56 230.21C418.538 229.174 417.57 228.086 416.66 226.95C415.751 225.813 414.9 224.632 414.11 223.41C413.758 222.916 413.46 222.387 413.22 221.83C413.613 222.288 413.974 222.772 414.3 223.28C414.94 224.19 415.85 225.42 416.91 226.75C417.97 228.08 418.98 229.23 419.72 230.06C420.145 230.485 420.536 230.943 420.89 231.43Z" fill="#E0E0E0"/>
<path d="M361.72 231.17L369.39 221.71L361.72 231.17Z" fill="white"/>
<path d="M369.39 221.71C369.45 221.71 367.79 223.93 365.68 226.54C364.429 228.153 363.094 229.698 361.68 231.17C364.069 227.884 366.629 224.727 369.35 221.71H369.39Z" fill="#E0E0E0"/>
<path d="M361.73 146.38C363.044 147.8 364.285 149.285 365.45 150.83C366.692 152.315 367.85 153.867 368.92 155.48C367.602 154.053 366.36 152.558 365.2 151C363.956 149.528 362.797 147.985 361.73 146.38Z" fill="#E0E0E0"/>
<path d="M399.29 169.07H384.56V210.9H399.29V169.07Z" fill="#E0E0E0"/>
<path d="M409.708 56.2117L401.329 56.2571L401.554 97.9565L409.934 97.9111L409.708 56.2117Z" fill="#E0E0E0"/>
<path d="M350.43 56.3228L328.73 56.4402L328.855 79.4598L350.555 79.3424L350.43 56.3228Z" fill="#EBEBEB"/>
<path d="M372.019 56.2158L350.319 56.3333L350.444 79.3529L372.144 79.2355L372.019 56.2158Z" fill="#F5F5F5"/>
<path d="M328.76 62.8199C343.18 62.9399 357.64 62.8199 372.06 62.6199C372.121 62.6199 372.179 62.5957 372.223 62.5525C372.266 62.5094 372.29 62.4509 372.29 62.3899C372.29 62.3289 372.266 62.2704 372.223 62.2273C372.179 62.1841 372.121 62.1599 372.06 62.1599C357.627 62.0799 343.193 62.1666 328.76 62.4199C328.707 62.4199 328.656 62.441 328.619 62.4785C328.581 62.516 328.56 62.5669 328.56 62.6199C328.56 62.6729 328.581 62.7238 328.619 62.7613C328.656 62.7988 328.707 62.8199 328.76 62.8199Z" fill="#E0E0E0"/>
<path d="M354.623 78.9698L315.193 79.1831L315.295 97.9428L354.724 97.7295L354.623 78.9698Z" fill="#EBEBEB"/>
<path d="M393.871 78.7574L354.442 78.9707L354.543 97.7304L393.973 97.5171L393.871 78.7574Z" fill="#F5F5F5"/>
<path d="M315.22 84.4098C341.42 84.7098 367.7 84.4098 393.89 84.0198C393.951 84.0198 394.01 83.9956 394.053 83.9524C394.096 83.9093 394.12 83.8508 394.12 83.7898C394.12 83.7288 394.096 83.6703 394.053 83.6272C394.01 83.584 393.951 83.5598 393.89 83.5598C367.69 83.4198 341.41 83.4398 315.22 84.0098C315.167 84.0098 315.116 84.0309 315.079 84.0684C315.041 84.1059 315.02 84.1567 315.02 84.2098C315.02 84.2628 315.041 84.3137 315.079 84.3512C315.116 84.3887 315.167 84.4098 315.22 84.4098Z" fill="#E0E0E0"/>
<path d="M453.24 97.95H300.48V104.67H453.24V97.95Z" fill="#E0E0E0"/>
<path d="M331.69 101.18H325.49V124.11H331.69V101.18Z" fill="#E0E0E0"/>
<path d="M424.26 101.18H418.06V124.11H424.26V101.18Z" fill="#E0E0E0"/>
<path d="M417.884 40.6676L409.504 40.7129L409.815 98.062L418.194 98.0167L417.884 40.6676Z" fill="#EBEBEB"/>
<path d="M430.982 51.3465L417.962 51.417L418.213 97.8963L431.233 97.8259L430.982 51.3465Z" fill="#F5F5F5"/>
<path d="M430.89 60.3099C426.562 60.6156 422.218 60.6156 417.89 60.3099C422.218 60.0175 426.562 60.0175 430.89 60.3099Z" fill="#E0E0E0"/>
<path d="M430.89 58.3599C426.562 58.6657 422.218 58.6657 417.89 58.3599C422.218 58.0675 426.562 58.0675 430.89 58.3599Z" fill="#E0E0E0"/>
<path d="M430.89 90.8399C426.562 91.1456 422.218 91.1456 417.89 90.8399C422.218 90.5475 426.562 90.5475 430.89 90.8399Z" fill="#E0E0E0"/>
<path d="M430.89 88.89C426.562 89.1957 422.218 89.1957 417.89 88.89C422.218 88.5975 426.562 88.5975 430.89 88.89Z" fill="#E0E0E0"/>
<path d="M424.59 84.6299C424.46 84.6299 424.36 79.9399 424.36 74.1599C424.36 68.3799 424.46 63.6899 424.59 63.6899C424.72 63.6899 424.81 68.3799 424.81 74.1599C424.81 79.9399 424.71 84.6299 424.59 84.6299Z" fill="#E0E0E0"/>
<path d="M445.2 62.7698H431.03V97.8498H445.2V62.7698Z" fill="#EBEBEB"/>
<path d="M438.52 88.76C438.098 88.7846 437.676 88.7197 437.281 88.5698C436.886 88.4198 436.527 88.1881 436.227 87.8897C435.928 87.5914 435.695 87.2332 435.544 86.8386C435.393 86.444 435.327 86.0219 435.35 85.6C435.327 85.1401 435.42 84.6819 435.621 84.2677C435.822 83.8535 436.125 83.4966 436.5 83.23L436.82 83.68C436.52 83.8993 436.278 84.1891 436.115 84.5239C435.953 84.8587 435.876 85.2282 435.89 85.6C435.89 86.2975 436.167 86.9665 436.66 87.4597C437.154 87.9529 437.822 88.23 438.52 88.23C439.218 88.23 439.886 87.9529 440.38 87.4597C440.873 86.9665 441.15 86.2975 441.15 85.6C441.165 85.2271 441.087 84.8564 440.923 84.5212C440.758 84.186 440.514 83.897 440.21 83.68L440.54 83.23C440.911 83.5002 441.209 83.8581 441.408 84.2716C441.607 84.6852 441.7 85.1415 441.68 85.6C441.703 86.021 441.637 86.4422 441.487 86.8361C441.336 87.2299 441.104 87.5876 440.806 87.8858C440.508 88.184 440.15 88.4159 439.756 88.5666C439.362 88.7172 438.941 88.7831 438.52 88.76Z" fill="#FAFAFA"/>
<path d="M440.88 82.3599L440.41 82.0899C440.901 81.4432 441.165 80.6521 441.16 79.8399C441.16 78.5299 440.69 77.9999 439.99 77.9999C438.17 77.9999 439.51 82.1399 437.06 82.1399C436.12 82.1399 435.35 81.3499 435.35 79.7699C435.338 79.012 435.55 78.2674 435.96 77.6299L436.44 77.9099C436.063 78.4597 435.867 79.1135 435.88 79.7799C435.88 80.9999 436.38 81.5399 437.05 81.5399C438.92 81.5399 437.6 77.3999 439.98 77.3999C440.98 77.3999 441.68 78.2799 441.68 79.8699C441.71 80.7676 441.428 81.6479 440.88 82.3599Z" fill="#FAFAFA"/>
<path d="M440.88 76.6499L440.41 76.3799C440.901 75.7333 441.165 74.9422 441.16 74.1299C441.16 72.8199 440.69 72.2899 439.99 72.2899C438.17 72.2899 439.51 76.4199 437.06 76.4199C436.12 76.4199 435.35 75.6399 435.35 74.0599C435.338 73.302 435.55 72.5574 435.96 71.9199L436.44 72.1899C436.064 72.744 435.869 73.4006 435.88 74.0699C435.88 75.2899 436.38 75.8299 437.05 75.8299C438.92 75.8299 437.6 71.6899 439.98 71.6899C440.98 71.6899 441.68 72.5599 441.68 74.1499C441.712 75.0509 441.429 75.9349 440.88 76.6499Z" fill="#FAFAFA"/>
<path d="M413.57 52.8898C414.901 52.8898 415.98 51.8108 415.98 50.4798C415.98 49.1488 414.901 48.0698 413.57 48.0698C412.239 48.0698 411.16 49.1488 411.16 50.4798C411.16 51.8108 412.239 52.8898 413.57 52.8898Z" fill="#E0E0E0"/>
<path d="M414.31 57.0999H412.82V91.2199H414.31V57.0999Z" fill="#E0E0E0"/>
<path d="M470.81 454C470.81 454.14 374.22 454.26 255.1 454.26C135.98 454.26 39.37 454.16 39.37 454C39.37 453.84 135.94 453.74 255.1 453.74C374.26 453.74 470.81 453.88 470.81 454Z" fill="#263238"/>
<path d="M156.18 110.24C140.13 135.48 141.18 170.48 158.72 194.71C170.41 210.87 187.94 221.71 201.86 235.97C215.78 250.23 226.36 271.28 219.01 289.82C211.53 308.69 189.62 316.36 173.22 328.32C155.125 341.499 142.842 361.177 138.948 383.221C135.055 405.265 139.855 427.96 152.34 446.54H322.76C322.76 446.54 352.7 389.49 314.21 346C275.72 302.51 255.05 301.81 256.47 273.29C257.89 244.77 277.85 235.52 289.26 224.82C300.67 214.12 356.26 189.19 323.47 110.23L156.18 110.24Z" fill="#FAFAFA"/>
<path d="M156.18 110.24H159.11H167.75H201.01L323.47 110.15H323.6V110.27C326.11 116.249 328.248 122.377 330 128.62C331.84 135.156 333.052 141.853 333.62 148.62C334.21 155.693 333.847 162.813 332.54 169.79C331.105 177.022 328.504 183.972 324.84 190.37C322.941 193.633 320.795 196.745 318.42 199.68C315.996 202.654 313.373 205.46 310.57 208.08C307.731 210.747 304.757 213.267 301.66 215.63C298.56 218.03 295.32 220.29 292.16 222.69C290.58 223.88 289.16 225.22 287.62 226.56C286.08 227.9 284.55 229.15 282.97 230.41C279.82 232.93 276.64 235.41 273.64 238.2C267.379 243.627 262.567 250.528 259.64 258.28C258.233 262.256 257.346 266.397 257 270.6C256.91 271.6 256.77 272.7 256.73 273.76C256.69 274.82 256.65 275.88 256.73 276.94C256.753 279.068 256.967 281.19 257.37 283.28C258.163 287.515 259.892 291.519 262.43 295C265.042 298.48 268.001 301.687 271.26 304.57C277.73 310.48 284.6 316.13 291.17 322.23C297.74 328.33 304.17 334.69 310.37 341.42C313.533 344.751 316.492 348.271 319.23 351.96C321.984 355.695 324.378 359.683 326.38 363.87C330.427 372.357 332.913 381.502 333.72 390.87C334.536 400.367 333.976 409.932 332.06 419.27C331.128 423.988 329.906 428.643 328.4 433.21C326.92 437.815 325.115 442.31 323 446.66L322.93 446.8H152.2L152.13 446.69C144.138 434.657 139.237 420.839 137.86 406.46C136.475 392.648 138.501 378.707 143.76 365.86C148.759 353.58 156.455 342.582 166.28 333.68C171.048 329.471 176.197 325.715 181.66 322.46C186.98 319.16 192.35 316.1 197.42 312.76C202.495 309.588 207.157 305.799 211.3 301.48C215.256 297.239 218.191 292.149 219.88 286.6C221.36 281.186 221.593 275.507 220.56 269.99C219.573 264.666 217.797 259.519 215.29 254.72C212.892 250.099 210.016 245.742 206.71 241.72C203.519 237.862 200.049 234.242 196.33 230.89C189.12 224.25 181.73 218.44 175.09 212.47C171.76 209.47 168.61 206.47 165.7 203.4C162.88 200.394 160.279 197.189 157.92 193.81C153.654 187.612 150.366 180.796 148.17 173.6C146.246 167.385 145.13 160.949 144.85 154.45C144.71 152.97 144.77 151.51 144.77 150.08C144.77 148.65 144.77 147.26 144.9 145.91C145.03 144.56 145.1 143.24 145.2 141.91C145.3 140.58 145.57 139.39 145.74 138.18C146.845 130.814 149.099 123.667 152.42 117C152.87 115.969 153.384 114.967 153.96 114L155.19 111.91C155.84 110.8 156.19 110.24 156.19 110.24L155.19 111.94L154 114C153.438 114.971 152.93 115.972 152.48 117C149.189 123.683 146.962 130.839 145.88 138.21C145.71 139.41 145.51 140.65 145.36 141.92C145.21 143.19 145.16 144.52 145.06 145.87C144.96 147.22 144.96 148.61 144.95 150.03C144.94 151.45 144.9 152.91 145.04 154.39C145.329 160.868 146.455 167.281 148.39 173.47C150.584 180.64 153.869 187.43 158.13 193.6C160.484 196.965 163.081 200.154 165.9 203.14C168.8 206.22 171.95 209.22 175.28 212.14C181.92 218.14 189.28 223.89 196.54 230.54C200.288 233.916 203.784 237.563 207 241.45C210.325 245.501 213.217 249.888 215.63 254.54C218.161 259.369 219.954 264.55 220.95 269.91C221.997 275.486 221.765 281.227 220.27 286.7C218.574 292.313 215.611 297.462 211.61 301.75C207.447 306.094 202.765 309.909 197.67 313.11C192.58 316.46 187.21 319.52 181.9 322.82C176.46 326.066 171.331 329.809 166.58 334C156.816 342.856 149.164 353.792 144.19 366C138.962 378.781 136.954 392.651 138.34 406.39C139.717 420.687 144.594 434.425 152.54 446.39L152.34 446.28H322.76L322.53 446.42C324.642 442.081 326.44 437.596 327.91 433C329.408 428.453 330.624 423.817 331.55 419.12C333.458 409.829 334.014 400.31 333.2 390.86C332.409 381.543 329.939 372.447 325.91 364.01C323.923 359.853 321.549 355.892 318.82 352.18C316.088 348.51 313.143 345.004 310 341.68C303.833 334.967 297.443 328.58 290.83 322.52C284.27 316.43 277.42 310.79 270.93 304.85C267.645 301.943 264.66 298.713 262.02 295.21C259.432 291.687 257.659 287.632 256.83 283.34C256.43 281.219 256.212 279.068 256.18 276.91C256.13 275.84 256.18 274.77 256.18 273.7C256.18 272.63 256.36 271.57 256.44 270.51C256.807 266.282 257.714 262.118 259.14 258.12C262.092 250.3 266.949 243.34 273.27 237.87C276.27 235.09 279.48 232.57 282.63 230.06C284.21 228.8 285.76 227.53 287.27 226.23C288.78 224.93 290.27 223.53 291.83 222.33C295.01 219.93 298.24 217.67 301.33 215.28C304.418 212.928 307.385 210.421 310.22 207.77C313.005 205.162 315.614 202.372 318.03 199.42C320.386 196.496 322.522 193.4 324.42 190.16C328.064 183.806 330.651 176.903 332.08 169.72C333.381 162.8 333.747 155.737 333.17 148.72C332.611 141.954 331.409 135.257 329.58 128.72C327.852 122.46 325.741 116.311 323.26 110.31L323.43 110.42L201.04 110.33H167.76H159.1L156.18 110.24Z" fill="#263238"/>
<path d="M316.67 156.53C341.77 160.66 302.2 205.12 279.79 222.66C266.79 232.81 252.89 243.83 246.73 259.11C239.73 276.45 244.92 295.93 241.54 313.37C241.431 313.971 241.099 314.509 240.61 314.876C240.12 315.242 239.511 315.41 238.903 315.345C238.295 315.281 237.734 314.989 237.333 314.528C236.932 314.067 236.72 313.471 236.74 312.86C236.9 301.41 236.6 289.97 234.74 278.7C232.05 262.7 225.91 246.91 214.74 235.2C205.59 225.63 193.6 219.28 183.85 210.34C169.61 197.29 154.98 180.46 153.55 161.2C153.55 161.2 180.89 139.2 196.07 141.95C213.81 145.2 231.27 172.57 258.75 169.44C277.87 167.25 287.56 151.75 316.67 156.53Z" fill="#F97316"/>
<path d="M318.9 394.48C318.27 388.2 316.59 381.1 311.02 378.14C307.65 376.34 303.54 376.54 299.84 377.51C296.14 378.48 292.67 380.17 289.01 381.26C281.734 383.399 273.964 383.151 266.84 380.55C260.03 378.05 254.19 373.55 247.84 369.97C241.49 366.39 234.12 363.77 227.08 365.52C214.94 368.52 208.62 383.16 196.62 386.69C191.28 388.25 185.55 387.37 180.13 386.15C174.71 384.93 169.26 383.34 163.71 383.55C159.35 383.71 154.82 385.22 151.77 388.2L151.69 388.29C151.182 388.787 150.72 389.33 150.31 389.91C146.59 394.91 145.99 401.54 147.14 407.6C148.42 414.39 151.59 420.66 154.99 426.67C158.99 433.75 163.55 440.79 170.17 445.51C178.35 451.34 188.62 447.32 198.63 448.11C221.96 449.95 247.06 451.2 270.4 449.4C282.73 448.4 294.28 449.78 304.06 442.21C310.94 436.89 315.42 428.87 317.58 420.45C319.74 412.03 319.77 403.13 318.9 394.48Z" fill="#F97316"/>
<g opacity="0.24">
<path d="M274.86 382.46C273.55 384.46 272.98 387.18 274.25 389.22C275.52 391.26 277.25 393.13 277.79 395.48C278.66 399.16 276.44 402.76 274.79 406.17C271.736 412.267 270.583 419.14 271.48 425.9C272.426 432.682 275.928 438.846 281.27 443.13C283.64 444.96 286.72 446.38 289.58 445.48C292.27 444.64 294 441.91 294.58 439.14C295.16 436.37 294.67 433.52 294.32 430.73C292.691 417.727 293.028 404.553 295.32 391.65C295.7 389.5 296.06 387.04 294.7 385.33C293.719 384.334 292.473 383.64 291.11 383.33C285.91 381.6 280.3 383.52 274.91 382.5" fill="black"/>
</g>
<path d="M139.83 454.28C139.83 454.28 139.36 446.46 149.56 442.1H328.81C328.81 442.1 338.16 446.84 339.31 454.1L139.83 454.28Z" fill="#263238"/>
<path d="M325 111.19L324.71 111.32L156.16 110.24C156.16 110.24 155.56 109.86 154.67 109.15C153.619 108.327 152.853 107.195 152.478 105.914C152.103 104.633 152.139 103.267 152.58 102.007C153.021 100.748 153.846 99.6577 154.938 98.8906C156.03 98.1235 157.335 97.7176 158.67 97.73L322.27 99.05C329 99.11 331.12 108.31 325 111.19Z" fill="#263238"/>
<g opacity="0.24">
<path d="M298 175.49C298.34 176.14 297.07 177.49 294.66 179.69C292.25 181.89 288.66 184.78 284.2 188.41C278.845 192.834 273.162 196.846 267.2 200.41C263.496 202.555 259.599 204.346 255.56 205.76C253.371 206.517 251.137 207.135 248.87 207.61C246.489 208.116 244.071 208.43 241.64 208.55C236.713 208.818 231.781 208.139 227.11 206.55C222.98 205.048 219.056 203.032 215.43 200.55C212.07 198.33 209.18 196.13 206.43 194.02C203.68 191.91 201.23 189.88 199.01 187.96C190.16 180.29 185.5 174.65 186.4 173.56C187.3 172.47 193.6 176.02 203.4 182.02L211.4 186.92C214.27 188.66 217.34 190.59 220.48 192.37C223.596 194.199 226.898 195.691 230.33 196.82C233.842 197.872 237.51 198.305 241.17 198.1C248.85 197.7 256.3 195 262.75 191.88C269.2 188.76 275.04 185.12 280.1 182.28C284.104 179.917 288.291 177.877 292.62 176.18C295.79 175.07 297.71 174.86 298 175.49Z" fill="black"/>
</g>
<path d="M236.86 334.26C237.569 333.978 238.36 333.987 239.062 334.284C239.764 334.581 240.321 335.143 240.612 335.847C240.903 336.552 240.905 337.343 240.617 338.049C240.33 338.755 239.775 339.32 239.074 339.62C238.373 339.921 237.582 339.933 236.873 339.654C236.163 339.376 235.591 338.829 235.282 338.132C234.972 337.435 234.95 336.644 235.219 335.931C235.488 335.217 236.027 334.639 236.72 334.32" fill="#F97316"/>
<path d="M176.58 203.38C176.361 203.2 176.16 202.999 175.98 202.78L174.35 201C173.66 200.21 172.75 199.29 171.82 198.12L168.64 194.12C167.55 192.58 166.32 190.92 165.08 189.12L163.25 186.21C162.94 185.71 162.61 185.21 162.31 184.68L161.43 183.06C158.769 178.343 156.684 173.324 155.22 168.11C153.749 162.9 152.956 157.523 152.86 152.11C152.86 150.86 152.93 149.65 152.95 148.46C152.95 147.87 152.95 147.29 153.03 146.72C153.11 146.15 153.15 145.59 153.21 145.04C153.34 143.94 153.42 142.87 153.57 141.85C153.72 140.83 153.93 139.85 154.1 138.94C154.38 137.07 154.88 135.44 155.23 133.94C155.42 133.22 155.57 132.54 155.76 131.94L156.31 130.27L157.08 127.98C157.154 127.707 157.254 127.443 157.38 127.19C157.339 127.469 157.272 127.743 157.18 128.01C157.01 128.59 156.79 129.36 156.5 130.33L156 132C155.83 132.61 155.69 133.29 155.51 134C155.19 135.45 154.72 137.09 154.51 139C154.35 139.92 154.19 140.89 154.02 141.9C153.85 142.91 153.81 143.97 153.69 145.07C153.69 145.62 153.58 146.17 153.52 146.74C153.46 147.31 153.52 147.89 153.46 148.47C153.46 149.65 153.38 150.85 153.39 152.09C153.488 157.471 154.271 162.817 155.72 168C157.176 173.176 159.233 178.163 161.85 182.86C162.14 183.4 162.43 183.94 162.71 184.48C162.99 185.02 163.34 185.48 163.64 186L165.44 188.91C166.66 190.75 167.87 192.41 168.93 193.91L172.05 197.91C172.95 199.1 173.84 200.03 174.5 200.85L176.06 202.7C176.247 202.915 176.421 203.143 176.58 203.38Z" fill="#263238"/>
<path d="M167.09 351.94C167.14 351.825 167.2 351.714 167.27 351.61L167.87 350.67C168.14 350.25 168.47 349.75 168.87 349.15L169.5 348.15C169.75 347.82 170.04 347.49 170.33 347.15L172.33 344.75C173.1 343.92 173.98 343.06 174.91 342.12C177.066 340.044 179.358 338.113 181.77 336.34C187.08 332.34 193.93 328.34 201.35 323.65C205.252 321.246 209.002 318.604 212.58 315.74C216.418 312.683 219.808 309.101 222.65 305.1C227.851 297.108 230.678 287.805 230.8 278.27C230.927 270.499 229.625 262.771 226.96 255.47C225.195 250.543 222.979 245.79 220.34 241.27C219.41 239.66 218.65 238.44 218.13 237.61L217.54 236.67C217.41 236.46 217.35 236.34 217.35 236.34C217.439 236.43 217.516 236.531 217.58 236.64L218.22 237.56C218.77 238.36 219.56 239.56 220.51 241.17C223.23 245.665 225.508 250.414 227.31 255.35C230.047 262.681 231.403 270.455 231.31 278.28C231.268 280.536 231.084 282.787 230.76 285.02C230.436 287.356 229.945 289.665 229.29 291.93C227.924 296.726 225.801 301.274 223 305.4C220.129 309.444 216.702 313.063 212.82 316.15C209.221 319.017 205.45 321.662 201.53 324.07C194.08 328.72 187.22 332.68 181.91 336.65C179.499 338.399 177.201 340.3 175.03 342.34C174.1 343.27 173.21 344.11 172.43 344.93L170.43 347.28C170.13 347.64 169.84 347.97 169.59 348.28L168.94 349.23L167.94 350.72L167.3 351.63C167.238 351.739 167.168 351.843 167.09 351.94Z" fill="#263238"/>
<path d="M157.79 369.61C157.73 369.772 157.656 369.93 157.57 370.08L156.85 371.35C156.53 371.89 156.15 372.57 155.76 373.35C155.37 374.13 154.87 375.05 154.45 376.1C154.23 376.62 153.99 377.16 153.75 377.72C153.51 378.28 153.31 378.9 153.07 379.52C152.59 380.76 152.21 382.12 151.77 383.52C150.031 389.789 149.431 396.319 150 402.8C150.17 404.28 150.29 405.7 150.55 407C150.66 407.65 150.75 408.29 150.88 408.89C151.01 409.49 151.15 410.07 151.28 410.62C151.5 411.73 151.83 412.7 152.07 413.56C152.31 414.42 152.55 415.16 152.77 415.76L153.24 417.14C153.307 417.296 153.351 417.461 153.37 417.63C153.274 417.491 153.196 417.339 153.14 417.18C152.99 416.81 152.81 416.37 152.58 415.83C152.278 415.118 152.014 414.39 151.79 413.65C151.52 412.79 151.17 411.82 150.92 410.71C150.78 410.16 150.64 409.58 150.49 408.98C150.34 408.38 150.25 407.73 150.12 407.08C149.84 405.76 149.7 404.34 149.52 402.85C148.894 396.329 149.498 389.748 151.3 383.45C151.75 382.01 152.15 380.64 152.66 379.4C152.91 378.78 153.11 378.17 153.37 377.6L154.11 375.97C154.55 374.97 155.11 374.04 155.5 373.24C155.852 372.552 156.243 371.884 156.67 371.24L157.47 370.01C157.67 369.74 157.77 369.6 157.79 369.61Z" fill="#263238"/>
<path d="M281.42 393.65L281.22 393.79L280.6 394.18L278.17 395.64L276.41 396.64C275.75 397.01 275.02 397.35 274.24 397.74C272.66 398.5 270.92 399.47 268.86 400.25L265.66 401.56C264.55 402 263.34 402.35 262.12 402.77C259.69 403.66 256.99 404.3 254.18 405.03C241.842 407.92 229.044 408.26 216.57 406.03C213.71 405.45 210.99 404.95 208.51 404.19C207.27 403.83 206.05 403.55 204.91 403.19L201.65 402C199.56 401.33 197.76 400.46 196.15 399.78C195.35 399.43 194.6 399.12 193.93 398.78L192.11 397.83L189.61 396.5L188.97 396.14L188.76 396.01C188.76 396.01 188.85 396.01 189 396.1L189.66 396.41L192.2 397.65L194.03 398.55C194.71 398.87 195.47 399.16 196.27 399.5C197.88 400.14 199.68 400.99 201.78 401.63L205 402.8C206.14 403.18 207.36 403.45 208.6 403.8C211.07 404.54 213.78 405.01 216.6 405.58C229.016 407.73 241.736 407.39 254.02 404.58C256.82 403.86 259.51 403.25 261.94 402.38C263.16 401.97 264.36 401.64 265.47 401.2L268.67 399.93C270.73 399.17 272.48 398.23 274.06 397.5C274.84 397.12 275.58 396.79 276.24 396.5L278.02 395.5L280.49 394.12L281.14 393.78C281.34 393.67 281.42 393.64 281.42 393.65Z" fill="#263238"/>
<path d="M291.85 182C291.789 182.072 291.718 182.136 291.64 182.19L290.98 182.73C290.37 183.22 289.52 183.91 288.43 184.73C286.21 186.49 282.99 189.04 278.92 192.08C274.184 195.706 269.217 199.019 264.05 202C260.977 203.719 257.774 205.194 254.47 206.41C250.906 207.707 247.188 208.534 243.41 208.87C236.065 209.282 228.741 207.758 222.17 204.45C219.328 203.007 216.586 201.376 213.96 199.57C211.52 197.85 209.29 196.18 207.32 194.57C203.32 191.39 200.26 188.7 198.1 186.86L195.63 184.72L195 184.16L194.79 183.95C194.79 183.95 194.88 183.95 195.03 184.11L195.7 184.64L198.23 186.7C200.43 188.5 203.57 191.14 207.55 194.28C209.55 195.85 211.76 197.5 214.21 199.2C216.827 200.975 219.556 202.579 222.38 204C228.885 207.242 236.123 208.735 243.38 208.33C247.113 207.999 250.787 207.186 254.31 205.91C257.592 204.71 260.775 203.256 263.83 201.56C268.989 198.633 273.962 195.391 278.72 191.85C282.8 188.85 286.05 186.35 288.32 184.64L290.93 182.64L291.62 182.14C291.689 182.082 291.767 182.035 291.85 182Z" fill="#263238"/>
<g opacity="0.24">
<path d="M201.66 402.05C206.4 398.39 213.06 399.27 218.92 400.51C224.78 401.75 230.68 403.74 236.61 402.91C241.08 402.28 245.18 400.09 249.61 399.13C254.04 398.17 259.37 398.88 261.82 402.67C242.238 408.98 221.137 408.762 201.69 402.05" fill="black"/>
</g>
<path d="M67.46 427.85C67.5038 427.704 67.5642 427.563 67.64 427.43L68.2 426.22C68.8896 424.656 69.4482 423.037 69.87 421.38C70.97 417.08 71.35 410.51 69.72 402.71C68.8431 398.455 67.6872 394.263 66.26 390.16C64.79 385.71 63.09 380.99 61.7 375.88C60.1306 370.551 59.3721 365.015 59.45 359.46C59.66 353.65 61.38 347.85 63.27 342.08C65.16 336.31 67.11 330.65 67.69 324.97C68.3455 319.505 67.2495 313.973 64.56 309.17C62.05 304.55 58.91 300.61 56.56 296.52C54.3574 292.733 52.7328 288.638 51.74 284.37C50.3235 278.184 50.2213 271.769 51.44 265.54C51.8883 263.264 52.5582 261.036 53.44 258.89C53.4165 259.043 53.3797 259.194 53.33 259.34L52.93 260.61C50.5771 268.29 50.3251 276.46 52.2 284.27C53.2021 288.489 54.8301 292.534 57.03 296.27C59.38 300.27 62.54 304.27 65.09 308.9C67.8212 313.797 68.9376 319.431 68.28 325C67.69 330.78 65.72 336.47 63.84 342.24C61.96 348.01 60.25 353.74 60.04 359.45C59.9529 364.949 60.6912 370.43 62.23 375.71C63.6 380.79 65.29 385.51 66.73 389.98C68.1452 394.107 69.2844 398.323 70.14 402.6C71.73 410.46 71.27 417.1 70.14 421.41C69.6992 423.072 69.1033 424.689 68.36 426.24C68.1 426.74 67.89 427.13 67.74 427.43C67.6604 427.579 67.5666 427.719 67.46 427.85Z" fill="#263238"/>
<path d="M59.75 300.55C59.75 300.55 54.96 285.25 63.55 276.29C63.6166 276.218 63.7018 276.166 63.7963 276.139C63.8907 276.113 63.9907 276.113 64.085 276.14C64.1794 276.167 64.2644 276.22 64.3306 276.292C64.3968 276.364 64.4416 276.454 64.46 276.55C64.92 279.08 65.49 286.78 59.75 300.55Z" fill="#F97316"/>
<path d="M62.62 281.39C62.604 282.339 62.4934 283.283 62.29 284.21C61.98 286.21 61.61 288.44 61.2 290.96C60.79 293.48 60.44 295.77 60.13 297.71C60.0491 298.658 59.8784 299.595 59.62 300.51C59.5391 299.56 59.5693 298.603 59.71 297.66C59.87 295.91 60.18 293.51 60.61 290.87C61.04 288.23 61.5 285.87 61.88 284.14C62.0202 283.198 62.2685 282.275 62.62 281.39Z" fill="#263238"/>
<path d="M65.37 336.65C65.37 336.65 68.3 320.88 80.08 317C80.1729 316.968 80.2729 316.962 80.3689 316.983C80.4649 317.004 80.5532 317.052 80.6237 317.12C80.6943 317.189 80.7444 317.275 80.7685 317.371C80.7926 317.466 80.7896 317.566 80.76 317.66C80 320.08 76.89 327.16 65.37 336.65Z" fill="#F97316"/>
<path d="M76.87 321.05C76.4126 321.882 75.8733 322.666 75.26 323.39C74.08 324.97 72.68 326.81 71.14 328.85L67 334.32C66.4832 335.116 65.894 335.862 65.24 336.55C65.6118 335.671 66.085 334.839 66.65 334.07C67.65 332.6 69 330.62 70.65 328.49C72.3 326.36 73.79 324.49 74.92 323.13C75.4876 322.364 76.142 321.666 76.87 321.05Z" fill="#263238"/>
<path d="M62.19 376.2C62.19 376.2 60.41 360.26 70.55 353.1C70.6299 353.043 70.7242 353.008 70.8224 353.001C70.9206 352.994 71.0188 353.015 71.106 353.061C71.1932 353.106 71.266 353.175 71.3162 353.26C71.3663 353.345 71.3919 353.442 71.39 353.54C71.36 356.1 70.45 363.77 62.19 376.2Z" fill="#F97316"/>
<path d="M68.66 357.93C68.4698 358.861 68.1815 359.77 67.8 360.64C67.12 362.49 66.33 364.64 65.44 367.06L63.11 373.48C62.8622 374.393 62.5273 375.281 62.11 376.13C62.2158 375.183 62.4272 374.251 62.74 373.35C63.23 371.66 63.99 369.35 64.92 366.85C65.85 364.35 66.76 362.1 67.45 360.49C67.7551 359.594 68.1611 358.735 68.66 357.93Z" fill="#263238"/>
<path d="M71.06 416C71.06 416 69.85 400 80.24 393.22C80.3212 393.164 80.4164 393.132 80.5149 393.127C80.6134 393.123 80.7112 393.145 80.7974 393.193C80.8837 393.241 80.9549 393.312 81.003 393.398C81.0512 393.484 81.0744 393.582 81.07 393.68C80.94 396.23 79.76 403.86 71.06 416Z" fill="#F97316"/>
<path d="M78.18 398C77.9401 398.925 77.6049 399.824 77.18 400.68C76.43 402.5 75.56 404.68 74.59 407L72.02 413.34C71.758 414.222 71.4166 415.079 71 415.9C71.1344 414.958 71.3795 414.035 71.73 413.15C72.27 411.48 73.12 409.21 74.14 406.74C75.16 404.27 76.14 402.05 76.89 400.47C77.228 399.602 77.6606 398.773 78.18 398Z" fill="#263238"/>
<path d="M52.87 287.11C52.87 287.11 38.66 279.69 38.38 267.28C38.3756 267.182 38.3988 267.084 38.447 266.998C38.4951 266.912 38.5663 266.841 38.6526 266.793C38.7388 266.745 38.8367 266.722 38.9351 266.727C39.0336 266.732 39.1288 266.764 39.21 266.82C41.32 268.28 47.17 273.31 52.87 287.11Z" fill="#F97316"/>
<path d="M41.33 271.54C41.9942 272.218 42.5873 272.962 43.1 273.76L47.1 279.3L51.1 284.83C51.7094 285.556 52.2516 286.336 52.72 287.16C51.968 286.558 51.296 285.862 50.72 285.09C49.59 283.75 48.1 281.83 46.54 279.66C44.98 277.49 43.62 275.48 42.67 274C42.131 273.234 41.6814 272.408 41.33 271.54Z" fill="#263238"/>
<path d="M68.13 320C68.13 320 53.5 313.46 52.46 301.09C52.4517 300.993 52.4704 300.895 52.514 300.808C52.5576 300.721 52.6245 300.647 52.7072 300.596C52.7899 300.544 52.8853 300.516 52.9828 300.515C53.0804 300.514 53.1763 300.54 53.26 300.59C55.46 301.88 61.61 306.55 68.13 320Z" fill="#F97316"/>
<path d="M55.67 305.14C56.3721 305.778 57.0086 306.485 57.57 307.25L61.91 312.54L66.26 317.81C66.9092 318.482 67.4919 319.216 68 320C67.2374 319.413 66.5431 318.742 65.93 318C64.72 316.72 63.12 314.9 61.43 312.83C59.74 310.76 58.26 308.83 57.23 307.42C56.6255 306.722 56.1021 305.957 55.67 305.14Z" fill="#263238"/>
<path d="M59.71 356.64C59.71 356.64 49.66 344.14 54.38 332.64C54.4159 332.549 54.4762 332.47 54.5543 332.411C54.6324 332.352 54.7252 332.316 54.8224 332.307C54.9197 332.298 55.0177 332.316 55.1055 332.358C55.1933 332.401 55.2675 332.468 55.32 332.55C56.67 334.76 60 341.71 59.71 356.64Z" fill="#F97316"/>
<path d="M55.37 337.75C55.7064 338.636 55.951 339.554 56.1 340.49C56.52 342.42 57.01 344.68 57.56 347.18C58.11 349.68 58.56 351.93 59.03 353.85C59.2975 354.761 59.4816 355.695 59.58 356.64C59.136 355.792 58.8 354.892 58.58 353.96C58.08 352.27 57.49 349.96 56.93 347.3C56.37 344.64 55.93 342.3 55.65 340.58C55.4535 339.65 55.3596 338.701 55.37 337.75Z" fill="#263238"/>
<path d="M69.67 399.78C69.67 399.78 55.14 393 54.32 380.6C54.3137 380.504 54.3339 380.408 54.3783 380.322C54.4227 380.236 54.4897 380.164 54.5721 380.114C54.6544 380.063 54.749 380.036 54.8456 380.036C54.9421 380.035 55.037 380.061 55.12 380.11C57.3 381.48 63.37 386.25 69.67 399.78Z" fill="#F97316"/>
<path d="M57.45 384.73C58.1443 385.378 58.7709 386.095 59.32 386.87C60.54 388.42 61.98 390.23 63.57 392.23L67.83 397.58C68.4705 398.28 69.0462 399.036 69.55 399.84C68.806 399.256 68.1346 398.584 67.55 397.84C66.37 396.55 64.8 394.7 63.15 392.6C61.5 390.5 60 388.56 59 387.13C58.3989 386.388 57.8793 385.583 57.45 384.73Z" fill="#263238"/>
<path d="M98.6 336.73C98.614 336.85 98.614 336.971 98.6 337.09C98.6 337.37 98.6 337.7 98.6 338.09C98.6 339.09 98.5 340.36 98.43 341.98C98.24 345.4 97.98 350.16 97.67 355.87C96.67 361.67 93.67 368.1 89.67 374.34C86.76 378.94 83.67 383.13 81.08 387.02C78.6855 390.416 76.5303 393.975 74.63 397.67C73.3875 400.177 72.3831 402.795 71.63 405.49C71.37 406.44 71.18 407.19 71.07 407.7C71.0258 407.963 70.9555 408.221 70.86 408.47C70.8632 408.205 70.8934 407.94 70.95 407.68C71.02 407.16 71.18 406.4 71.4 405.43C72.0786 402.673 73.0369 399.993 74.26 397.43C76.1186 393.69 78.2476 390.091 80.63 386.66C83.24 382.74 86.28 378.55 89.18 373.98C93.18 367.76 96.06 361.43 97.18 355.72C97.58 350.03 97.91 345.27 98.18 341.85C98.31 340.23 98.42 338.93 98.49 337.97C98.49 337.57 98.57 337.23 98.6 336.97C98.5914 336.89 98.5914 336.81 98.6 336.73Z" fill="#263238"/>
<path d="M90 373.2C90 373.2 96.15 358.39 88.41 348.69C88.35 348.612 88.2696 348.553 88.1777 348.518C88.0857 348.483 87.986 348.475 87.8895 348.493C87.793 348.512 87.7036 348.557 87.6313 348.624C87.559 348.69 87.5066 348.776 87.48 348.87C86.75 351.35 85.48 359 90 373.2Z" fill="#F97316"/>
<path d="M88.83 353.86C89.0952 354.773 89.2595 355.712 89.32 356.66C89.54 358.4 89.78 360.81 89.97 363.48C90.16 366.15 90.25 368.57 90.25 370.32C90.3116 371.27 90.2545 372.224 90.08 373.16C89.9062 372.23 89.8225 371.286 89.83 370.34C89.7 368.34 89.54 366.07 89.37 363.52C89.2 360.97 89.03 358.66 88.9 356.7C88.7834 355.758 88.7599 354.807 88.83 353.86Z" fill="#263238"/>
<g opacity="0.3">
<path d="M90 373.2C90 373.2 96.15 358.39 88.41 348.69C88.35 348.612 88.2696 348.553 88.1777 348.518C88.0857 348.483 87.986 348.475 87.8895 348.493C87.793 348.512 87.7036 348.557 87.6313 348.624C87.559 348.69 87.5066 348.776 87.48 348.87C86.75 351.35 85.48 359 90 373.2Z" fill="black"/>
</g>
<path d="M70.9 408.88C70.9 408.88 75.83 393.63 67.33 384.59C67.2641 384.518 67.1796 384.466 67.0859 384.439C66.9921 384.412 66.8927 384.411 66.7985 384.437C66.7044 384.463 66.6193 384.514 66.5525 384.585C66.4857 384.656 66.4398 384.745 66.42 384.84C65.93 387.36 65.29 395.05 70.9 408.88Z" fill="#F97316"/>
<path d="M68.21 389.69C68.5498 390.581 68.788 391.506 68.92 392.45C69.28 394.16 69.72 396.54 70.13 399.19C70.54 401.84 70.82 404.24 70.96 405.99C71.0959 406.934 71.116 407.891 71.02 408.84C70.7765 407.923 70.6158 406.986 70.54 406.04C70.25 404.04 69.91 401.81 69.54 399.28C69.17 396.75 68.81 394.47 68.54 392.52C68.3372 391.59 68.2267 390.642 68.21 389.69Z" fill="#263238"/>
<g opacity="0.3">
<path d="M70.9 408.88C70.9 408.88 75.83 393.63 67.33 384.59C67.2641 384.518 67.1796 384.466 67.0859 384.439C66.9921 384.412 66.8927 384.411 66.7985 384.437C66.7044 384.463 66.6193 384.514 66.5525 384.585C66.4857 384.656 66.4398 384.745 66.42 384.84C65.93 387.36 65.29 395.05 70.9 408.88Z" fill="black"/>
</g>
<path d="M97.78 355.11C97.78 355.11 110.92 345.91 109.59 333.57C109.581 333.472 109.546 333.379 109.487 333.3C109.429 333.221 109.349 333.16 109.258 333.124C109.167 333.088 109.067 333.077 108.97 333.094C108.874 333.111 108.783 333.155 108.71 333.22C106.81 335 101.65 340.69 97.78 355.11Z" fill="#F97316"/>
<g opacity="0.3">
<path d="M97.78 355.11C97.78 355.11 110.92 345.91 109.59 333.57C109.581 333.472 109.546 333.379 109.487 333.3C109.429 333.221 109.349 333.16 109.258 333.124C109.167 333.088 109.067 333.077 108.97 333.094C108.874 333.111 108.783 333.155 108.71 333.22C106.81 335 101.65 340.69 97.78 355.11Z" fill="black"/>
</g>
<path d="M107.22 338.18C106.955 339.091 106.589 339.97 106.13 340.8C105.38 342.39 104.29 344.55 103.02 346.91C101.75 349.27 100.53 351.36 99.58 352.84C99.1258 353.676 98.5644 354.449 97.91 355.14C98.2707 354.263 98.7091 353.419 99.22 352.62L102.49 346.62L105.75 340.62C106.155 339.758 106.647 338.941 107.22 338.18Z" fill="#263238"/>
<path d="M76.19 393.76C76.19 393.76 92 391.29 96.28 379.63C96.3154 379.538 96.3244 379.438 96.3061 379.341C96.2879 379.245 96.243 379.155 96.1765 379.082C96.11 379.009 96.0246 378.957 95.9299 378.93C95.8351 378.903 95.7347 378.903 95.64 378.93C93.17 379.63 86 382.52 76.19 393.76Z" fill="#F97316"/>
<g opacity="0.3">
<path d="M76.19 393.76C76.19 393.76 92 391.29 96.28 379.63C96.3154 379.538 96.3244 379.438 96.3061 379.341C96.2879 379.245 96.243 379.155 96.1765 379.082C96.11 379.009 96.0246 378.957 95.9299 378.93C95.8351 378.903 95.7347 378.903 95.64 378.93C93.17 379.63 86 382.52 76.19 393.76Z" fill="black"/>
</g>
<path d="M92.12 382.72C91.4812 383.417 90.7706 384.043 90 384.59C88.63 385.69 86.7 387.15 84.52 388.7C82.34 390.25 80.32 391.6 78.83 392.52C78.0467 393.063 77.2005 393.51 76.31 393.85C77.0172 393.219 77.7803 392.653 78.59 392.16L84.18 388.22L89.75 384.22C90.4859 383.639 91.2801 383.137 92.12 382.72Z" fill="#263238"/>
<path d="M61.08 422.92L56.46 454.02H85.26L81.52 422.92H61.08Z" fill="#455A64"/>
<path d="M82.68 432.55C82.68 432.72 77.48 432.85 71.06 432.85C64.64 432.85 59.45 432.72 59.45 432.55C63.3124 432.254 67.1874 432.154 71.06 432.25C74.9359 432.154 78.8142 432.254 82.68 432.55Z" fill="#263238"/>
<path d="M83.25 435C83.25 435.16 77.88 435.3 71.25 435.3C64.62 435.3 59.25 435.16 59.25 435C59.25 434.84 64.62 434.7 71.25 434.7C77.88 434.7 83.25 434.86 83.25 435Z" fill="#263238"/>
</svg>
