<svg width="500" height="500" viewBox="0 0 500 500" fill="none" xmlns="http://www.w3.org/2000/svg">
<path d="M402.12 428.84C417.894 418.593 431.002 404.737 440.36 388.42C497.52 289 484.61 142.26 374.53 79.3599C323.65 50.2899 250.41 31.8899 195.43 61.7499C150.83 85.9699 123.49 131.56 100.88 173.05C86.65 199.14 74.94 227.22 57.43 251.63C34.7 283.29 9.69 325.57 34.94 362.35C69.35 412.45 134.34 435.35 193.28 450.35C257.22 466.69 329.11 469.01 388.17 437.14C392.95 434.587 397.6 431.82 402.12 428.84Z" fill="#F97316"/>
<path opacity="0.7" d="M402.12 428.84C417.894 418.593 431.002 404.737 440.36 388.42C497.52 289 484.61 142.26 374.53 79.3599C323.65 50.2899 250.41 31.8899 195.43 61.7499C150.83 85.9699 123.49 131.56 100.88 173.05C86.65 199.14 74.94 227.22 57.43 251.63C34.7 283.29 9.69 325.57 34.94 362.35C69.35 412.45 134.34 435.35 193.28 450.35C257.22 466.69 329.11 469.01 388.17 437.14C392.95 434.587 397.6 431.82 402.12 428.84Z" fill="white" fill-opacity="0.9"/>
<path d="M22 458H487" stroke="#263238" stroke-linecap="round" stroke-linejoin="round"/>
<path d="M459.618 52.7987L24.2157 75.6172L40.3875 384.194L475.79 361.375L459.618 52.7987Z" stroke="#263238" stroke-miterlimit="10"/>
<path d="M445.319 66.5661L39.8755 87.8145L54.6865 370.427L460.13 349.178L445.319 66.5661Z" stroke="#263238" stroke-miterlimit="10"/>
<path d="M394.42 56.5701C394.422 58.2158 394.098 59.8456 393.468 61.366C392.839 62.8864 391.915 64.2675 390.75 65.4301L387.43 68.7501L369.7 86.4801L352 68.7501L348.68 65.4301C346.328 63.0789 345.005 59.8896 345.004 56.5636C345.004 53.2376 346.324 50.0475 348.675 47.6951C351.026 45.3426 354.216 44.0205 357.541 44.0195C360.867 44.0186 364.058 45.3389 366.41 47.6901L369.7 51.0001L373 47.6901C374.755 45.938 376.99 44.7455 379.422 44.2635C381.855 43.7815 384.376 44.0315 386.666 44.9819C388.957 45.9323 390.914 47.5405 392.29 49.6031C393.667 51.6658 394.401 54.0903 394.4 56.5701H394.42Z" fill="#F97316" stroke="#263238" stroke-linecap="round" stroke-linejoin="round"/>
<path d="M130 126.5C130.002 127.6 129.787 128.689 129.366 129.705C128.946 130.721 128.328 131.643 127.55 132.42L125.34 134.64L113.49 146.48L101.65 134.64L99.43 132.42C98.6526 131.643 98.0359 130.72 97.6152 129.704C97.1944 128.688 96.9779 127.599 96.9779 126.5C96.9779 125.401 97.1944 124.312 97.6152 123.296C98.0359 122.28 98.6526 121.357 99.43 120.58C100.207 119.803 101.13 119.186 102.146 118.765C103.162 118.344 104.251 118.128 105.35 118.128C106.449 118.128 107.538 118.344 108.554 118.765C109.57 119.186 110.493 119.803 111.27 120.58L113.49 122.8L115.71 120.58C116.881 119.409 118.372 118.611 119.996 118.288C121.62 117.965 123.304 118.131 124.833 118.764C126.363 119.398 127.671 120.471 128.59 121.848C129.51 123.225 130.001 124.844 130 126.5Z" fill="#F97316" stroke="#263238" stroke-linecap="round" stroke-linejoin="round"/>
<path d="M464 290.5C464.002 291.6 463.787 292.689 463.366 293.705C462.946 294.721 462.328 295.643 461.55 296.42L459.33 298.64L447.49 310.48L435.65 298.64L433.43 296.42C432.653 295.643 432.036 294.72 431.615 293.704C431.194 292.688 430.978 291.599 430.978 290.5C430.978 289.401 431.194 288.312 431.615 287.296C432.036 286.28 432.653 285.357 433.43 284.58C434.207 283.803 435.13 283.186 436.146 282.765C437.162 282.344 438.251 282.128 439.35 282.128C440.449 282.128 441.538 282.344 442.554 282.765C443.57 283.186 444.493 283.803 445.27 284.58L447.49 286.8L449.71 284.58C450.881 283.409 452.372 282.611 453.996 282.288C455.62 281.965 457.304 282.13 458.833 282.764C460.363 283.398 461.671 284.471 462.59 285.848C463.51 287.225 464.001 288.844 464 290.5Z" fill="#F97316" stroke="#263238" stroke-linecap="round" stroke-linejoin="round"/>
<path d="M57 244.5C57.002 245.6 56.7866 246.689 56.3662 247.705C55.9457 248.721 55.3285 249.643 54.55 250.42L52.34 252.64L40.49 264.48L28.65 252.64L26.43 250.42C24.8599 248.85 23.9779 246.72 23.9779 244.5C23.9779 242.28 24.8599 240.15 26.43 238.58C28.0001 237.01 30.1296 236.128 32.35 236.128C34.5704 236.128 36.6999 237.01 38.27 238.58L40.49 240.8L42.71 238.58C43.8806 237.409 45.3722 236.611 46.9963 236.288C48.6203 235.965 50.3037 236.13 51.8335 236.764C53.3633 237.398 54.6707 238.471 55.5904 239.848C56.51 241.225 57.0006 242.844 57 244.5Z" fill="#F97316" stroke="#263238" stroke-linecap="round" stroke-linejoin="round"/>
<path d="M230.15 25.5C230.156 26.4082 229.982 27.3085 229.638 28.1494C229.295 28.9902 228.789 29.7551 228.15 30.4L226.32 32.24L216.49 42L206.7 32.21L204.86 30.37C203.889 29.4022 203.228 28.1679 202.96 26.8238C202.692 25.4796 202.829 24.0861 203.354 22.82C203.879 21.5538 204.768 20.4721 205.908 19.7119C207.049 18.9517 208.389 18.5473 209.76 18.55C210.667 18.5442 211.566 18.7179 212.405 19.0612C213.244 19.4044 214.007 19.9104 214.65 20.55L216.49 22.39L218.32 20.55C219.289 19.5809 220.524 18.921 221.868 18.6536C223.212 18.3863 224.606 18.5235 225.872 19.048C227.138 19.5725 228.22 20.4606 228.982 21.6002C229.743 22.7397 230.15 24.0795 230.15 25.45V25.5Z" fill="#F97316" stroke="#263238" stroke-linecap="round" stroke-linejoin="round"/>
<path d="M265.65 396.06C265.657 397.894 264.938 399.655 263.65 400.96L261.82 402.8L252.02 412.59L242.22 402.8L240.37 401C239.399 400.032 238.738 398.798 238.47 397.454C238.202 396.11 238.339 394.716 238.864 393.45C239.389 392.184 240.278 391.102 241.418 390.342C242.559 389.582 243.899 389.177 245.27 389.18C246.177 389.174 247.076 389.348 247.915 389.691C248.754 390.035 249.517 390.541 250.16 391.18L252 393L253.83 391.16C254.798 390.19 256.032 389.528 257.376 389.26C258.72 388.992 260.114 389.129 261.38 389.654C262.646 390.179 263.728 391.068 264.488 392.208C265.248 393.349 265.653 394.69 265.65 396.06Z" fill="#F97316" stroke="#263238" stroke-linecap="round" stroke-linejoin="round"/>
<path d="M465.54 401.1C465.54 401.1 466.72 398.27 466.77 398.1C467.37 395.92 467.23 391.35 465.11 389.97C464.751 389.751 464.35 389.611 463.933 389.558C463.516 389.504 463.093 389.539 462.69 389.66C462.288 389.78 461.915 389.984 461.596 390.258C461.277 390.532 461.02 390.87 460.84 391.25C460.02 392.83 460.53 394.97 461.26 396.5C462.11 398.27 465.54 401.1 465.54 401.1Z" fill="#263238"/>
<path d="M421.1 394.43C422.8 395.43 427.22 395.91 427.22 395.91C427.22 395.91 426.65 392.91 426.58 392.72C425.88 390.57 423.25 386.84 420.72 386.86C420.3 386.875 419.888 386.979 419.51 387.164C419.133 387.349 418.798 387.611 418.529 387.933C418.259 388.256 418.06 388.631 417.945 389.036C417.83 389.44 417.801 389.864 417.86 390.28C418.05 392.06 419.65 393.56 421.1 394.43Z" fill="#263238"/>
<path d="M421 407.39C422.83 407.9 426.91 407.26 427.23 407.21C427.592 409.542 428.11 411.847 428.78 414.11C429.16 415.43 429.58 416.75 430.02 418.11C429.73 417.54 429.47 417.03 429.42 416.96C428.17 415.08 424.65 412.18 422.21 412.86C421.81 412.986 421.441 413.195 421.126 413.473C420.812 413.751 420.56 414.092 420.385 414.474C420.211 414.856 420.119 415.27 420.114 415.689C420.11 416.109 420.194 416.525 420.36 416.91C421.01 418.58 422.96 419.61 424.58 420.06C426.2 420.51 429.72 420.06 430.64 419.91C430.82 420.41 430.99 420.91 431.16 421.42C432.01 423.83 432.87 426.24 433.64 428.62C433.91 429.46 434.15 430.3 434.39 431.14C434.13 430.63 433.9 430.2 433.86 430.14C432.61 428.26 429.09 425.36 426.66 426.04C426.259 426.165 425.889 426.373 425.573 426.651C425.258 426.929 425.004 427.269 424.829 427.651C424.654 428.033 424.561 428.447 424.555 428.867C424.55 429.287 424.634 429.704 424.8 430.09C425.45 431.76 427.4 432.78 429.02 433.24C430.64 433.7 433.82 433.24 434.92 433.11C435.14 433.98 435.36 434.84 435.53 435.69C435.64 436.27 435.78 436.82 435.85 437.41C435.92 438 436.02 438.57 436.11 439.14C436.23 440.25 436.36 441.39 436.45 442.47C436.51 443.22 436.57 443.94 436.62 444.66C436.36 443.82 435.81 442.19 435.75 442.06C434.8 440.06 431.75 436.6 429.25 436.91C428.834 436.973 428.436 437.123 428.081 437.35C427.727 437.578 427.425 437.877 427.194 438.229C426.963 438.581 426.808 438.977 426.74 439.392C426.672 439.808 426.693 440.233 426.8 440.64C427.2 442.38 428.96 443.64 430.5 444.38C432.2 445.15 436.16 445.16 436.66 445.15C436.74 446.35 436.81 447.51 436.86 448.61C437.04 452.42 437.05 455.61 437.02 457.81L438.72 458.03V457.83C438.72 455.58 438.63 452.37 438.36 448.53C438.28 447.31 438.17 446.02 438.04 444.69C439.276 444.369 440.491 443.975 441.68 443.51C443.025 445.005 444.569 446.307 446.27 447.38C445.68 448.38 445.1 449.43 444.53 450.38C442.58 453.65 440.84 456.3 439.59 458.14L441.46 458.38C442.63 456.54 444.16 454.08 445.83 451.13C446.43 450.07 447.06 448.93 447.68 447.75C448.14 447.91 451.91 449.19 453.76 449.01C455.44 448.85 457.54 448.18 458.47 446.66C458.701 446.31 458.856 445.915 458.925 445.502C458.995 445.088 458.976 444.665 458.872 444.258C458.767 443.852 458.579 443.473 458.318 443.144C458.058 442.815 457.731 442.545 457.36 442.35C455.08 441.24 451.1 443.48 449.54 445.11C449.45 445.21 448.54 446.37 448.02 447.11C448.28 446.62 448.53 446.16 448.78 445.66C449.3 444.66 449.78 443.66 450.3 442.6C450.54 442.07 450.77 441.54 451.01 441C451.25 440.46 451.45 439.88 451.68 439.32C452.18 438 452.62 436.64 453.03 435.26C453.9 435.71 457.03 437.26 458.68 437.35C460.33 437.44 462.54 437.1 463.68 435.73C463.961 435.419 464.174 435.052 464.305 434.653C464.436 434.254 464.482 433.832 464.439 433.415C464.397 432.997 464.267 432.593 464.059 432.229C463.851 431.865 463.568 431.548 463.23 431.3C461.15 429.86 456.88 431.47 455.09 432.85C454.97 432.94 453.8 434.07 453.17 434.71C453.41 433.87 453.65 433.05 453.87 432.2C454.5 429.75 455.06 427.2 455.63 424.76C455.8 424 455.98 423.24 456.16 422.48C456.47 422.64 460.11 424.55 462 424.66C463.69 424.76 465.86 424.41 467 423.05C467.281 422.739 467.494 422.372 467.625 421.973C467.756 421.574 467.802 421.152 467.759 420.735C467.717 420.317 467.587 419.913 467.379 419.549C467.171 419.185 466.888 418.868 466.55 418.62C464.47 417.18 460.2 418.79 458.4 420.17C458.27 420.27 456.58 421.9 456.17 422.34C456.57 420.67 456.98 419 457.45 417.34C458.078 415.146 458.846 412.995 459.75 410.9C459.89 410.97 463.68 412.98 465.62 413.1C467.31 413.19 469.48 412.85 470.62 411.48C470.901 411.169 471.114 410.802 471.245 410.403C471.376 410.004 471.422 409.582 471.379 409.165C471.337 408.747 471.207 408.343 470.999 407.979C470.791 407.615 470.508 407.298 470.17 407.05C468.08 405.61 463.81 407.22 462.02 408.6C461.9 408.69 460.62 409.93 460.02 410.54L459.9 410.46C460.862 408.36 462.014 406.351 463.34 404.46C464.05 403.46 464.79 402.46 465.54 401.54C466.2 401.99 469.28 404 471.01 404.29C472.74 404.58 474.87 404.47 476.17 403.24C476.483 402.959 476.733 402.615 476.904 402.23C477.075 401.846 477.163 401.43 477.163 401.01C477.163 400.589 477.075 400.173 476.904 399.789C476.733 399.405 476.483 399.061 476.17 398.78C474.25 397.13 469.83 398.26 467.9 399.43C467.79 399.5 466.8 400.26 466.08 400.83C466.42 400.42 466.77 399.99 467.08 399.61C468.33 398.16 469.57 396.92 470.67 395.82C471.31 395.2 471.89 394.65 472.44 394.15C473.33 394.25 476.89 394.59 478.54 394.06C480.19 393.53 482.05 392.44 482.64 390.75C482.796 390.357 482.867 389.937 482.848 389.515C482.83 389.093 482.723 388.68 482.534 388.303C482.346 387.925 482.079 387.592 481.753 387.324C481.426 387.057 481.047 386.861 480.64 386.75C478.18 386.16 474.77 389.2 473.64 391.13C473.54 391.3 472.25 394.13 472.3 394.13H472.35C471.81 394.61 471.24 395.13 470.62 395.7C469.49 396.77 468.22 398 466.93 399.42C465.529 400.946 464.214 402.549 462.99 404.22C461.618 406.09 460.413 408.078 459.39 410.16V410.23C459.5 409.5 459.73 407.44 459.73 407.28C459.73 405.02 458.39 400.65 455.98 399.88C455.576 399.763 455.151 399.732 454.734 399.789C454.316 399.847 453.916 399.992 453.559 400.214C453.201 400.437 452.894 400.732 452.659 401.081C452.423 401.43 452.263 401.825 452.19 402.24C451.82 403.99 452.88 405.92 453.98 407.24C455.23 408.68 458.98 410.4 459.28 410.53C458.298 412.677 457.457 414.885 456.76 417.14C456.35 418.45 455.97 419.79 455.62 421.14C455.69 420.5 455.75 419.93 455.75 419.85C455.75 417.59 454.41 413.23 452 412.46C451.596 412.342 451.172 412.311 450.756 412.368C450.339 412.425 449.939 412.569 449.582 412.791C449.224 413.013 448.918 413.307 448.681 413.655C448.445 414.002 448.284 414.396 448.21 414.81C447.84 416.56 448.9 418.49 450 419.81C451.1 421.13 454.3 422.63 455.14 423.02C455.01 423.54 454.87 424.02 454.74 424.57C454.12 427.05 453.51 429.57 452.83 431.94C452.6 432.79 452.33 433.62 452.07 434.45C452.13 433.89 452.18 433.45 452.18 433.34C452.18 431.08 450.84 426.71 448.43 425.94C448.027 425.824 447.604 425.794 447.189 425.852C446.773 425.91 446.374 426.054 446.018 426.276C445.662 426.497 445.356 426.791 445.121 427.138C444.885 427.485 444.725 427.877 444.65 428.29C444.28 430.04 445.33 431.97 446.44 433.29C447.55 434.61 450.44 435.96 451.44 436.43C451.15 437.28 450.86 438.12 450.53 438.92C450.3 439.47 450.11 440 449.85 440.54L449.11 442.12C448.6 443.12 448.11 444.12 447.56 445.12C447.2 445.79 446.85 446.41 446.49 447.05C446.74 446.2 447.18 444.54 447.21 444.4C447.431 442.424 447.145 440.425 446.38 438.59C446.4 438.367 446.4 438.143 446.38 437.92C446.382 437.498 446.296 437.081 446.126 436.695C445.956 436.31 445.707 435.964 445.395 435.681C445.082 435.398 444.714 435.184 444.313 435.053C443.913 434.922 443.489 434.876 443.07 434.92C440.56 435.26 438.48 439.32 438.07 441.54C438.07 441.67 437.94 443.12 437.9 444.04C437.84 443.5 437.8 442.97 437.73 442.41C437.62 441.31 437.47 440.21 437.31 439.02C437.22 438.45 437.12 437.88 437.02 437.3C436.92 436.72 436.77 436.12 436.65 435.53C436.34 434.15 435.96 432.78 435.54 431.4C436.54 431.29 439.94 430.87 441.41 430.02C442.88 429.17 444.49 427.68 444.7 425.91C444.763 425.495 444.739 425.071 444.628 424.666C444.518 424.26 444.323 423.883 444.057 423.558C443.791 423.232 443.46 422.967 443.085 422.778C442.71 422.588 442.3 422.48 441.88 422.46C439.35 422.46 436.68 426.11 435.94 428.24C435.94 428.38 435.54 429.97 435.36 430.85C435.11 430.02 434.86 429.2 434.57 428.37C433.74 425.98 432.83 423.59 431.93 421.2C431.65 420.46 431.39 419.73 431.12 419C431.46 419 435.55 418.55 437.19 417.6C438.65 416.75 440.27 415.26 440.49 413.49C440.555 413.074 440.532 412.649 440.422 412.242C440.312 411.836 440.117 411.457 439.851 411.131C439.585 410.805 439.254 410.538 438.878 410.348C438.502 410.159 438.091 410.05 437.67 410.03C435.14 410.03 432.46 413.68 431.73 415.82C431.67 415.98 431.17 418.28 431.07 418.87C430.48 417.25 429.9 415.64 429.4 414.02C428.705 411.846 428.157 409.627 427.76 407.38C427.92 407.38 432.19 406.96 433.87 405.98C435.33 405.13 436.95 403.64 437.16 401.87C437.225 401.454 437.202 401.029 437.092 400.622C436.982 400.216 436.787 399.837 436.521 399.511C436.255 399.185 435.924 398.918 435.548 398.728C435.172 398.539 434.761 398.43 434.34 398.41C431.81 398.41 429.14 402.06 428.41 404.2C428.36 404.34 427.97 406.09 427.8 406.92H427.66C427.316 404.647 427.175 402.348 427.24 400.05C427.24 398.79 427.35 397.58 427.46 396.41C428.27 396.41 431.94 396.41 433.55 395.68C435.16 394.95 436.87 393.68 437.27 391.96C437.379 391.554 437.401 391.13 437.336 390.716C437.271 390.301 437.12 389.904 436.891 389.552C436.663 389.199 436.364 388.899 436.012 388.669C435.66 388.44 435.265 388.287 434.85 388.22C432.34 387.89 429.28 391.22 428.31 393.32C428.26 393.43 427.85 394.62 427.57 395.49C427.63 394.96 427.68 394.41 427.75 393.91C427.99 392.01 428.33 390.29 428.65 388.76C428.84 387.9 429.02 387.12 429.2 386.39C429.99 385.99 433.2 384.31 434.2 382.96C435.2 381.61 436.2 379.67 435.79 377.96C435.7 377.549 435.526 377.162 435.277 376.824C435.028 376.485 434.711 376.202 434.347 375.994C433.982 375.786 433.577 375.656 433.159 375.614C432.741 375.572 432.319 375.618 431.92 375.75C429.54 376.62 428.38 381.04 428.46 383.29C428.46 383.49 428.94 386.53 428.98 386.51H429.03C428.84 387.21 428.65 387.96 428.45 388.78C428.1 390.3 427.72 392.02 427.45 393.92C427.116 395.962 426.903 398.022 426.81 400.09C426.694 402.407 426.784 404.729 427.08 407.03C427.075 407.056 427.075 407.083 427.08 407.11C426.76 406.44 425.82 404.59 425.73 404.46C424.48 402.58 420.96 399.67 418.52 400.36C418.119 400.485 417.749 400.693 417.433 400.971C417.118 401.249 416.864 401.589 416.689 401.971C416.514 402.353 416.421 402.767 416.416 403.187C416.411 403.607 416.494 404.024 416.66 404.41C417.42 405.9 419.36 406.93 421 407.39Z" fill="#263238"/>
<path opacity="0.3" d="M421.1 394.43C422.8 395.43 427.22 395.91 427.22 395.91C427.22 395.91 426.65 392.91 426.58 392.72C425.88 390.57 423.25 386.84 420.72 386.86C420.3 386.875 419.888 386.979 419.51 387.164C419.133 387.349 418.798 387.611 418.529 387.933C418.259 388.256 418.06 388.631 417.945 389.036C417.83 389.44 417.801 389.864 417.86 390.28C418.05 392.06 419.65 393.56 421.1 394.43Z" fill="#263238"/>
<path opacity="0.3" d="M465.54 401.1C465.54 401.1 466.72 398.27 466.77 398.1C467.37 395.92 467.23 391.35 465.11 389.97C464.751 389.751 464.35 389.611 463.933 389.558C463.516 389.504 463.093 389.539 462.69 389.66C462.288 389.78 461.915 389.984 461.596 390.258C461.277 390.532 461.02 390.87 460.84 391.25C460.02 392.83 460.53 394.97 461.26 396.5C462.11 398.27 465.54 401.1 465.54 401.1Z" fill="#263238"/>
<path opacity="0.3" d="M421 407.39C422.83 407.9 426.91 407.26 427.23 407.21C427.592 409.542 428.11 411.847 428.78 414.11C429.16 415.43 429.58 416.75 430.02 418.11C429.73 417.54 429.47 417.03 429.42 416.96C428.17 415.08 424.65 412.18 422.21 412.86C421.81 412.986 421.441 413.195 421.126 413.473C420.812 413.751 420.56 414.092 420.385 414.474C420.211 414.856 420.119 415.27 420.114 415.689C420.11 416.109 420.194 416.525 420.36 416.91C421.01 418.58 422.96 419.61 424.58 420.06C426.2 420.51 429.72 420.06 430.64 419.91C430.82 420.41 430.99 420.91 431.16 421.42C432.01 423.83 432.87 426.24 433.64 428.62C433.91 429.46 434.15 430.3 434.39 431.14C434.13 430.63 433.9 430.2 433.86 430.14C432.61 428.26 429.09 425.36 426.66 426.04C426.259 426.165 425.889 426.373 425.573 426.651C425.258 426.929 425.004 427.269 424.829 427.651C424.654 428.033 424.561 428.447 424.555 428.867C424.55 429.287 424.634 429.704 424.8 430.09C425.45 431.76 427.4 432.78 429.02 433.24C430.64 433.7 433.82 433.24 434.92 433.11C435.14 433.98 435.36 434.84 435.53 435.69C435.64 436.27 435.78 436.82 435.85 437.41C435.92 438 436.02 438.57 436.11 439.14C436.23 440.25 436.36 441.39 436.45 442.47C436.51 443.22 436.57 443.94 436.62 444.66C436.36 443.82 435.81 442.19 435.75 442.06C434.8 440.06 431.75 436.6 429.25 436.91C428.834 436.973 428.436 437.123 428.081 437.35C427.727 437.578 427.425 437.877 427.194 438.229C426.963 438.581 426.808 438.977 426.74 439.392C426.672 439.808 426.693 440.233 426.8 440.64C427.2 442.38 428.96 443.64 430.5 444.38C432.2 445.15 436.16 445.16 436.66 445.15C436.74 446.35 436.81 447.51 436.86 448.61C437.04 452.42 437.05 455.61 437.02 457.81L438.72 458.03V457.83C438.72 455.58 438.63 452.37 438.36 448.53C438.28 447.31 438.17 446.02 438.04 444.69C439.276 444.369 440.491 443.975 441.68 443.51C443.025 445.005 444.569 446.307 446.27 447.38C445.68 448.38 445.1 449.43 444.53 450.38C442.58 453.65 440.84 456.3 439.59 458.14L441.46 458.38C442.63 456.54 444.16 454.08 445.83 451.13C446.43 450.07 447.06 448.93 447.68 447.75C448.14 447.91 451.91 449.19 453.76 449.01C455.44 448.85 457.54 448.18 458.47 446.66C458.701 446.31 458.856 445.915 458.925 445.502C458.995 445.088 458.976 444.665 458.872 444.258C458.767 443.852 458.579 443.473 458.318 443.144C458.058 442.815 457.731 442.545 457.36 442.35C455.08 441.24 451.1 443.48 449.54 445.11C449.45 445.21 448.54 446.37 448.02 447.11C448.28 446.62 448.53 446.16 448.78 445.66C449.3 444.66 449.78 443.66 450.3 442.6C450.54 442.07 450.77 441.54 451.01 441C451.25 440.46 451.45 439.88 451.68 439.32C452.18 438 452.62 436.64 453.03 435.26C453.9 435.71 457.03 437.26 458.68 437.35C460.33 437.44 462.54 437.1 463.68 435.73C463.961 435.419 464.174 435.052 464.305 434.653C464.436 434.254 464.482 433.832 464.439 433.415C464.397 432.997 464.267 432.593 464.059 432.229C463.851 431.865 463.568 431.548 463.23 431.3C461.15 429.86 456.88 431.47 455.09 432.85C454.97 432.94 453.8 434.07 453.17 434.71C453.41 433.87 453.65 433.05 453.87 432.2C454.5 429.75 455.06 427.2 455.63 424.76C455.8 424 455.98 423.24 456.16 422.48C456.47 422.64 460.11 424.55 462 424.66C463.69 424.76 465.86 424.41 467 423.05C467.281 422.739 467.494 422.372 467.625 421.973C467.756 421.574 467.802 421.152 467.759 420.735C467.717 420.317 467.587 419.913 467.379 419.549C467.171 419.185 466.888 418.868 466.55 418.62C464.47 417.18 460.2 418.79 458.4 420.17C458.27 420.27 456.58 421.9 456.17 422.34C456.57 420.67 456.98 419 457.45 417.34C458.078 415.146 458.846 412.995 459.75 410.9C459.89 410.97 463.68 412.98 465.62 413.1C467.31 413.19 469.48 412.85 470.62 411.48C470.901 411.169 471.114 410.802 471.245 410.403C471.376 410.004 471.422 409.582 471.379 409.165C471.337 408.747 471.207 408.343 470.999 407.979C470.791 407.615 470.508 407.298 470.17 407.05C468.08 405.61 463.81 407.22 462.02 408.6C461.9 408.69 460.62 409.93 460.02 410.54L459.9 410.46C460.862 408.36 462.014 406.351 463.34 404.46C464.05 403.46 464.79 402.46 465.54 401.54C466.2 401.99 469.28 404 471.01 404.29C472.74 404.58 474.87 404.47 476.17 403.24C476.483 402.959 476.733 402.615 476.904 402.23C477.075 401.846 477.163 401.43 477.163 401.01C477.163 400.589 477.075 400.173 476.904 399.789C476.733 399.405 476.483 399.061 476.17 398.78C474.25 397.13 469.83 398.26 467.9 399.43C467.79 399.5 466.8 400.26 466.08 400.83C466.42 400.42 466.77 399.99 467.08 399.61C468.33 398.16 469.57 396.92 470.67 395.82C471.31 395.2 471.89 394.65 472.44 394.15C473.33 394.25 476.89 394.59 478.54 394.06C480.19 393.53 482.05 392.44 482.64 390.75C482.796 390.357 482.867 389.937 482.848 389.515C482.83 389.093 482.723 388.68 482.534 388.303C482.346 387.925 482.079 387.592 481.753 387.324C481.426 387.057 481.047 386.861 480.64 386.75C478.18 386.16 474.77 389.2 473.64 391.13C473.54 391.3 472.25 394.13 472.3 394.13H472.35C471.81 394.61 471.24 395.13 470.62 395.7C469.49 396.77 468.22 398 466.93 399.42C465.529 400.946 464.214 402.549 462.99 404.22C461.618 406.09 460.413 408.078 459.39 410.16V410.23C459.5 409.5 459.73 407.44 459.73 407.28C459.73 405.02 458.39 400.65 455.98 399.88C455.576 399.763 455.151 399.732 454.734 399.789C454.316 399.847 453.916 399.992 453.559 400.214C453.201 400.437 452.894 400.732 452.659 401.081C452.423 401.43 452.263 401.825 452.19 402.24C451.82 403.99 452.88 405.92 453.98 407.24C455.23 408.68 458.98 410.4 459.28 410.53C458.298 412.677 457.457 414.885 456.76 417.14C456.35 418.45 455.97 419.79 455.62 421.14C455.69 420.5 455.75 419.93 455.75 419.85C455.75 417.59 454.41 413.23 452 412.46C451.596 412.342 451.172 412.311 450.756 412.368C450.339 412.425 449.939 412.569 449.582 412.791C449.224 413.013 448.918 413.307 448.681 413.655C448.445 414.002 448.284 414.396 448.21 414.81C447.84 416.56 448.9 418.49 450 419.81C451.1 421.13 454.3 422.63 455.14 423.02C455.01 423.54 454.87 424.02 454.74 424.57C454.12 427.05 453.51 429.57 452.83 431.94C452.6 432.79 452.33 433.62 452.07 434.45C452.13 433.89 452.18 433.45 452.18 433.34C452.18 431.08 450.84 426.71 448.43 425.94C448.027 425.824 447.604 425.794 447.189 425.852C446.773 425.91 446.374 426.054 446.018 426.276C445.662 426.497 445.356 426.791 445.121 427.138C444.885 427.485 444.725 427.877 444.65 428.29C444.28 430.04 445.33 431.97 446.44 433.29C447.55 434.61 450.44 435.96 451.44 436.43C451.15 437.28 450.86 438.12 450.53 438.92C450.3 439.47 450.11 440 449.85 440.54L449.11 442.12C448.6 443.12 448.11 444.12 447.56 445.12C447.2 445.79 446.85 446.41 446.49 447.05C446.74 446.2 447.18 444.54 447.21 444.4C447.431 442.424 447.145 440.425 446.38 438.59C446.4 438.367 446.4 438.143 446.38 437.92C446.382 437.498 446.296 437.081 446.126 436.695C445.956 436.31 445.707 435.964 445.395 435.681C445.082 435.398 444.714 435.184 444.313 435.053C443.913 434.922 443.489 434.876 443.07 434.92C440.56 435.26 438.48 439.32 438.07 441.54C438.07 441.67 437.94 443.12 437.9 444.04C437.84 443.5 437.8 442.97 437.73 442.41C437.62 441.31 437.47 440.21 437.31 439.02C437.22 438.45 437.12 437.88 437.02 437.3C436.92 436.72 436.77 436.12 436.65 435.53C436.34 434.15 435.96 432.78 435.54 431.4C436.54 431.29 439.94 430.87 441.41 430.02C442.88 429.17 444.49 427.68 444.7 425.91C444.763 425.495 444.739 425.071 444.628 424.666C444.518 424.26 444.323 423.883 444.057 423.558C443.791 423.232 443.46 422.967 443.085 422.778C442.71 422.588 442.3 422.48 441.88 422.46C439.35 422.46 436.68 426.11 435.94 428.24C435.94 428.38 435.54 429.97 435.36 430.85C435.11 430.02 434.86 429.2 434.57 428.37C433.74 425.98 432.83 423.59 431.93 421.2C431.65 420.46 431.39 419.73 431.12 419C431.46 419 435.55 418.55 437.19 417.6C438.65 416.75 440.27 415.26 440.49 413.49C440.555 413.074 440.532 412.649 440.422 412.242C440.312 411.836 440.117 411.457 439.851 411.131C439.585 410.805 439.254 410.538 438.878 410.348C438.502 410.159 438.091 410.05 437.67 410.03C435.14 410.03 432.46 413.68 431.73 415.82C431.67 415.98 431.17 418.28 431.07 418.87C430.48 417.25 429.9 415.64 429.4 414.02C428.705 411.846 428.157 409.627 427.76 407.38C427.92 407.38 432.19 406.96 433.87 405.98C435.33 405.13 436.95 403.64 437.16 401.87C437.225 401.454 437.202 401.029 437.092 400.622C436.982 400.216 436.787 399.837 436.521 399.511C436.255 399.185 435.924 398.918 435.548 398.728C435.172 398.539 434.761 398.43 434.34 398.41C431.81 398.41 429.14 402.06 428.41 404.2C428.36 404.34 427.97 406.09 427.8 406.92H427.66C427.316 404.647 427.175 402.348 427.24 400.05C427.24 398.79 427.35 397.58 427.46 396.41C428.27 396.41 431.94 396.41 433.55 395.68C435.16 394.95 436.87 393.68 437.27 391.96C437.379 391.554 437.401 391.13 437.336 390.716C437.271 390.301 437.12 389.904 436.891 389.552C436.663 389.199 436.364 388.899 436.012 388.669C435.66 388.44 435.265 388.287 434.85 388.22C432.34 387.89 429.28 391.22 428.31 393.32C428.26 393.43 427.85 394.62 427.57 395.49C427.63 394.96 427.68 394.41 427.75 393.91C427.99 392.01 428.33 390.29 428.65 388.76C428.84 387.9 429.02 387.12 429.2 386.39C429.99 385.99 433.2 384.31 434.2 382.96C435.2 381.61 436.2 379.67 435.79 377.96C435.7 377.549 435.526 377.162 435.277 376.824C435.028 376.485 434.711 376.202 434.347 375.994C433.982 375.786 433.577 375.656 433.159 375.614C432.741 375.572 432.319 375.618 431.92 375.75C429.54 376.62 428.38 381.04 428.46 383.29C428.46 383.49 428.94 386.53 428.98 386.51H429.03C428.84 387.21 428.65 387.96 428.45 388.78C428.1 390.3 427.72 392.02 427.45 393.92C427.116 395.962 426.903 398.022 426.81 400.09C426.694 402.407 426.784 404.729 427.08 407.03C427.075 407.056 427.075 407.083 427.08 407.11C426.76 406.44 425.82 404.59 425.73 404.46C424.48 402.58 420.96 399.67 418.52 400.36C418.119 400.485 417.749 400.693 417.433 400.971C417.118 401.249 416.864 401.589 416.689 401.971C416.514 402.353 416.421 402.767 416.416 403.187C416.411 403.607 416.494 404.024 416.66 404.41C417.42 405.9 419.36 406.93 421 407.39Z" fill="#263238"/>
<path d="M40.9 410.93C40.9 410.93 39.9 408.61 39.9 408.45C39.41 406.66 39.52 402.91 41.26 401.78C41.5517 401.598 41.8784 401.479 42.2189 401.43C42.5594 401.382 42.9063 401.406 43.237 401.5C43.5678 401.595 43.8751 401.757 44.1391 401.978C44.4032 402.198 44.6181 402.471 44.77 402.78C45.0319 403.481 45.1373 404.231 45.0785 404.977C45.0198 405.724 44.7984 406.448 44.43 407.1C43.72 408.61 40.9 410.93 40.9 410.93Z" fill="#263238"/>
<path d="M77.41 405.45C76.01 406.28 72.41 406.67 72.41 406.67C72.41 406.67 72.88 404.2 72.93 404.04C73.52 402.28 75.68 399.22 77.75 399.23C78.0889 399.247 78.4208 399.333 78.7247 399.484C79.0286 399.635 79.298 399.847 79.5159 400.108C79.7338 400.368 79.8955 400.67 79.9909 400.996C80.0862 401.321 80.1132 401.663 80.07 402C79.9082 402.736 79.5859 403.426 79.1261 404.023C78.6662 404.619 78.0802 405.106 77.41 405.45Z" fill="#263238"/>
<path d="M77.5 416.09C75.99 416.51 72.64 415.99 72.38 415.95C72.0825 417.866 71.6582 419.76 71.11 421.62C70.8 422.7 70.45 423.79 70.11 424.87C70.35 424.4 70.56 423.98 70.6 423.93C71.6 422.38 74.52 420 76.52 420.56C76.845 420.669 77.1439 420.844 77.3975 421.074C77.6511 421.305 77.854 421.586 77.9932 421.899C78.1324 422.212 78.2049 422.551 78.2061 422.894C78.2072 423.237 78.1371 423.576 78 423.89C77.6427 424.545 77.1474 425.115 76.5483 425.561C75.9492 426.006 75.2606 426.316 74.53 426.47C72.867 426.686 71.1807 426.646 69.53 426.35C69.38 426.76 69.24 427.18 69.1 427.59C68.4 429.59 67.7 431.59 67.1 433.51C66.87 434.2 66.68 434.88 66.48 435.57L66.91 434.76C67.91 433.21 70.83 430.82 72.83 431.39C73.1613 431.491 73.4675 431.66 73.7283 431.888C73.9892 432.116 74.1988 432.396 74.3434 432.711C74.488 433.026 74.5642 433.367 74.5671 433.714C74.5699 434.06 74.4994 434.403 74.36 434.72C74.0027 435.375 73.5074 435.946 72.9083 436.391C72.3092 436.836 71.6206 437.146 70.89 437.3C69.2807 437.514 67.6479 437.477 66.05 437.19C65.87 437.9 65.68 438.62 65.54 439.31C65.45 439.79 65.34 440.24 65.28 440.73L65.07 442.15C64.97 443.06 64.86 443.99 64.79 444.88C64.73 445.5 64.69 446.09 64.65 446.68C64.86 445.99 65.31 444.68 65.36 444.54C66.14 442.86 68.64 440.06 70.7 440.32C71.0406 440.373 71.3662 440.497 71.6558 440.684C71.9454 440.871 72.1924 441.116 72.381 441.405C72.5696 441.693 72.6954 442.018 72.7504 442.358C72.8053 442.699 72.7882 443.047 72.7 443.38C72.4532 444.08 72.057 444.718 71.539 445.25C71.0209 445.782 70.3934 446.195 69.7 446.46C68.31 447.08 65.05 447.09 64.7 447.09C64.63 448.09 64.57 449.03 64.53 449.93C64.38 453.05 64.38 455.66 64.4 457.49L63 457.67V457.51C63 455.66 63.08 453.02 63.3 449.86C63.36 448.86 63.46 447.8 63.56 446.7C62.5406 446.428 61.5388 446.094 60.56 445.7C59.454 446.927 58.1856 447.997 56.79 448.88C57.27 449.73 57.79 450.56 58.22 451.34C59.82 454.03 61.22 456.21 62.28 457.72L60.74 457.91C59.74 456.41 58.52 454.39 57.15 451.96C56.66 451.09 56.15 450.15 55.63 449.18C55.25 449.31 52.16 450.36 50.63 450.18C49.8819 450.159 49.1472 449.976 48.4771 449.643C47.807 449.31 47.2176 448.834 46.75 448.25C46.5597 447.961 46.4321 447.636 46.3754 447.295C46.3187 446.954 46.3342 446.605 46.421 446.27C46.5077 445.936 46.6636 445.623 46.8788 445.353C47.094 445.082 47.3635 444.86 47.67 444.7C49.54 443.79 52.81 445.63 54.09 446.98C54.17 447.05 54.89 447.98 55.34 448.61C55.13 448.22 54.92 447.83 54.71 447.42C54.29 446.61 53.9 445.79 53.47 444.91L52.88 443.59C52.68 443.16 52.52 442.68 52.33 442.21C51.93 441.13 51.56 440.01 51.22 438.88C49.7709 439.686 48.2057 440.263 46.58 440.59C45.8386 440.683 45.0859 440.612 44.3744 440.384C43.6628 440.157 43.0095 439.776 42.46 439.27C42.2266 439.015 42.0496 438.714 41.9409 438.386C41.8321 438.058 41.7939 437.711 41.8289 437.367C41.8638 437.023 41.9711 436.691 42.1436 436.391C42.3162 436.092 42.5501 435.832 42.83 435.63C44.54 434.45 48.05 435.77 49.52 436.9C49.61 436.97 50.58 437.9 51.1 438.42C50.9 437.74 50.7 437.06 50.52 436.36C50 434.36 49.52 432.3 49.08 430.25C48.93 429.63 48.78 429 48.64 428.38C48.38 428.51 45.39 430.08 43.84 430.17C43.0985 430.264 42.3455 430.194 41.6337 429.966C40.922 429.738 40.2688 429.357 39.72 428.85C39.4875 428.595 39.3112 428.294 39.2025 427.967C39.0939 427.64 39.0552 427.293 39.0892 426.95C39.1231 426.606 39.2289 426.274 39.3996 425.974C39.5703 425.675 39.8021 425.414 40.08 425.21C41.8 424.03 45.31 425.35 46.78 426.48C46.89 426.57 48.27 427.91 48.61 428.27C48.28 426.89 47.95 425.52 47.61 424.19C47.0629 422.419 46.4015 420.685 45.63 419C45.52 419.06 42.4 420.71 40.81 420.8C40.0685 420.894 39.3155 420.824 38.6037 420.596C37.892 420.368 37.2388 419.987 36.69 419.48C36.4566 419.225 36.2796 418.924 36.1709 418.596C36.0621 418.268 36.0239 417.921 36.0589 417.577C36.0938 417.233 36.2011 416.901 36.3736 416.601C36.5462 416.302 36.7801 416.042 37.06 415.84C38.77 414.66 42.28 415.98 43.75 417.11C43.84 417.19 44.9 418.21 45.39 418.7L45.49 418.64C44.6978 416.926 43.7541 415.286 42.67 413.74C42.08 412.88 41.47 412.1 40.86 411.34C39.485 412.32 37.9672 413.082 36.36 413.6C35.6332 413.773 34.8774 413.786 34.1451 413.638C33.4128 413.489 32.7218 413.183 32.12 412.74C31.8632 412.509 31.6578 412.227 31.5172 411.912C31.3766 411.596 31.304 411.255 31.304 410.91C31.304 410.565 31.3766 410.223 31.5172 409.908C31.6578 409.593 31.8632 409.311 32.12 409.08C33.69 407.72 37.32 408.65 38.91 409.61C38.99 409.66 39.81 410.29 40.4 410.76C40.12 410.42 39.84 410.07 39.56 409.76C38.56 408.57 37.56 407.54 36.56 406.64C36.04 406.13 35.56 405.69 35.11 405.27C33.4493 405.499 31.7636 405.475 30.11 405.2C29.3857 405.018 28.7098 404.681 28.1295 404.211C27.5492 403.741 27.0784 403.151 26.75 402.48C26.6243 402.158 26.5678 401.813 26.5841 401.468C26.6005 401.123 26.6895 400.785 26.8451 400.477C27.0008 400.168 27.2197 399.896 27.4876 399.678C27.7555 399.459 28.0664 399.3 28.4 399.21C30.4 398.73 33.22 401.21 34.19 402.82C34.27 402.95 35.33 405.25 35.29 405.25C35.74 405.64 36.21 406.06 36.72 406.54C37.64 407.42 38.72 408.42 39.72 409.6C40.8834 410.842 41.9657 412.158 42.96 413.54C44.1027 415.071 45.1066 416.701 45.96 418.41V418.48C45.87 417.87 45.68 416.18 45.68 416.05C45.68 414.19 46.78 410.61 48.76 409.97C49.0922 409.873 49.4409 409.848 49.7836 409.895C50.1262 409.943 50.455 410.062 50.7485 410.245C51.042 410.428 51.2936 410.671 51.4868 410.958C51.68 411.245 51.8106 411.569 51.87 411.91C51.9333 412.66 51.8319 413.414 51.5728 414.121C51.3137 414.828 50.9031 415.469 50.37 416C49.37 417.18 46.26 418.59 46.02 418.7C46.8292 420.462 47.5207 422.276 48.09 424.13C48.43 425.21 48.73 426.3 49.03 427.41C48.97 426.88 48.92 426.41 48.92 426.35C48.92 424.49 50.02 420.91 52 420.27C52.3321 420.175 52.6805 420.151 53.0226 420.199C53.3646 420.247 53.6928 420.366 53.9859 420.549C54.279 420.732 54.5304 420.974 54.7241 421.26C54.9177 421.546 55.0492 421.87 55.11 422.21C55.1742 422.954 55.0761 423.704 54.8223 424.406C54.5685 425.109 54.1651 425.748 53.64 426.28C52.3767 427.371 50.9535 428.261 49.42 428.92L49.75 430.19C50.26 432.19 50.75 434.27 51.31 436.25C51.51 436.95 51.73 437.63 51.94 438.31C51.94 437.85 51.85 437.45 51.85 437.39C51.85 435.54 52.95 431.95 54.93 431.32C55.2567 431.23 55.5986 431.208 55.9342 431.256C56.2698 431.304 56.5918 431.421 56.8801 431.599C57.1684 431.778 57.4167 432.014 57.6094 432.293C57.8021 432.571 57.9351 432.887 58 433.22C58.0649 433.964 57.9671 434.714 57.7132 435.417C57.4594 436.12 57.0556 436.759 56.53 437.29C55.3057 438.36 53.9226 439.234 52.43 439.88C52.67 440.57 52.91 441.26 53.18 441.88C53.37 442.33 53.52 442.77 53.74 443.21C53.96 443.65 54.15 444.08 54.35 444.51C54.77 445.32 55.2 446.16 55.63 446.94C55.92 447.49 56.21 448 56.5 448.52C56.3 447.83 55.93 446.46 55.91 446.34C55.7301 444.718 55.9641 443.077 56.59 441.57C56.5751 441.39 56.5751 441.21 56.59 441.03C56.5895 440.685 56.6616 440.343 56.8018 440.028C56.942 439.712 57.147 439.429 57.4036 439.198C57.6602 438.967 57.9625 438.793 58.291 438.686C58.6194 438.58 58.9666 438.543 59.31 438.58C61.37 438.85 63.08 442.19 63.41 444.01C63.41 444.12 63.51 445.31 63.55 446.07C63.55 445.62 63.63 445.19 63.68 444.73C63.78 443.82 63.9 442.92 64.03 441.95L64.27 440.53C64.34 440.05 64.47 439.53 64.57 439.07C64.83 437.94 65.14 436.81 65.49 435.68C63.8343 435.557 62.208 435.175 60.67 434.55C60.0121 434.216 59.4333 433.746 58.9727 433.169C58.5122 432.593 58.1805 431.925 58 431.21C57.9461 430.869 57.965 430.52 58.0556 430.186C58.1461 429.853 58.3062 429.542 58.5253 429.275C58.7444 429.007 59.0176 428.789 59.3269 428.635C59.6362 428.481 59.9747 428.394 60.32 428.38C62.4 428.38 64.59 431.38 65.2 433.13C65.2 433.24 65.52 434.55 65.67 435.27C65.88 434.59 66.09 433.91 66.32 433.27C67 431.27 67.75 429.34 68.49 427.38C68.72 426.78 68.94 426.18 69.16 425.57C68.88 425.57 65.52 425.21 64.16 424.42C63.4813 424.086 62.8848 423.606 62.4129 423.015C61.941 422.424 61.6054 421.736 61.43 421C61.3778 420.658 61.3979 420.309 61.489 419.976C61.5801 419.643 61.7401 419.332 61.9588 419.064C62.1775 418.797 62.4499 418.578 62.7584 418.422C63.067 418.266 63.4048 418.177 63.75 418.16C65.83 418.16 68.02 421.16 68.63 422.91C68.63 423.05 69.09 424.91 69.17 425.41C69.66 424.09 70.17 422.76 70.54 421.41C71.111 419.639 71.562 417.832 71.89 416C71.76 416 68.25 415.65 66.89 414.85C66.2203 414.517 65.631 414.042 65.1631 413.458C64.6951 412.874 64.3597 412.196 64.18 411.47C64.1278 411.128 64.1479 410.779 64.239 410.446C64.3301 410.113 64.4901 409.802 64.7088 409.534C64.9275 409.267 65.1999 409.048 65.5084 408.892C65.817 408.736 66.1548 408.647 66.5 408.63C68.58 408.63 70.78 411.63 71.38 413.39C71.38 413.5 71.74 414.94 71.87 415.63H72C72.2833 413.764 72.3971 411.876 72.34 409.99C72.34 408.99 72.25 407.99 72.16 406.99C70.4727 407.04 68.7874 406.838 67.16 406.39C66.4591 406.131 65.8227 405.724 65.2944 405.195C64.7662 404.667 64.3587 404.031 64.1 403.33C64.0102 402.996 63.9918 402.647 64.046 402.306C64.1002 401.964 64.2257 401.638 64.4144 401.348C64.6031 401.059 64.8508 400.812 65.1412 400.624C65.4316 400.437 65.7583 400.313 66.1 400.26C68.16 399.99 70.68 402.77 71.47 404.45C71.47 404.54 71.85 405.51 72.09 406.23C72.09 405.8 72 405.35 71.94 404.93C71.74 403.37 71.46 401.93 71.2 400.7C71.04 399.99 70.89 399.35 70.74 398.76C69.2255 398.034 67.8297 397.084 66.6 395.94C66.0982 395.386 65.7222 394.73 65.4978 394.017C65.2734 393.304 65.2059 392.551 65.3 391.81C65.3743 391.477 65.5168 391.164 65.7186 390.889C65.9204 390.615 66.1771 390.385 66.4723 390.215C66.7675 390.045 67.0948 389.938 67.4336 389.901C67.7723 389.864 68.115 389.898 68.44 390C70.44 390.71 71.35 394.34 71.28 396.19C71.28 396.36 70.89 398.85 70.85 398.83C71.01 399.41 71.17 400.02 71.33 400.69C71.62 401.94 71.93 403.36 72.17 404.92C72.445 406.598 72.6187 408.291 72.69 409.99C72.7838 411.893 72.7101 413.8 72.47 415.69C72.47 415.69 72.47 415.69 72.47 415.76C72.73 415.21 73.47 413.69 73.58 413.58C74.58 412.03 77.5 409.65 79.5 410.21C79.8239 410.316 80.1224 410.488 80.3763 410.715C80.6303 410.942 80.8342 411.22 80.9753 411.53C81.1163 411.841 81.1913 412.177 81.1956 412.517C81.1998 412.858 81.1332 413.196 81 413.51C80.6406 414.17 80.1409 414.742 79.5362 415.188C78.9315 415.634 78.2365 415.942 77.5 416.09Z" fill="#263238"/>
<path opacity="0.3" d="M77.41 405.45C76.01 406.28 72.41 406.67 72.41 406.67C72.41 406.67 72.88 404.2 72.93 404.04C73.52 402.28 75.68 399.22 77.75 399.23C78.0889 399.247 78.4208 399.333 78.7247 399.484C79.0286 399.635 79.298 399.847 79.5159 400.108C79.7338 400.368 79.8955 400.67 79.9909 400.996C80.0862 401.321 80.1132 401.663 80.07 402C79.9082 402.736 79.5859 403.426 79.1261 404.023C78.6662 404.619 78.0802 405.106 77.41 405.45Z" fill="#263238"/>
<path opacity="0.3" d="M40.9 410.93C40.9 410.93 39.9 408.61 39.9 408.45C39.41 406.66 39.52 402.91 41.26 401.78C41.5517 401.598 41.8784 401.479 42.2189 401.43C42.5594 401.382 42.9063 401.406 43.237 401.5C43.5678 401.595 43.8751 401.757 44.1391 401.978C44.4032 402.198 44.6181 402.471 44.77 402.78C45.0319 403.481 45.1373 404.231 45.0785 404.977C45.0198 405.724 44.7984 406.448 44.43 407.1C43.72 408.61 40.9 410.93 40.9 410.93Z" fill="#263238"/>
<path opacity="0.3" d="M77.5 416.09C75.99 416.51 72.64 415.99 72.38 415.95C72.0825 417.866 71.6582 419.76 71.11 421.62C70.8 422.7 70.45 423.79 70.11 424.87C70.35 424.4 70.56 423.98 70.6 423.93C71.6 422.38 74.52 420 76.52 420.56C76.845 420.669 77.1439 420.844 77.3975 421.074C77.6511 421.305 77.854 421.586 77.9932 421.899C78.1324 422.212 78.2049 422.551 78.2061 422.894C78.2072 423.237 78.1371 423.576 78 423.89C77.6427 424.545 77.1474 425.115 76.5483 425.561C75.9492 426.006 75.2606 426.316 74.53 426.47C72.867 426.686 71.1807 426.646 69.53 426.35C69.38 426.76 69.24 427.18 69.1 427.59C68.4 429.59 67.7 431.59 67.1 433.51C66.87 434.2 66.68 434.88 66.48 435.57L66.91 434.76C67.91 433.21 70.83 430.82 72.83 431.39C73.1613 431.491 73.4675 431.66 73.7283 431.888C73.9892 432.116 74.1988 432.396 74.3434 432.711C74.488 433.026 74.5642 433.367 74.5671 433.714C74.5699 434.06 74.4994 434.403 74.36 434.72C74.0027 435.375 73.5074 435.946 72.9083 436.391C72.3092 436.836 71.6206 437.146 70.89 437.3C69.2807 437.514 67.6479 437.477 66.05 437.19C65.87 437.9 65.68 438.62 65.54 439.31C65.45 439.79 65.34 440.24 65.28 440.73L65.07 442.15C64.97 443.06 64.86 443.99 64.79 444.88C64.73 445.5 64.69 446.09 64.65 446.68C64.86 445.99 65.31 444.68 65.36 444.54C66.14 442.86 68.64 440.06 70.7 440.32C71.0406 440.373 71.3662 440.497 71.6558 440.684C71.9454 440.871 72.1924 441.116 72.381 441.405C72.5696 441.693 72.6954 442.018 72.7504 442.358C72.8053 442.699 72.7882 443.047 72.7 443.38C72.4532 444.08 72.057 444.718 71.539 445.25C71.0209 445.782 70.3934 446.195 69.7 446.46C68.31 447.08 65.05 447.09 64.7 447.09C64.63 448.09 64.57 449.03 64.53 449.93C64.38 453.05 64.38 455.66 64.4 457.49L63 457.67V457.51C63 455.66 63.08 453.02 63.3 449.86C63.36 448.86 63.46 447.8 63.56 446.7C62.5406 446.428 61.5388 446.094 60.56 445.7C59.454 446.927 58.1856 447.997 56.79 448.88C57.27 449.73 57.79 450.56 58.22 451.34C59.82 454.03 61.22 456.21 62.28 457.72L60.74 457.91C59.74 456.41 58.52 454.39 57.15 451.96C56.66 451.09 56.15 450.15 55.63 449.18C55.25 449.31 52.16 450.36 50.63 450.18C49.8819 450.159 49.1472 449.976 48.4771 449.643C47.807 449.31 47.2176 448.834 46.75 448.25C46.5597 447.961 46.4321 447.636 46.3754 447.295C46.3187 446.954 46.3342 446.605 46.421 446.27C46.5077 445.936 46.6636 445.623 46.8788 445.353C47.094 445.082 47.3635 444.86 47.67 444.7C49.54 443.79 52.81 445.63 54.09 446.98C54.17 447.05 54.89 447.98 55.34 448.61C55.13 448.22 54.92 447.83 54.71 447.42C54.29 446.61 53.9 445.79 53.47 444.91L52.88 443.59C52.68 443.16 52.52 442.68 52.33 442.21C51.93 441.13 51.56 440.01 51.22 438.88C49.7709 439.686 48.2057 440.263 46.58 440.59C45.8386 440.683 45.0859 440.612 44.3744 440.384C43.6628 440.157 43.0095 439.776 42.46 439.27C42.2266 439.015 42.0496 438.714 41.9409 438.386C41.8321 438.058 41.7939 437.711 41.8289 437.367C41.8638 437.023 41.9711 436.691 42.1436 436.391C42.3162 436.092 42.5501 435.832 42.83 435.63C44.54 434.45 48.05 435.77 49.52 436.9C49.61 436.97 50.58 437.9 51.1 438.42C50.9 437.74 50.7 437.06 50.52 436.36C50 434.36 49.52 432.3 49.08 430.25C48.93 429.63 48.78 429 48.64 428.38C48.38 428.51 45.39 430.08 43.84 430.17C43.0985 430.264 42.3455 430.194 41.6337 429.966C40.922 429.738 40.2688 429.357 39.72 428.85C39.4875 428.595 39.3112 428.294 39.2025 427.967C39.0939 427.64 39.0552 427.293 39.0892 426.95C39.1231 426.606 39.2289 426.274 39.3996 425.974C39.5703 425.675 39.8021 425.414 40.08 425.21C41.8 424.03 45.31 425.35 46.78 426.48C46.89 426.57 48.27 427.91 48.61 428.27C48.28 426.89 47.95 425.52 47.61 424.19C47.0629 422.419 46.4015 420.685 45.63 419C45.52 419.06 42.4 420.71 40.81 420.8C40.0685 420.894 39.3155 420.824 38.6037 420.596C37.892 420.368 37.2388 419.987 36.69 419.48C36.4566 419.225 36.2796 418.924 36.1709 418.596C36.0621 418.268 36.0239 417.921 36.0589 417.577C36.0938 417.233 36.2011 416.901 36.3736 416.601C36.5462 416.302 36.7801 416.042 37.06 415.84C38.77 414.66 42.28 415.98 43.75 417.11C43.84 417.19 44.9 418.21 45.39 418.7L45.49 418.64C44.6978 416.926 43.7541 415.286 42.67 413.74C42.08 412.88 41.47 412.1 40.86 411.34C39.485 412.32 37.9672 413.082 36.36 413.6C35.6332 413.773 34.8774 413.786 34.1451 413.638C33.4128 413.489 32.7218 413.183 32.12 412.74C31.8632 412.509 31.6578 412.227 31.5172 411.912C31.3766 411.596 31.304 411.255 31.304 410.91C31.304 410.565 31.3766 410.223 31.5172 409.908C31.6578 409.593 31.8632 409.311 32.12 409.08C33.69 407.72 37.32 408.65 38.91 409.61C38.99 409.66 39.81 410.29 40.4 410.76C40.12 410.42 39.84 410.07 39.56 409.76C38.56 408.57 37.56 407.54 36.56 406.64C36.04 406.13 35.56 405.69 35.11 405.27C33.4493 405.499 31.7636 405.475 30.11 405.2C29.3857 405.018 28.7098 404.681 28.1295 404.211C27.5492 403.741 27.0784 403.151 26.75 402.48C26.6243 402.158 26.5678 401.813 26.5841 401.468C26.6005 401.123 26.6895 400.785 26.8451 400.477C27.0008 400.168 27.2197 399.896 27.4876 399.678C27.7555 399.459 28.0664 399.3 28.4 399.21C30.4 398.73 33.22 401.21 34.19 402.82C34.27 402.95 35.33 405.25 35.29 405.25C35.74 405.64 36.21 406.06 36.72 406.54C37.64 407.42 38.72 408.42 39.72 409.6C40.8834 410.842 41.9657 412.158 42.96 413.54C44.1027 415.071 45.1066 416.701 45.96 418.41V418.48C45.87 417.87 45.68 416.18 45.68 416.05C45.68 414.19 46.78 410.61 48.76 409.97C49.0922 409.873 49.4409 409.848 49.7836 409.895C50.1262 409.943 50.455 410.062 50.7485 410.245C51.042 410.428 51.2936 410.671 51.4868 410.958C51.68 411.245 51.8106 411.569 51.87 411.91C51.9333 412.66 51.8319 413.414 51.5728 414.121C51.3137 414.828 50.9031 415.469 50.37 416C49.37 417.18 46.26 418.59 46.02 418.7C46.8292 420.462 47.5207 422.276 48.09 424.13C48.43 425.21 48.73 426.3 49.03 427.41C48.97 426.88 48.92 426.41 48.92 426.35C48.92 424.49 50.02 420.91 52 420.27C52.3321 420.175 52.6805 420.151 53.0226 420.199C53.3646 420.247 53.6928 420.366 53.9859 420.549C54.279 420.732 54.5304 420.974 54.7241 421.26C54.9177 421.546 55.0492 421.87 55.11 422.21C55.1742 422.954 55.0761 423.704 54.8223 424.406C54.5685 425.109 54.1651 425.748 53.64 426.28C52.3767 427.371 50.9535 428.261 49.42 428.92L49.75 430.19C50.26 432.19 50.75 434.27 51.31 436.25C51.51 436.95 51.73 437.63 51.94 438.31C51.94 437.85 51.85 437.45 51.85 437.39C51.85 435.54 52.95 431.95 54.93 431.32C55.2567 431.23 55.5986 431.208 55.9342 431.256C56.2698 431.304 56.5918 431.421 56.8801 431.599C57.1684 431.778 57.4167 432.014 57.6094 432.293C57.8021 432.571 57.9351 432.887 58 433.22C58.0649 433.964 57.9671 434.714 57.7132 435.417C57.4594 436.12 57.0556 436.759 56.53 437.29C55.3057 438.36 53.9226 439.234 52.43 439.88C52.67 440.57 52.91 441.26 53.18 441.88C53.37 442.33 53.52 442.77 53.74 443.21C53.96 443.65 54.15 444.08 54.35 444.51C54.77 445.32 55.2 446.16 55.63 446.94C55.92 447.49 56.21 448 56.5 448.52C56.3 447.83 55.93 446.46 55.91 446.34C55.7301 444.718 55.9641 443.077 56.59 441.57C56.5751 441.39 56.5751 441.21 56.59 441.03C56.5895 440.685 56.6616 440.343 56.8018 440.028C56.942 439.712 57.147 439.429 57.4036 439.198C57.6602 438.967 57.9625 438.793 58.291 438.686C58.6194 438.58 58.9666 438.543 59.31 438.58C61.37 438.85 63.08 442.19 63.41 444.01C63.41 444.12 63.51 445.31 63.55 446.07C63.55 445.62 63.63 445.19 63.68 444.73C63.78 443.82 63.9 442.92 64.03 441.95L64.27 440.53C64.34 440.05 64.47 439.53 64.57 439.07C64.83 437.94 65.14 436.81 65.49 435.68C63.8343 435.557 62.208 435.175 60.67 434.55C60.0121 434.216 59.4333 433.746 58.9727 433.169C58.5122 432.593 58.1805 431.925 58 431.21C57.9461 430.869 57.965 430.52 58.0556 430.186C58.1461 429.853 58.3062 429.542 58.5253 429.275C58.7444 429.007 59.0176 428.789 59.3269 428.635C59.6362 428.481 59.9747 428.394 60.32 428.38C62.4 428.38 64.59 431.38 65.2 433.13C65.2 433.24 65.52 434.55 65.67 435.27C65.88 434.59 66.09 433.91 66.32 433.27C67 431.27 67.75 429.34 68.49 427.38C68.72 426.78 68.94 426.18 69.16 425.57C68.88 425.57 65.52 425.21 64.16 424.42C63.4813 424.086 62.8848 423.606 62.4129 423.015C61.941 422.424 61.6054 421.736 61.43 421C61.3778 420.658 61.3979 420.309 61.489 419.976C61.5801 419.643 61.7401 419.332 61.9588 419.064C62.1775 418.797 62.4499 418.578 62.7584 418.422C63.067 418.266 63.4048 418.177 63.75 418.16C65.83 418.16 68.02 421.16 68.63 422.91C68.63 423.05 69.09 424.91 69.17 425.41C69.66 424.09 70.17 422.76 70.54 421.41C71.111 419.639 71.562 417.832 71.89 416C71.76 416 68.25 415.65 66.89 414.85C66.2203 414.517 65.631 414.042 65.1631 413.458C64.6951 412.874 64.3597 412.196 64.18 411.47C64.1278 411.128 64.1479 410.779 64.239 410.446C64.3301 410.113 64.4901 409.802 64.7088 409.534C64.9275 409.267 65.1999 409.048 65.5084 408.892C65.817 408.736 66.1548 408.647 66.5 408.63C68.58 408.63 70.78 411.63 71.38 413.39C71.38 413.5 71.74 414.94 71.87 415.63H72C72.2833 413.764 72.3971 411.876 72.34 409.99C72.34 408.99 72.25 407.99 72.16 406.99C70.4727 407.04 68.7874 406.838 67.16 406.39C66.4591 406.131 65.8227 405.724 65.2944 405.195C64.7662 404.667 64.3587 404.031 64.1 403.33C64.0102 402.996 63.9918 402.647 64.046 402.306C64.1002 401.964 64.2257 401.638 64.4144 401.348C64.6031 401.059 64.8508 400.812 65.1412 400.624C65.4316 400.437 65.7583 400.313 66.1 400.26C68.16 399.99 70.68 402.77 71.47 404.45C71.47 404.54 71.85 405.51 72.09 406.23C72.09 405.8 72 405.35 71.94 404.93C71.74 403.37 71.46 401.93 71.2 400.7C71.04 399.99 70.89 399.35 70.74 398.76C69.2255 398.034 67.8297 397.084 66.6 395.94C66.0982 395.386 65.7222 394.73 65.4978 394.017C65.2734 393.304 65.2059 392.551 65.3 391.81C65.3743 391.477 65.5168 391.164 65.7186 390.889C65.9204 390.615 66.1771 390.385 66.4723 390.215C66.7675 390.045 67.0948 389.938 67.4336 389.901C67.7723 389.864 68.115 389.898 68.44 390C70.44 390.71 71.35 394.34 71.28 396.19C71.28 396.36 70.89 398.85 70.85 398.83C71.01 399.41 71.17 400.02 71.33 400.69C71.62 401.94 71.93 403.36 72.17 404.92C72.445 406.598 72.6187 408.291 72.69 409.99C72.7838 411.893 72.7101 413.8 72.47 415.69C72.47 415.69 72.47 415.69 72.47 415.76C72.73 415.21 73.47 413.69 73.58 413.58C74.58 412.03 77.5 409.65 79.5 410.21C79.8239 410.316 80.1224 410.488 80.3763 410.715C80.6303 410.942 80.8342 411.22 80.9753 411.53C81.1163 411.841 81.1913 412.177 81.1956 412.517C81.1998 412.858 81.1332 413.196 81 413.51C80.6406 414.17 80.1409 414.742 79.5362 415.188C78.9315 415.634 78.2365 415.942 77.5 416.09Z" fill="#263238"/>
</svg>
