<svg width="500" height="500" viewBox="0 0 500 500" fill="none" xmlns="http://www.w3.org/2000/svg">
<path d="M500 382.4H0V382.65H500V382.4Z" fill="#EBEBEB"/>
<path d="M85.58 391.92H52.46V392.17H85.58V391.92Z" fill="#EBEBEB"/>
<path d="M213.67 389.21H171.14V389.46H213.67V389.21Z" fill="#EBEBEB"/>
<path d="M112.66 395.43H93.47V395.68H112.66V395.43Z" fill="#EBEBEB"/>
<path d="M449.9 399.53H434.67V399.78H449.9V399.53Z" fill="#EBEBEB"/>
<path d="M425.76 399.53H391.47V399.78H425.76V399.53Z" fill="#EBEBEB"/>
<path d="M331.83 392.33H308V392.58H331.83V392.33Z" fill="#EBEBEB"/>
<path d="M237 337.8H43.92C42.4056 337.8 40.9532 337.198 39.8824 336.128C38.8116 335.057 38.21 333.604 38.21 332.09V60.66C38.2232 59.1543 38.8306 57.7147 39.9 56.6547C40.9694 55.5947 42.4142 54.9999 43.92 55H237C238.514 55 239.967 55.6016 241.038 56.6724C242.108 57.7433 242.71 59.1956 242.71 60.71V332.09C242.71 333.604 242.108 335.057 241.038 336.128C239.967 337.198 238.514 337.8 237 337.8ZM43.92 55.2C42.4727 55.2026 41.0855 55.7787 40.0621 56.8021C39.0387 57.8255 38.4626 59.2127 38.46 60.66V332.09C38.4626 333.537 39.0387 334.924 40.0621 335.948C41.0855 336.971 42.4727 337.547 43.92 337.55H237C238.447 337.547 239.835 336.971 240.858 335.948C241.881 334.924 242.457 333.537 242.46 332.09V60.66C242.457 59.2127 241.881 57.8255 240.858 56.8021C239.835 55.7787 238.447 55.2026 237 55.2H43.92Z" fill="#EBEBEB"/>
<path d="M453.31 337.8H260.21C258.696 337.797 257.246 337.195 256.175 336.125C255.105 335.054 254.503 333.604 254.5 332.09V60.66C254.516 59.1551 255.124 57.7171 256.193 56.6576C257.262 55.5981 258.705 55.0025 260.21 55H453.31C454.812 55.0052 456.252 55.6022 457.317 56.6617C458.382 57.7212 458.987 59.1578 459 60.66V332.09C459 333.601 458.401 335.05 457.335 336.121C456.268 337.191 454.821 337.795 453.31 337.8ZM260.21 55.2C258.763 55.2026 257.375 55.7787 256.352 56.8021C255.329 57.8255 254.753 59.2127 254.75 60.66V332.09C254.753 333.537 255.329 334.924 256.352 335.948C257.375 336.971 258.763 337.547 260.21 337.55H453.31C454.757 337.547 456.145 336.971 457.168 335.948C458.191 334.924 458.767 333.537 458.77 332.09V60.66C458.767 59.2127 458.191 57.8255 457.168 56.8021C456.145 55.7787 454.757 55.2026 453.31 55.2H260.21Z" fill="#EBEBEB"/>
<path d="M307.5 196.37H415.37V88.2101L307.5 88.2101V196.37Z" fill="#F0F0F0"/>
<path d="M307.5 88.2202H305.64V196.38H307.5V88.2202Z" fill="#E0E0E0"/>
<path d="M317.03 189.54H405.85V95.04L317.03 95.04V189.54Z" fill="#FAFAFA"/>
<path d="M352 169H380.13C386.23 169 390.31 164.06 389.24 158L383.77 126.67C383.162 123.639 381.547 120.902 379.187 118.905C376.827 116.908 373.86 115.768 370.77 115.67H342.71C336.61 115.67 332.53 120.61 333.6 126.67L339.07 158C339.673 161.021 341.278 163.75 343.624 165.746C345.97 167.742 348.921 168.889 352 169Z" fill="#F0F0F0"/>
<path d="M104.97 229.22H80.97V377.27H104.97V229.22Z" fill="#F0F0F0"/>
<path d="M210.28 377.28H83.42V382.39H210.28V377.28Z" fill="#F0F0F0"/>
<path d="M104.97 377.28H212.39L212.39 229.23H104.97L104.97 377.28Z" fill="#F5F5F5"/>
<path d="M109.29 332.75H208.07V306.31H109.29V332.75Z" fill="#F0F0F0"/>
<path d="M109.29 367.35H208.07V340.91H109.29V367.35Z" fill="#F0F0F0"/>
<path d="M196.38 304.69H120.98C120.328 304.69 119.8 305.218 119.8 305.87V307.14C119.8 307.792 120.328 308.32 120.98 308.32H196.38C197.032 308.32 197.56 307.792 197.56 307.14V305.87C197.56 305.218 197.032 304.69 196.38 304.69Z" fill="#F5F5F5"/>
<path d="M196.38 339.3H120.98C120.328 339.3 119.8 339.828 119.8 340.48V341.75C119.8 342.402 120.328 342.93 120.98 342.93H196.38C197.032 342.93 197.56 342.402 197.56 341.75V340.48C197.56 339.828 197.032 339.3 196.38 339.3Z" fill="#F5F5F5"/>
<path d="M109.29 263.82H208.07V237.38H109.29V263.82Z" fill="#F0F0F0"/>
<path d="M109.29 298.16H208.07V271.72H109.29V298.16Z" fill="#F0F0F0"/>
<path d="M196.38 235.77H120.98C120.328 235.77 119.8 236.298 119.8 236.95V238.22C119.8 238.872 120.328 239.4 120.98 239.4H196.38C197.032 239.4 197.56 238.872 197.56 238.22V236.95C197.56 236.298 197.032 235.77 196.38 235.77Z" fill="#F5F5F5"/>
<path d="M196.38 270.09H120.98C120.328 270.09 119.8 270.618 119.8 271.27V272.54C119.8 273.192 120.328 273.72 120.98 273.72H196.38C197.032 273.72 197.56 273.192 197.56 272.54V271.27C197.56 270.618 197.032 270.09 196.38 270.09Z" fill="#F5F5F5"/>
<path d="M208.5 80.0601H73.79V198.32H208.5V80.0601Z" fill="#E6E6E6"/>
<path d="M222.94 75.46H65.07C64.8945 75.46 64.7207 75.4947 64.5587 75.5621C64.3967 75.6296 64.2496 75.7285 64.126 75.853C64.0024 75.9776 63.9046 76.1254 63.8384 76.2879C63.7721 76.4504 63.7387 76.6245 63.74 76.8C63.74 77.1527 63.8801 77.491 64.1295 77.7404C64.379 77.9898 64.7173 78.13 65.07 78.13H222.94C223.294 78.13 223.633 77.9902 223.884 77.741C224.135 77.4919 224.277 77.1536 224.28 76.8C224.28 76.4446 224.139 76.1037 223.888 75.8524C223.636 75.6011 223.295 75.46 222.94 75.46Z" fill="#E6E6E6"/>
<path d="M214.22 80.0601H76.46V198.32H214.22V80.0601Z" fill="#F0F0F0"/>
<path d="M208.5 198.32H73.79V202.11H212.44L208.5 198.32Z" fill="#E6E6E6"/>
<path d="M223.74 198.32H85.99L89.92 202.11H227.68L223.74 198.32Z" fill="#F0F0F0"/>
<path d="M206.22 190.32V88.0601L84.47 88.0601V190.32H206.22Z" fill="#FAFAFA"/>
<path d="M112.11 190.32L159.07 88.0601H181.25L134.28 190.32H112.11Z" fill="white"/>
<path d="M139.04 190.32L186.01 88.0601H194.65L147.69 190.32H139.04Z" fill="white"/>
<path d="M206.22 190.32V88.0601H205.2V190.32H206.22Z" fill="#E6E6E6"/>
<g opacity="0.4">
<path d="M84.56 73.0698H70.79V170.66H84.56V73.0698Z" fill="#F0F0F0"/>
<path d="M89.93 73.0698H79.2V170.66H89.93V73.0698Z" fill="#E6E6E6"/>
<path d="M98.33 73.0698H84.56V170.66H98.33V73.0698Z" fill="#F0F0F0"/>
<path d="M103.7 73.0698H92.97V170.66H103.7V73.0698Z" fill="#E6E6E6"/>
<path d="M112.1 73.0698H98.33V170.66H112.1V73.0698Z" fill="#F0F0F0"/>
</g>
<g opacity="0.4">
<path d="M201.1 73.0698H193.16V170.66H201.1V73.0698Z" fill="#F0F0F0"/>
<path d="M204.18 73.0698H198V170.66H204.18V73.0698Z" fill="#E6E6E6"/>
<path d="M209.03 73.0698H201.09V170.66H209.03V73.0698Z" fill="#F0F0F0"/>
<path d="M212.12 73.0698H205.94V170.66H212.12V73.0698Z" fill="#E6E6E6"/>
<path d="M216.97 73.0698H209.03V170.66H216.97V73.0698Z" fill="#F0F0F0"/>
</g>
<path d="M356.85 269.21C356.732 270.657 357.046 272.105 357.752 273.374C358.457 274.642 359.523 275.673 360.814 276.335C362.106 276.998 363.564 277.263 365.006 277.097C366.448 276.931 367.808 276.341 368.915 275.402C370.021 274.463 370.825 273.217 371.223 271.821C371.622 270.426 371.598 268.944 371.155 267.562C370.711 266.18 369.868 264.96 368.731 264.058C367.595 263.155 366.216 262.609 364.77 262.49C362.829 262.332 360.905 262.951 359.42 264.211C357.935 265.471 357.011 267.269 356.85 269.21Z" fill="#E0E0E0"/>
<path d="M377.259 280.9C381.275 280.309 384.051 276.574 383.46 272.558C382.869 268.542 379.135 265.765 375.119 266.356C371.103 266.947 368.326 270.682 368.917 274.698C369.508 278.714 373.242 281.491 377.259 280.9Z" fill="#E0E0E0"/>
<path d="M381.72 274.55C381.602 275.996 381.916 277.445 382.622 278.714C383.327 279.982 384.393 281.012 385.684 281.675C386.976 282.338 388.434 282.603 389.876 282.437C391.318 282.271 392.678 281.681 393.785 280.742C394.891 279.803 395.695 278.557 396.093 277.161C396.492 275.766 396.468 274.284 396.025 272.902C395.581 271.52 394.738 270.3 393.601 269.398C392.465 268.495 391.086 267.949 389.64 267.83C388.678 267.749 387.71 267.859 386.791 268.153C385.872 268.448 385.02 268.921 384.284 269.545C383.548 270.169 382.943 270.933 382.503 271.792C382.063 272.651 381.797 273.588 381.72 274.55Z" fill="#E0E0E0"/>
<path d="M343.2 273.06C343.082 274.507 343.396 275.956 344.102 277.224C344.807 278.492 345.873 279.523 347.164 280.185C348.456 280.848 349.914 281.113 351.356 280.947C352.798 280.781 354.158 280.191 355.265 279.252C356.371 278.313 357.175 277.067 357.573 275.672C357.972 274.276 357.948 272.794 357.505 271.412C357.061 270.03 356.218 268.811 355.081 267.908C353.945 267.005 352.566 266.46 351.12 266.34C349.179 266.182 347.255 266.802 345.77 268.061C344.285 269.321 343.361 271.119 343.2 273.06Z" fill="#E0E0E0"/>
<path d="M400.719 280.895C404.735 280.304 407.511 276.569 406.92 272.553C406.33 268.537 402.595 265.761 398.579 266.351C394.563 266.942 391.786 270.677 392.377 274.693C392.968 278.709 396.703 281.486 400.719 280.895Z" fill="#E0E0E0"/>
<path d="M345.395 273.032C348.48 270.394 348.842 265.754 346.203 262.669C343.565 259.584 338.925 259.222 335.84 261.86C332.755 264.499 332.393 269.139 335.031 272.224C337.67 275.309 342.31 275.671 345.395 273.032Z" fill="#E0E0E0"/>
<path d="M322.92 271.39C322.802 272.837 323.116 274.286 323.822 275.554C324.527 276.822 325.593 277.853 326.884 278.515C328.176 279.178 329.634 279.443 331.076 279.277C332.518 279.111 333.878 278.521 334.985 277.582C336.091 276.643 336.895 275.397 337.293 274.002C337.692 272.606 337.668 271.124 337.225 269.742C336.781 268.36 335.938 267.141 334.801 266.238C333.665 265.335 332.286 264.79 330.84 264.67C328.899 264.512 326.975 265.132 325.49 266.392C324.005 267.652 323.081 269.449 322.92 271.39Z" fill="#E0E0E0"/>
<path d="M314.53 273.37C314.53 273.37 315.79 303.44 364.11 303.44C412.43 303.44 413.69 273.37 413.69 273.37H314.53Z" fill="#F0F0F0"/>
<path d="M441.26 303.44H432.07V382.39H441.26V303.44Z" fill="#E6E6E6"/>
<path d="M443.71 303.44H438.3V382.39H443.71V303.44Z" fill="#F0F0F0"/>
<path d="M402.16 303.44H392.97V382.39H402.16V303.44Z" fill="#E6E6E6"/>
<path d="M403.88 303.44H398.47V382.39H403.88V303.44Z" fill="#F0F0F0"/>
<path d="M314.93 313.02H445.39V303.45H314.93V313.02Z" fill="#F0F0F0"/>
<path d="M275.06 303.44H265.87V382.39H275.06V303.44Z" fill="#E6E6E6"/>
<path d="M276.78 303.44H271.37V382.39H276.78V303.44Z" fill="#F0F0F0"/>
<path d="M264.23 313.02H311V303.45H264.23V313.02Z" fill="#E6E6E6"/>
<path d="M314.15 303.44H304.96V382.39H314.15V303.44Z" fill="#E6E6E6"/>
<path d="M316.61 303.44H311.2V382.39H316.61V303.44Z" fill="#F0F0F0"/>
<path d="M250 427.56C357.082 427.56 443.89 422.492 443.89 416.24C443.89 409.988 357.082 404.92 250 404.92C142.918 404.92 56.11 409.988 56.11 416.24C56.11 422.492 142.918 427.56 250 427.56Z" fill="#F5F5F5"/>
<path d="M355.48 406.31C355.481 408.308 354.773 410.242 353.482 411.768C352.191 413.293 350.401 414.311 348.43 414.64C324.168 418.733 299.392 418.733 275.13 414.64C273.167 414.302 271.387 413.28 270.106 411.756C268.825 410.231 268.125 408.302 268.13 406.31V325.31H355.52L355.48 406.31Z" fill="#F97316"/>
<path opacity="0.3" d="M268.08 326.77V338.14C273.34 340.09 290.61 341.52 311.78 341.52C332.95 341.52 350.25 340.09 355.48 338.14V326.77H268.08Z" fill="black"/>
<path d="M357.12 335.44C357.12 338.01 337.28 340.09 311.78 340.09C286.28 340.09 266.44 338.01 266.44 335.44L265.61 325.34H358L357.12 335.44Z" fill="#F97316"/>
<path d="M311.78 329.98C337.279 329.98 357.95 327.903 357.95 325.34C357.95 322.778 337.279 320.7 311.78 320.7C286.281 320.7 265.61 322.778 265.61 325.34C265.61 327.903 286.281 329.98 311.78 329.98Z" fill="#F97316"/>
<path opacity="0.3" d="M311.78 329.98C337.279 329.98 357.95 327.903 357.95 325.34C357.95 322.778 337.279 320.7 311.78 320.7C286.281 320.7 265.61 322.778 265.61 325.34C265.61 327.903 286.281 329.98 311.78 329.98Z" fill="black"/>
<path opacity="0.2" d="M279.8 400.61C278.902 400.607 278.041 400.249 277.406 399.614C276.771 398.979 276.413 398.118 276.41 397.22V350.78C276.413 349.882 276.771 349.021 277.406 348.386C278.041 347.751 278.902 347.393 279.8 347.39C280.697 347.395 281.557 347.754 282.191 348.389C282.826 349.023 283.185 349.883 283.19 350.78V397.22C283.185 398.118 282.826 398.977 282.191 399.611C281.557 400.246 280.697 400.605 279.8 400.61Z" fill="black"/>
<path opacity="0.2" d="M343.77 400.61C342.872 400.607 342.011 400.249 341.376 399.614C340.741 398.979 340.383 398.118 340.38 397.22V350.78C340.383 349.882 340.741 349.021 341.376 348.386C342.011 347.751 342.872 347.393 343.77 347.39C344.667 347.395 345.527 347.754 346.161 348.389C346.796 349.023 347.155 349.883 347.16 350.78V397.22C347.155 398.118 346.796 398.977 346.161 399.611C345.527 400.246 344.667 400.605 343.77 400.61Z" fill="black"/>
<path opacity="0.2" d="M322.44 400.61C321.543 400.605 320.683 400.246 320.049 399.611C319.414 398.977 319.055 398.118 319.05 397.22V350.78C319.055 349.883 319.414 349.023 320.049 348.389C320.683 347.754 321.543 347.395 322.44 347.39C323.338 347.393 324.199 347.751 324.834 348.386C325.469 349.021 325.827 349.882 325.83 350.78V397.22C325.827 398.118 325.469 398.979 324.834 399.614C324.199 400.249 323.338 400.607 322.44 400.61Z" fill="black"/>
<path opacity="0.2" d="M301.12 400.61C300.223 400.605 299.363 400.246 298.729 399.611C298.094 398.977 297.735 398.118 297.73 397.22V350.78C297.735 349.883 298.094 349.023 298.729 348.389C299.363 347.754 300.223 347.395 301.12 347.39C302.018 347.393 302.879 347.751 303.514 348.386C304.149 349.021 304.507 349.882 304.51 350.78V397.22C304.507 398.118 304.149 398.979 303.514 399.614C302.879 400.249 302.018 400.607 301.12 400.61Z" fill="black"/>
<path d="M267.53 227.71L228.81 235.71C228.148 235.834 227.463 235.695 226.903 235.321C226.342 234.947 225.95 234.369 225.81 233.71L224 225.31L223.35 222.21L224.49 218.67C224.649 218.162 224.839 217.664 225.06 217.18C225.085 217.103 225.118 217.029 225.16 216.96C225.799 215.503 226.659 214.154 227.71 212.96L229.71 212.54L262.91 205.65C263.572 205.525 264.257 205.665 264.817 206.039C265.378 206.413 265.77 206.991 265.91 207.65L269.44 224.65C269.585 225.308 269.466 225.997 269.109 226.569C268.752 227.141 268.185 227.55 267.53 227.71Z" fill="#F97316"/>
<path opacity="0.3" d="M265.61 206.75L246.93 225.75L242.93 224.13L227.37 217.82L225.18 216.93C225.819 215.473 226.679 214.124 227.73 212.93L229.73 212.51L262.93 205.62C263.438 205.518 263.966 205.572 264.444 205.773C264.921 205.975 265.328 206.315 265.61 206.75Z" fill="black"/>
<path d="M265.61 206.75L242.93 224.16L241.45 225.3L227.2 218.23L225.08 217.23C225.105 217.153 225.138 217.08 225.18 217.01C225.819 215.553 226.679 214.204 227.73 213.01L229.73 212.59L262.93 205.7C263.43 205.59 263.952 205.632 264.429 205.819C264.906 206.006 265.317 206.33 265.61 206.75Z" fill="#F97316"/>
<path opacity="0.2" d="M265.61 206.75L242.93 224.16L241.45 225.3L227.2 218.23L225.08 217.23C225.105 217.153 225.138 217.08 225.18 217.01C225.819 215.553 226.679 214.204 227.73 213.01L229.73 212.59L262.93 205.7C263.43 205.59 263.952 205.632 264.429 205.819C264.906 206.006 265.317 206.33 265.61 206.75Z" fill="white"/>
<path d="M314.8 262.78L303 275.5C302.534 275.996 301.892 276.288 301.212 276.312C300.532 276.336 299.87 276.091 299.37 275.63L270.43 248.68C269.932 248.216 269.638 247.572 269.614 246.892C269.589 246.211 269.836 245.549 270.3 245.05L282.14 232.33C282.369 232.081 282.646 231.879 282.954 231.738C283.261 231.596 283.594 231.517 283.933 231.505C284.271 231.492 284.609 231.548 284.926 231.667C285.243 231.786 285.533 231.968 285.78 232.2L314.71 259.15C315.085 259.499 315.347 259.952 315.463 260.451C315.579 260.949 315.543 261.472 315.36 261.95C315.235 262.263 315.044 262.546 314.8 262.78Z" fill="#F97316"/>
<path opacity="0.3" d="M315.32 262L289 257.71L282.89 231.71C283.356 231.495 283.876 231.423 284.383 231.503C284.89 231.584 285.362 231.812 285.74 232.16L314.67 259.11C315.063 259.466 315.337 259.935 315.453 260.452C315.57 260.969 315.523 261.51 315.32 262Z" fill="black"/>
<path d="M315.32 262L289.69 254.36L282.89 231.8C283.356 231.585 283.876 231.513 284.383 231.593C284.89 231.673 285.362 231.902 285.74 232.25L314.67 259.2C315.045 259.549 315.307 260.002 315.423 260.501C315.539 260.999 315.503 261.522 315.32 262Z" fill="#F97316"/>
<path opacity="0.2" d="M315.32 262L289.69 254.36L282.89 231.8C283.356 231.585 283.876 231.513 284.383 231.593C284.89 231.673 285.362 231.902 285.74 232.25L314.67 259.2C315.045 259.549 315.307 260.002 315.423 260.501C315.539 260.999 315.503 261.522 315.32 262Z" fill="white"/>
<path d="M325.09 283.73L338.09 298.91C338.338 299.2 338.525 299.538 338.638 299.903C338.752 300.268 338.789 300.652 338.749 301.032C338.709 301.412 338.591 301.78 338.404 302.113C338.217 302.446 337.964 302.738 337.66 302.97L309.42 324.97C308.945 325.255 308.382 325.354 307.838 325.247C307.295 325.14 306.81 324.834 306.48 324.39L296.31 312.79C296.119 312.567 295.961 312.318 295.84 312.05C295.651 311.682 295.572 311.267 295.613 310.856C295.654 310.444 295.813 310.053 296.07 309.73L321.07 283.62C321.46 283.197 321.976 282.911 322.541 282.803C323.106 282.695 323.691 282.771 324.21 283.02C324.546 283.198 324.844 283.439 325.09 283.73Z" fill="#F97316"/>
<path opacity="0.3" d="M324.21 283.05L318 310.67L295.88 312.08C295.691 311.712 295.612 311.298 295.653 310.886C295.694 310.475 295.853 310.084 296.11 309.76L321.11 283.65C321.497 283.236 322.006 282.955 322.563 282.847C323.119 282.74 323.696 282.811 324.21 283.05Z" fill="black"/>
<path d="M324.21 283.05L313.8 312.36L295.86 312.08C295.671 311.712 295.592 311.298 295.633 310.886C295.674 310.475 295.833 310.084 296.09 309.76L321.09 283.65C321.479 283.232 321.991 282.948 322.552 282.84C323.113 282.733 323.694 282.806 324.21 283.05Z" fill="#F97316"/>
<path opacity="0.2" d="M324.21 283.05L313.8 312.36L295.86 312.08C295.671 311.712 295.592 311.298 295.633 310.886C295.674 310.475 295.833 310.084 296.09 309.76L321.09 283.65C321.479 283.232 321.991 282.948 322.552 282.84C323.113 282.733 323.694 282.806 324.21 283.05Z" fill="white"/>
</svg>
