<svg width="638" height="456" viewBox="0 0 638 456" fill="none" xmlns="http://www.w3.org/2000/svg">
<path d="M595.737 139.326C548.944 44.688 402.286 -9.12001 316.503 90.8534C313.13 94.7933 309.943 98.9003 306.942 103.175C285.067 134.283 252.256 188.155 212.153 174.976C184.719 165.966 165.898 141.077 138.756 131.401C102.982 118.633 68.9768 144.762 47.0752 178.141C21.6099 216.947 9.4332 262.492 23.9249 304.608C50.9032 383.04 155.936 400.669 227.811 393.482C280.456 388.211 331.268 359.693 384.003 357.914C421.937 356.619 458.221 367.126 492.408 380.176C508.249 386.223 524.08 392.89 541.215 394.559C602.536 400.523 614.239 339.191 615.706 287.608C617.165 236.317 617.575 183.494 595.737 139.326Z" fill="#EA580C"/>
<path opacity="0.7" d="M595.737 139.326C548.944 44.688 402.286 -9.12001 316.503 90.8534C313.13 94.7933 309.943 98.9003 306.942 103.175C285.067 134.283 252.256 188.155 212.153 174.976C184.719 165.966 165.898 141.077 138.756 131.401C102.982 118.633 68.9768 144.762 47.0752 178.141C21.6099 216.947 9.4332 262.492 23.9249 304.608C50.9032 383.04 155.936 400.669 227.811 393.482C280.456 388.211 331.268 359.693 384.003 357.914C421.937 356.619 458.221 367.126 492.408 380.176C508.249 386.223 524.08 392.89 541.215 394.559C602.536 400.523 614.239 339.191 615.706 287.608C617.165 236.317 617.575 183.494 595.737 139.326Z" fill="white"/>
<path d="M146.139 67.8893H88.7368L87.9712 75.7872H146.139V67.8893Z" stroke="#714128" stroke-miterlimit="10"/>
<path d="M146.139 75.7872H88.7368L87.9712 83.6851H146.139V75.7872Z" stroke="#714128" stroke-miterlimit="10"/>
<path d="M146.139 83.6851H88.7368L87.9712 91.583H146.139V83.6851Z" stroke="#714128" stroke-miterlimit="10"/>
<path d="M146.139 91.583H88.7368L87.9712 99.481H146.139V91.583Z" stroke="#714128" stroke-miterlimit="10"/>
<path d="M146.139 99.481H88.7368L87.9712 107.37H146.139V99.481Z" stroke="#714128" stroke-miterlimit="10"/>
<path d="M146.139 107.37H88.7368L87.9712 115.268H146.139V107.37Z" stroke="#714128" stroke-miterlimit="10"/>
<path d="M146.139 115.268H88.7368L87.9712 123.166H146.139V115.268Z" stroke="#714128" stroke-miterlimit="10"/>
<path d="M146.139 123.166H88.7368L87.9712 131.064H146.139V123.166Z" stroke="#714128" stroke-miterlimit="10"/>
<path d="M146.139 131.064H88.7368L87.9712 138.961H146.139V131.064Z" stroke="#714128" stroke-miterlimit="10"/>
<path d="M146.139 138.961H88.7368L87.9712 146.859H146.139V138.961Z" stroke="#714128" stroke-miterlimit="10"/>
<path d="M146.139 146.859H88.7368L87.9712 154.757H146.139V146.859Z" stroke="#714128" stroke-miterlimit="10"/>
<path d="M146.139 154.757H88.7368L87.9712 162.655H146.139V154.757Z" stroke="#714128" stroke-miterlimit="10"/>
<path d="M146.139 162.655H88.7368L87.9712 170.553H146.139V162.655Z" stroke="#714128" stroke-miterlimit="10"/>
<path d="M146.139 170.553H88.7368L87.9712 178.451H146.139V170.553Z" stroke="#714128" stroke-miterlimit="10"/>
<path d="M146.139 178.451H88.7368L87.9712 186.349H146.139V178.451Z" stroke="#714128" stroke-miterlimit="10"/>
<path d="M146.139 186.331H88.7368L87.9712 194.229H146.139V186.331Z" stroke="#714128" stroke-miterlimit="10"/>
<path d="M146.139 194.22H88.7368L87.9712 202.117H146.139V194.22Z" stroke="#714128" stroke-miterlimit="10"/>
<path d="M146.139 202.099H88.7368L87.9712 209.997H146.139V202.099Z" stroke="#714128" stroke-miterlimit="10"/>
<path d="M146.139 209.988H88.7368L87.9712 217.886H146.139V209.988Z" stroke="#714128" stroke-miterlimit="10"/>
<path d="M146.139 217.868H88.7368L87.9712 225.766H146.139V217.868Z" stroke="#714128" stroke-miterlimit="10"/>
<path d="M146.139 225.756H88.7368L87.9712 233.645H146.139V225.756Z" stroke="#714128" stroke-miterlimit="10"/>
<path d="M205.154 67.8893H147.743L146.986 75.7872H205.154V67.8893Z" stroke="#714128" stroke-miterlimit="10"/>
<path d="M205.154 75.7872H147.743L146.986 83.6851H205.154V75.7872Z" stroke="#714128" stroke-miterlimit="10"/>
<path d="M205.154 83.6851H147.743L146.986 91.583H205.154V83.6851Z" stroke="#714128" stroke-miterlimit="10"/>
<path d="M205.154 91.583H147.743L146.986 99.481H205.154V91.583Z" stroke="#714128" stroke-miterlimit="10"/>
<path d="M205.154 99.481H147.743L146.986 107.37H205.154V99.481Z" stroke="#714128" stroke-miterlimit="10"/>
<path d="M205.154 107.37H147.743L146.986 115.268H205.154V107.37Z" stroke="#714128" stroke-miterlimit="10"/>
<path d="M205.154 115.268H147.743L146.986 123.166H205.154V115.268Z" stroke="#714128" stroke-miterlimit="10"/>
<path d="M205.154 123.166H147.743L146.986 131.064H205.154V123.166Z" stroke="#714128" stroke-miterlimit="10"/>
<path d="M205.154 131.064H147.743L146.986 138.961H205.154V131.064Z" stroke="#714128" stroke-miterlimit="10"/>
<path d="M205.154 138.961H147.743L146.986 146.859H205.154V138.961Z" stroke="#714128" stroke-miterlimit="10"/>
<path d="M205.154 146.859H147.743L146.986 154.757H205.154V146.859Z" stroke="#714128" stroke-miterlimit="10"/>
<path d="M205.154 154.757H147.743L146.986 162.655H205.154V154.757Z" stroke="#714128" stroke-miterlimit="10"/>
<path d="M205.154 162.655H147.743L146.986 170.553H205.154V162.655Z" stroke="#714128" stroke-miterlimit="10"/>
<path d="M205.154 170.553H147.743L146.986 178.451H205.154V170.553Z" stroke="#714128" stroke-miterlimit="10"/>
<path d="M205.154 178.451H147.743L146.986 186.349H205.154V178.451Z" stroke="#714128" stroke-miterlimit="10"/>
<path d="M205.154 186.331H147.743L146.986 194.229H205.154V186.331Z" stroke="#714128" stroke-miterlimit="10"/>
<path d="M205.154 194.22H147.743L146.986 202.117H205.154V194.22Z" stroke="#714128" stroke-miterlimit="10"/>
<path d="M205.154 202.099H147.743L146.986 209.997H205.154V202.099Z" stroke="#714128" stroke-miterlimit="10"/>
<path d="M205.154 209.988H147.743L146.986 217.886H205.154V209.988Z" stroke="#714128" stroke-miterlimit="10"/>
<path d="M205.154 217.868H147.743L146.986 225.766H205.154V217.868Z" stroke="#714128" stroke-miterlimit="10"/>
<path d="M205.154 225.756H147.743L146.986 233.645H205.154V225.756Z" stroke="#714128" stroke-miterlimit="10"/>
<path d="M208.025 61.7698H86.6313V67.7251H208.025V61.7698Z" stroke="#714128" stroke-miterlimit="10"/>
<path d="M208.025 67.7342V172.651" stroke="#714128" stroke-miterlimit="10"/>
<path d="M206.703 67.8984V139.883" stroke="#714128" stroke-miterlimit="10"/>
<path d="M208.89 172.423H207.259V175.095H208.89V172.423Z" fill="#714128" stroke="#714128" stroke-miterlimit="10"/>
<path d="M207.414 139.317H205.782V141.989H207.414V139.317Z" fill="#714128" stroke="#714128" stroke-miterlimit="10"/>
<path d="M497.23 67.8893H439.819L439.062 75.7872H497.23V67.8893Z" stroke="#714128" stroke-miterlimit="10"/>
<path d="M497.23 75.7872H439.819L439.062 83.6851H497.23V75.7872Z" stroke="#714128" stroke-miterlimit="10"/>
<path d="M497.23 83.6851H439.819L439.062 91.583H497.23V83.6851Z" stroke="#714128" stroke-miterlimit="10"/>
<path d="M497.23 91.583H439.819L439.062 99.481H497.23V91.583Z" stroke="#714128" stroke-miterlimit="10"/>
<path d="M497.23 99.481H439.819L439.062 107.37H497.23V99.481Z" stroke="#714128" stroke-miterlimit="10"/>
<path d="M497.23 107.37H439.819L439.062 115.268H497.23V107.37Z" stroke="#714128" stroke-miterlimit="10"/>
<path d="M497.23 115.268H439.819L439.062 123.166H497.23V115.268Z" stroke="#714128" stroke-miterlimit="10"/>
<path d="M497.23 123.166H439.819L439.062 131.064H497.23V123.166Z" stroke="#714128" stroke-miterlimit="10"/>
<path d="M497.23 131.064H439.819L439.062 138.961H497.23V131.064Z" stroke="#714128" stroke-miterlimit="10"/>
<path d="M497.23 138.961H439.819L439.062 146.859H497.23V138.961Z" stroke="#714128" stroke-miterlimit="10"/>
<path d="M497.23 146.859H439.819L439.062 154.757H497.23V146.859Z" stroke="#714128" stroke-miterlimit="10"/>
<path d="M497.23 154.757H439.819L439.062 162.655H497.23V154.757Z" stroke="#714128" stroke-miterlimit="10"/>
<path d="M497.23 162.655H439.819L439.062 170.553H497.23V162.655Z" stroke="#714128" stroke-miterlimit="10"/>
<path d="M497.23 170.553H439.819L439.062 178.451H497.23V170.553Z" stroke="#714128" stroke-miterlimit="10"/>
<path d="M497.23 178.451H439.819L439.062 186.349H497.23V178.451Z" stroke="#714128" stroke-miterlimit="10"/>
<path d="M497.23 186.331H439.819L439.062 194.229H497.23V186.331Z" stroke="#714128" stroke-miterlimit="10"/>
<path d="M497.23 194.22H439.819L439.062 202.117H497.23V194.22Z" stroke="#714128" stroke-miterlimit="10"/>
<path d="M497.23 202.099H439.819L439.062 209.997H497.23V202.099Z" stroke="#714128" stroke-miterlimit="10"/>
<path d="M497.23 209.988H439.819L439.062 217.886H497.23V209.988Z" stroke="#714128" stroke-miterlimit="10"/>
<path d="M497.23 217.868H439.819L439.062 225.766H497.23V217.868Z" stroke="#714128" stroke-miterlimit="10"/>
<path d="M497.23 225.756H439.819L439.062 233.645H497.23V225.756Z" stroke="#714128" stroke-miterlimit="10"/>
<path d="M556.245 67.8893H498.834L498.078 75.7872H556.245V67.8893Z" stroke="#714128" stroke-miterlimit="10"/>
<path d="M556.245 75.7872H498.834L498.078 83.6851H556.245V75.7872Z" stroke="#714128" stroke-miterlimit="10"/>
<path d="M556.245 83.6851H498.834L498.078 91.583H556.245V83.6851Z" stroke="#714128" stroke-miterlimit="10"/>
<path d="M556.245 91.583H498.834L498.078 99.481H556.245V91.583Z" stroke="#714128" stroke-miterlimit="10"/>
<path d="M556.245 99.481H498.834L498.078 107.37H556.245V99.481Z" stroke="#714128" stroke-miterlimit="10"/>
<path d="M556.245 107.37H498.834L498.078 115.268H556.245V107.37Z" stroke="#714128" stroke-miterlimit="10"/>
<path d="M556.245 115.268H498.834L498.078 123.166H556.245V115.268Z" stroke="#714128" stroke-miterlimit="10"/>
<path d="M556.245 123.166H498.834L498.078 131.064H556.245V123.166Z" stroke="#714128" stroke-miterlimit="10"/>
<path d="M556.245 131.064H498.834L498.078 138.961H556.245V131.064Z" stroke="#714128" stroke-miterlimit="10"/>
<path d="M556.245 138.961H498.834L498.078 146.859H556.245V138.961Z" stroke="#714128" stroke-miterlimit="10"/>
<path d="M556.245 146.859H498.834L498.078 154.757H556.245V146.859Z" stroke="#714128" stroke-miterlimit="10"/>
<path d="M556.245 154.757H498.834L498.078 162.655H556.245V154.757Z" stroke="#714128" stroke-miterlimit="10"/>
<path d="M556.245 162.655H498.834L498.078 170.553H556.245V162.655Z" stroke="#714128" stroke-miterlimit="10"/>
<path d="M556.245 170.553H498.834L498.078 178.451H556.245V170.553Z" stroke="#714128" stroke-miterlimit="10"/>
<path d="M556.245 178.451H498.834L498.078 186.349H556.245V178.451Z" stroke="#714128" stroke-miterlimit="10"/>
<path d="M556.245 186.331H498.834L498.078 194.229H556.245V186.331Z" stroke="#714128" stroke-miterlimit="10"/>
<path d="M556.245 194.22H498.834L498.078 202.117H556.245V194.22Z" stroke="#714128" stroke-miterlimit="10"/>
<path d="M556.245 202.099H498.834L498.078 209.997H556.245V202.099Z" stroke="#714128" stroke-miterlimit="10"/>
<path d="M556.245 209.988H498.834L498.078 217.886H556.245V209.988Z" stroke="#714128" stroke-miterlimit="10"/>
<path d="M556.245 217.868H498.834L498.078 225.766H556.245V217.868Z" stroke="#714128" stroke-miterlimit="10"/>
<path d="M556.245 225.756H498.834L498.078 233.645H556.245V225.756Z" stroke="#714128" stroke-miterlimit="10"/>
<path d="M559.116 61.7698H437.723V67.7251H559.116V61.7698Z" stroke="#714128" stroke-miterlimit="10"/>
<path d="M559.116 67.7342V172.651" stroke="#714128" stroke-miterlimit="10"/>
<path d="M557.794 67.8984V139.883" stroke="#714128" stroke-miterlimit="10"/>
<path d="M559.973 172.423H558.341V175.095H559.973V172.423Z" fill="#714128" stroke="#714128" stroke-miterlimit="10"/>
<path d="M558.505 139.317H556.874V141.989H558.505V139.317Z" fill="#714128" stroke="#714128" stroke-miterlimit="10"/>
<path d="M30.7151 320.75C30.5318 319.925 30.2693 319.118 29.9313 318.343C29.5778 317.46 29.1731 316.598 28.7191 315.762C27.9351 314.328 27.0391 312.959 26.0395 311.667C26.0069 311.62 25.9586 311.587 25.9036 311.573C25.8485 311.559 25.7903 311.566 25.7395 311.591C25.6887 311.616 25.6488 311.659 25.6269 311.712C25.605 311.764 25.6026 311.823 25.6202 311.877C25.7569 312.424 25.9301 313.153 26.1397 313.974C26.3494 314.795 26.5043 315.734 26.6866 316.71C27.0876 318.534 27.3519 320.541 27.6892 321.945C27.8988 322.812 28.1084 323.632 28.2907 324.38C28.454 325.033 28.6548 325.675 28.8922 326.305L27.0694 324.672C26.477 324.125 25.8116 323.66 25.1827 323.14C25.515 322.3 25.6096 321.385 25.4562 320.495C25.2719 318.965 24.8794 317.468 24.2895 316.045C23.9392 315.26 23.5405 314.499 23.0956 313.765C22.5741 312.953 22.0082 312.17 21.4003 311.421C20.3494 310.112 19.1776 308.906 17.9004 307.818C17.8598 307.779 17.8064 307.755 17.7499 307.752C17.6934 307.748 17.6375 307.765 17.5923 307.799C17.5471 307.833 17.5157 307.883 17.5037 307.938C17.4916 307.993 17.4998 308.051 17.5267 308.101C17.7819 308.63 18.1192 309.305 18.4382 310.089C18.7572 310.873 19.14 311.749 19.5228 312.652C20.1972 314.421 20.9172 316.3 21.4459 317.668C21.7922 318.507 22.1294 319.282 22.4576 319.966C22.7857 320.65 23.0591 321.298 23.369 321.79L21.8742 320.769L20.343 319.857C20.2586 319.544 20.1061 319.255 19.8964 319.009C19.579 318.65 19.2281 318.324 18.8483 318.033C17.7782 317.218 16.5842 316.58 15.312 316.145C13.8054 315.651 12.2309 315.395 10.6454 315.388C9.27632 315.359 7.90868 315.494 6.57136 315.789C6.36173 315.844 6.37996 316.209 6.57136 316.263C7.81242 316.64 9.02984 317.091 10.2171 317.613C11.6207 318.188 13.0516 318.899 14.2091 319.3C16.6062 320.212 18.7663 320.741 19.8053 320.568L21.3183 321.48C21.8196 321.79 22.3026 322.137 22.7857 322.465C22.1535 322.392 21.5167 322.368 20.8808 322.392C20.1218 322.45 19.367 322.553 18.6204 322.702C17.8796 322.858 17.156 323.087 16.4604 323.386C15.6873 323.692 14.9379 324.055 14.2182 324.471C13.4982 324.891 12.8238 325.32 12.2587 325.721C11.6936 326.122 11.2014 326.542 10.8551 326.843C10.691 326.979 10.691 327.308 10.8551 327.262C11.5478 327.052 12.7326 326.788 14.1089 326.523L16.2325 326.149C16.9434 326.049 17.6452 325.931 18.2741 325.785C19.7233 325.465 21.0995 325.192 22.257 324.873C23.1027 324.683 23.9021 324.326 24.6085 323.824C25.2101 324.316 25.839 324.736 26.4314 325.292L28.154 326.861C27.5303 326.702 26.8971 326.583 26.2582 326.505C25.5033 326.403 24.74 326.375 23.9796 326.423C22.3862 326.534 20.8158 326.866 19.3131 327.408C18.5202 327.682 17.7819 327.964 17.1257 328.256C16.4695 328.548 15.9135 328.849 15.5034 329.077C15.312 329.177 15.2573 329.497 15.4304 329.487C16.196 329.414 17.4356 329.433 18.8756 329.414C19.5957 329.414 20.3248 329.46 21.0722 329.46H23.1867C24.645 329.46 26.1306 329.296 27.2972 329.177C28.1712 329.143 29.0281 328.925 29.8128 328.539C30.9025 329.655 31.9338 330.827 32.9025 332.05C31.5985 331.511 30.2231 331.164 28.8193 331.02C27.2127 330.89 25.5963 330.961 24.007 331.229C22.6222 331.461 21.2549 331.787 19.9147 332.205C19.705 332.278 19.6048 332.588 19.7871 332.606L23.2778 333.163C24.6723 333.473 26.322 333.701 27.598 333.892C28.9736 334.069 30.3583 334.163 31.745 334.175C32.6164 334.264 33.4968 334.161 34.3244 333.874L35.7188 335.762L37.0131 337.714C35.7684 337.035 34.4334 336.538 33.0484 336.236C31.4541 335.884 29.8221 335.734 28.1904 335.789C26.778 335.818 25.3687 335.933 23.9705 336.136C23.7427 336.136 23.6151 336.464 23.7791 336.519C24.5356 336.774 25.8025 337.185 27.2426 337.622C28.6492 338.153 30.0856 338.601 31.5445 338.963C32.8907 339.306 34.2577 339.562 35.6368 339.729C36.5029 339.895 37.3942 339.876 38.2526 339.674L39.4375 341.699L40.5221 343.769C39.3535 342.967 38.0769 342.334 36.7305 341.891C35.1765 341.401 33.5706 341.095 31.9455 340.979C30.5161 340.838 29.0797 340.78 27.6436 340.805C27.4248 340.805 27.2517 341.097 27.4248 341.179C28.2087 341.508 29.4026 342.091 30.8154 342.73C32.1641 343.381 33.5452 343.962 34.9532 344.472C36.2566 344.951 37.5902 345.344 38.9453 345.648C39.7811 345.912 40.6639 345.993 41.5338 345.885C42.2173 347.29 42.7824 348.749 43.3566 350.199C42.279 349.281 41.0835 348.511 39.802 347.91C38.31 347.254 36.7472 346.774 35.1446 346.478C33.7427 346.192 32.3241 345.994 30.8974 345.885C30.6786 345.885 30.4781 346.131 30.6422 346.232C31.3804 346.633 32.465 347.344 33.8413 348.056C35.2176 348.767 36.5756 349.633 37.724 350.217C40.4583 351.485 43.0558 352.525 44.104 352.351L44.7876 354.586L45.3618 356.857C44.4199 355.79 43.3267 354.869 42.1171 354.121C40.7195 353.304 39.2334 352.649 37.6875 352.169C36.3276 351.747 34.9464 351.397 33.5497 351.12C33.3309 351.12 33.103 351.321 33.2489 351.43C33.8686 351.923 35.0717 352.716 36.1837 353.61C37.2956 354.504 38.6536 355.434 39.7838 356.163C42.3267 357.741 44.7876 359.091 45.8357 359.073C46.1263 360.593 46.309 362.132 46.3826 363.678C46.3826 363.87 46.5922 364.016 46.8474 364.016C46.9015 364.022 46.9564 364.017 47.0086 364.002C47.0608 363.986 47.1093 363.96 47.1511 363.925C47.1929 363.89 47.2271 363.847 47.2517 363.798C47.2762 363.749 47.2906 363.696 47.294 363.642C47.2203 362.055 47.0315 360.477 46.7289 358.918C47.7224 358.644 49.5908 356.382 50.8577 353.126C51.4447 351.469 51.8363 349.749 52.0243 348.001C52.2105 346.448 52.3049 344.886 52.3068 343.322C52.3068 343.076 51.9605 343.031 51.8511 343.259C51.4045 344.262 50.6572 345.894 49.8733 347.618C49.0895 349.342 48.251 351.065 47.7041 352.424C47.1461 353.821 46.6713 355.249 46.2823 356.701C46.1 355.917 45.8904 355.133 45.6899 354.349L44.9881 352.032C45.721 351.528 46.3037 350.835 46.6742 350.026C47.4002 348.696 47.9487 347.276 48.3057 345.803C48.6966 344.101 48.8953 342.36 48.8981 340.614C48.9014 339.069 48.8192 337.526 48.652 335.99C48.652 335.744 48.2692 335.744 48.1963 335.99C47.8864 337.021 47.2849 338.726 46.6924 340.55C46.1 342.374 45.4438 344.198 45.1066 345.548C44.7039 346.997 44.3994 348.472 44.1951 349.962C43.6118 348.457 43.0194 346.943 42.3176 345.484C42.9977 344.893 43.5074 344.131 43.7941 343.277C44.3438 341.869 44.7351 340.403 44.9607 338.908C45.1393 337.186 45.1393 335.45 44.9607 333.728C44.8115 332.197 44.5803 330.675 44.268 329.168C44.2134 328.931 43.8579 328.968 43.8032 329.214C43.6027 330.263 43.1743 332.041 42.7733 333.847C42.3723 335.653 41.9257 337.54 41.716 338.972C41.4951 340.455 41.3673 341.951 41.3332 343.45L40.2031 341.298L38.9818 339.209C39.5936 338.553 40.0157 337.743 40.2031 336.865C40.6022 335.409 40.8406 333.914 40.914 332.406C40.915 330.676 40.7502 328.951 40.4218 327.253C40.0208 325.429 39.5104 323.769 39.1823 322.693C39.1094 322.456 38.7357 322.529 38.7266 322.775C38.6081 323.879 38.4258 325.684 38.2344 327.572C38.043 329.46 37.7422 331.357 37.7058 332.78C37.6375 334.279 37.6618 335.78 37.7787 337.276L36.448 335.251L35.0079 333.309C35.5436 332.584 35.8828 331.732 35.9923 330.837C36.2431 329.331 36.3104 327.8 36.1928 326.277C36.0096 324.515 35.6117 322.781 35.0079 321.115C34.4506 319.613 33.8117 318.143 33.0939 316.71C33.0631 316.667 33.019 316.634 32.9683 316.618C32.9175 316.602 32.8628 316.602 32.8124 316.62C32.7621 316.637 32.7187 316.671 32.689 316.715C32.6592 316.759 32.6446 316.812 32.6473 316.865C32.7385 317.987 32.8023 319.848 32.8843 321.717C32.9663 323.587 32.8843 325.593 33.0575 327.007C33.1479 328.514 33.3398 330.013 33.6317 331.494C32.5926 330.244 31.5718 328.986 30.4234 327.846C30.8699 327.063 31.0966 326.175 31.0797 325.274C31.1576 323.757 31.035 322.236 30.7151 320.75Z" fill="#EA580C"/>
<path d="M65.3768 282.538C66.7258 280.878 68.5213 278.616 70.1163 276.455L74.2359 271.074C74.4547 270.8 74.2359 270.435 74.0081 270.6C72.8141 271.338 70.9366 272.642 68.9041 274.175C66.9525 275.697 65.1239 277.371 63.4355 279.181C61.8529 281.028 60.429 283.005 59.1791 285.091L60.4096 280.714L61.0384 278.525L61.7676 276.372C62.8066 276.5 65.951 273.892 69.5694 270.426C72.6865 267.389 77.3166 262.018 79.504 259.829C79.7501 259.573 79.6042 259.19 79.3217 259.336C77.4648 260.272 75.6577 261.304 73.9078 262.428C72.8506 263.112 71.7295 263.832 70.7269 264.599C69.7244 265.365 68.7765 266.158 67.9926 266.906C67.0229 267.787 66.1097 268.728 65.2584 269.724C64.4563 270.636 63.7363 271.548 63.1438 272.369C63.9641 270.308 64.6933 268.201 65.5865 266.167C66.5777 265.208 67.3922 264.081 67.9926 262.838C69.0499 261.151 70.1618 258.908 71.4196 256.454C71.9574 255.378 72.5224 254.111 73.1331 252.806L74.0445 250.782C74.3544 250.098 74.6643 249.423 74.956 248.748C76.1682 246.058 77.3439 243.531 78.1277 242.027C78.3009 241.689 78.0092 241.47 77.7358 241.762C76.0182 243.63 74.4084 245.594 72.9144 247.644L71.5928 249.469C71.1826 250.116 70.7634 250.754 70.3624 251.375C69.6262 252.549 68.9568 253.764 68.3572 255.013C67.3171 257.076 66.4247 259.209 65.6867 261.397C65.2153 262.742 64.9272 264.144 64.83 265.565L64.1555 267.125L63.5449 268.712L62.3236 271.895C62.4238 270.9 62.4876 269.779 62.5241 268.557C62.5605 267.335 62.5241 266.012 62.5241 264.662C62.5241 263.522 62.4694 262.246 62.3691 260.896C62.2689 259.546 62.196 258.16 62.1048 256.837C61.877 254.101 61.7402 251.63 61.6126 250.08C61.6126 249.724 61.1752 249.861 61.0749 250.262C60.8744 251.119 60.6192 252.25 60.3184 253.536C60.0176 254.822 59.808 256.272 59.5619 257.768C59.3158 259.263 59.1609 260.786 59.0151 262.227C58.8768 263.539 58.8189 264.858 58.8419 266.176C58.9148 271.466 59.9447 275.47 60.8288 276.09L60.1544 278.16C59.9265 278.88 59.7351 279.601 59.5255 280.321L58.3315 284.672C58.3163 282.254 58.1641 279.84 57.8758 277.44C57.7026 275.196 57.174 272.351 56.7365 269.688C56.299 267.024 55.8524 264.48 55.5972 262.993C55.5425 262.656 55.1324 262.829 55.0686 263.221C54.8498 264.991 54.4488 267.845 54.2665 270.855C54.0598 273.674 54.0903 276.505 54.3577 279.318C54.5634 281.567 55.0096 283.786 55.6884 285.939C56.2534 287.636 56.8276 288.73 57.3016 289.004L56.8003 291.183L56.4084 293.4L55.6428 297.823C55.3824 295.417 54.9745 293.029 54.4215 290.673C54.0204 288.447 53.2548 285.675 52.5075 283.039C51.7601 280.404 51.195 277.987 50.7849 276.482C50.6846 276.135 50.3018 276.354 50.2836 276.756C50.074 280.321 50.0375 288.365 51.195 292.916C52.2705 298.105 54.1936 301.826 55.1688 302.237C54.7496 305.201 54.704 308.201 54.5582 311.193C54.3394 310.217 54.0478 309.132 53.6468 307.955C53.4645 307.362 53.2731 306.76 53.0634 306.131C52.8538 305.502 52.6442 304.872 52.4619 304.225C51.8148 302.054 50.712 299.373 49.7276 296.829C48.7433 294.284 47.9048 291.913 47.3214 290.445C47.1938 290.107 46.8384 290.363 46.8657 290.773C46.9295 291.685 47.0116 292.843 47.1118 294.175C47.2005 295.62 47.3647 297.06 47.604 298.488C47.8501 300.002 48.1235 301.535 48.4152 302.957C48.5701 303.669 48.7068 304.362 48.8891 305.009C49.0714 305.657 49.281 306.268 49.4724 306.833C50.208 308.968 51.1227 311.036 52.2067 313.017C53.1181 314.521 53.9293 315.47 54.4488 315.625C54.4488 318.607 54.4488 321.599 54.5126 324.581C53.7983 322.281 52.943 320.027 51.9515 317.832C51.514 316.801 50.958 315.661 50.3474 314.494L49.3904 312.725C49.0805 312.114 48.7797 311.503 48.479 310.901C47.203 308.448 46.0181 306.177 45.3072 304.8C45.134 304.48 44.815 304.8 44.8879 305.192C45.2252 307.016 45.7994 309.879 46.5012 312.807C47.2396 315.461 48.1468 318.066 49.2172 320.604C51.2862 325.347 53.583 328.73 54.6311 329.013C54.7222 331.995 54.8498 334.968 54.9957 337.951C54.2182 335.682 53.3051 333.462 52.2614 331.302C50.0485 327.073 47.6146 322.963 44.97 318.99C44.7786 318.708 44.4778 318.99 44.578 319.382C45.4166 322.684 47.5766 330.08 49.5453 334.157C51.7874 338.826 54.1845 342.128 55.2418 342.365C55.4423 345.347 55.6428 348.32 55.9071 351.293C55.048 349.052 54.0589 346.862 52.945 344.736C50.5987 340.585 48.0308 336.563 45.2525 332.688C45.052 332.406 44.7603 332.689 44.8697 333.09C45.8267 336.346 48.2146 343.669 50.3383 347.682C52.7171 352.242 55.2418 355.498 56.3081 355.707C56.5907 358.671 56.9097 361.635 57.2925 364.59C57.2925 364.964 57.5841 365.238 57.8302 365.201C58.0763 365.165 58.2404 364.846 58.1948 364.472C57.8211 361.535 57.5021 358.58 57.2104 355.634C58.213 355.333 60.0723 351.667 61.7676 346.825C63.2259 342.638 64.8391 335.415 65.5591 332.278C65.6412 331.913 65.3313 331.64 65.149 331.913C63.6178 334.357 60.2455 340.121 58.769 344.335C57.9291 346.637 57.2768 349.004 56.8185 351.412C56.5542 348.384 56.3446 345.356 56.1441 342.292C57.1558 342.027 59.1427 338.416 61.0111 333.637C62.6061 329.506 64.4381 322.346 65.2766 319.237C65.3677 318.881 65.0578 318.589 64.8756 318.863C63.2714 321.243 59.6986 326.897 58.0854 331.056C57.1682 333.331 56.4366 335.676 55.898 338.069C55.74 335.029 55.6154 331.989 55.5243 328.949C56.5451 328.721 58.6414 325.174 60.6739 320.468C61.5306 318.434 62.4967 315.643 63.3352 312.98C64.1738 310.317 65.1034 308.119 65.5774 306.697C65.6867 306.377 65.3951 306.085 65.1946 306.323C64.3469 307.371 62.9433 309.15 61.5488 311.229C61.1843 311.749 60.8288 312.278 60.4734 312.825C60.1179 313.372 59.8171 313.956 59.5072 314.521C58.8784 315.652 58.3133 316.765 57.8667 317.786C56.8761 320.027 56.0713 322.345 55.4605 324.718C55.4058 321.681 55.3602 318.644 55.3876 315.598C55.898 315.506 56.7183 314.585 57.6662 313.117C58.8645 311.312 59.9629 309.443 60.9564 307.517C61.2025 307.043 61.4486 306.523 61.7038 305.985L62.5696 304.271C63.1621 303.094 63.7454 301.854 64.2922 300.623C64.8391 299.391 65.4315 298.251 65.9419 297.221L67.2362 294.603C67.382 294.293 67.1268 293.965 66.908 294.184C65.9237 295.096 64.3014 296.756 62.6152 298.653C61.0246 300.539 59.5861 302.549 58.3133 304.663C57.9758 305.235 57.6715 305.825 57.4018 306.432C57.1375 307.025 56.8823 307.599 56.6454 308.165C56.1714 309.305 55.7339 310.381 55.4787 311.348C55.6337 308.32 55.6701 305.283 56.0894 302.273C57.1649 302.182 59.5984 298.972 62.515 294.886C64.8482 291.302 68.5213 285.237 70.171 282.674C70.3532 282.383 70.171 282.027 69.8884 282.218C68.8038 283.076 67.0265 284.526 65.1399 286.249C63.3423 287.987 61.6759 289.856 60.1544 291.84C58.7733 293.843 57.5541 295.954 56.5086 298.151L57.2834 293.673L57.6662 291.43L58.1766 289.213C58.6961 289.213 59.6986 288.511 60.9108 287.307C62.123 286.104 63.8001 284.435 65.3768 282.538Z" fill="#EA580C"/>
<path d="M89.1742 317.203C92.027 315.981 96.1466 313.555 97.9148 312.524C98.1153 312.406 97.9695 312.086 97.7234 312.114C96.6479 312.205 94.8889 312.424 93.0022 312.78C91.1954 313.103 89.4226 313.595 87.7068 314.248C86.1409 314.87 84.654 315.675 83.2773 316.646C84.2799 314.977 85.328 313.354 86.3852 311.731C87.2967 312.196 90.3682 311.539 93.7496 310.408C95.2079 309.916 96.976 309.095 98.6257 308.365C100.275 307.636 101.752 306.979 102.645 306.541C102.846 306.459 102.727 306.14 102.49 306.131C100.927 306.085 99.3619 306.139 97.8054 306.295C95.9933 306.456 94.2031 306.808 92.4645 307.344C90.8671 307.862 89.3372 308.57 87.9073 309.451C88.7276 308.292 89.5297 307.125 90.3864 305.985C91.4346 305.83 93.5582 303.778 95.773 301.142C96.2651 300.55 96.8029 299.866 97.3315 299.109L98.9903 296.829C99.9063 295.533 100.895 294.291 101.952 293.108C102.117 292.916 101.952 292.606 101.679 292.716C100.173 293.398 98.7412 294.232 97.4044 295.205C96.5933 295.771 95.8185 296.427 95.0803 297.029C94.4153 297.628 93.7882 298.268 93.2027 298.944C91.0427 301.498 89.8122 304.079 89.7666 305.265C88.8552 306.423 88.0714 307.618 87.2238 308.803C87.5317 307.165 87.7236 305.507 87.798 303.842C87.88 302.219 87.798 300.112 87.7342 298.069C87.6704 296.026 87.5975 294.074 87.5975 292.871C87.5949 292.812 87.5715 292.756 87.5315 292.713C87.4915 292.67 87.4375 292.643 87.3793 292.637C87.321 292.63 87.2624 292.645 87.2138 292.677C87.1652 292.71 87.13 292.759 87.1144 292.816C86.4637 294.466 85.9098 296.153 85.4556 297.868C84.9306 299.748 84.5948 301.676 84.453 303.623C84.2616 307.353 84.8905 310.417 85.6379 311.156C84.5988 312.761 83.5598 314.357 82.5755 315.999C82.7762 314.347 82.8615 312.683 82.8307 311.019C82.7851 309.405 82.5846 307.326 82.3203 305.319C82.056 303.313 81.8281 301.407 81.6823 300.249C81.6713 300.193 81.6413 300.142 81.5972 300.106C81.5531 300.069 81.4978 300.05 81.4408 300.05C81.3837 300.05 81.3284 300.069 81.2843 300.106C81.2402 300.142 81.2102 300.193 81.1992 300.249C80.5521 302.556 79.3764 307.764 79.4857 311.019C79.5586 314.74 80.3151 317.75 81.1172 318.452C80.142 320.094 79.2123 321.763 78.2918 323.441C78.4209 321.783 78.4209 320.119 78.2918 318.461C78.0639 315.269 76.9246 310.135 76.4689 307.846C76.4544 307.794 76.4234 307.748 76.3806 307.716C76.3379 307.683 76.2856 307.666 76.2319 307.666C76.1782 307.666 76.126 307.683 76.0832 307.716C76.0404 307.748 76.0094 307.794 75.995 307.846C75.2191 311.379 74.8611 314.991 74.9286 318.607C75.1838 322.301 76.0861 325.274 76.9246 325.903C76.0132 327.59 75.1747 329.305 74.3179 331.01C74.3873 329.348 74.3172 327.682 74.1083 326.031C73.5268 322.498 72.7509 319 71.7842 315.552C71.7697 315.5 71.7387 315.455 71.6959 315.422C71.6531 315.39 71.6009 315.372 71.5472 315.372C71.4935 315.372 71.4413 315.39 71.3985 315.422C71.3557 315.455 71.3247 315.5 71.3102 315.552C71.1462 316.701 70.9092 318.589 70.7634 320.586C70.6028 322.489 70.6028 324.402 70.7634 326.304C71.1826 329.952 72.2217 332.916 73.0784 333.537C72.2399 335.26 71.4925 337.02 70.7178 338.762C70.7032 337.099 70.5538 335.44 70.2712 333.801C69.9312 331.929 69.4869 330.078 68.9405 328.256C68.4028 326.341 67.8377 324.535 67.4822 323.432C67.4674 323.378 67.434 323.331 67.388 323.299C67.342 323.267 67.2862 323.253 67.2306 323.259C67.175 323.264 67.1231 323.289 67.0841 323.329C67.0451 323.369 67.0215 323.422 67.0174 323.477C66.7895 325.776 66.4159 331.038 66.9627 334.257C67.5369 337.905 68.7856 340.824 69.6332 341.389C68.9223 343.158 68.2296 344.946 67.6007 346.752C67.4608 345.089 67.2081 343.437 66.8442 341.808C66.4003 339.957 65.8588 338.131 65.2219 336.336C64.593 334.44 63.955 332.688 63.554 331.548C63.5382 331.493 63.5025 331.445 63.4538 331.413C63.405 331.382 63.3465 331.37 63.2892 331.379C63.232 331.388 63.1801 331.417 63.1432 331.462C63.1063 331.507 63.0871 331.564 63.0891 331.621C62.9433 333.965 62.8248 339.282 63.5631 342.474C64.356 346.122 65.7414 348.931 66.6802 349.442C66.0695 351.266 65.5318 353.09 65.0305 354.914C64.7751 353.324 64.4189 351.752 63.9641 350.208C63.0527 347.125 60.9291 342.264 60.0632 340.103C60.0499 340.041 60.0127 339.987 59.9597 339.953C59.9067 339.919 59.8423 339.907 59.7806 339.921C59.719 339.934 59.6652 339.971 59.631 340.024C59.5968 340.077 59.5851 340.142 59.5984 340.203C59.5984 342.556 59.7806 347.946 60.7376 351.147C61.7949 354.795 63.4081 357.468 64.3834 357.887C63.9428 359.756 63.5991 361.646 63.3535 363.551C63.3485 363.609 63.3551 363.668 63.3731 363.725C63.391 363.781 63.4199 363.833 63.458 363.878C63.4961 363.923 63.5427 363.96 63.5952 363.986C63.6476 364.013 63.7049 364.029 63.7636 364.034C63.8804 364.047 63.9977 364.015 64.0912 363.943C64.1846 363.872 64.2468 363.767 64.2649 363.651C64.4995 361.782 64.8373 359.928 65.2766 358.097C66.2883 358.197 68.9223 356.565 71.7386 354.449C74.1356 352.561 77.435 349.159 78.9206 347.718C79.0938 347.554 78.866 347.28 78.6381 347.363C75.4154 348.528 72.353 350.097 69.5238 352.032C68.1643 353.036 66.939 354.209 65.8781 355.525C66.3885 353.655 66.9262 351.795 67.5369 349.953C68.5486 350.144 71.3376 348.74 74.2997 346.761C76.9618 344.772 79.5145 342.641 81.9466 340.377C82.1198 340.222 81.9466 339.93 81.6823 340.003C80.6433 340.34 78.948 340.915 77.1251 341.653C75.423 342.34 73.7851 343.176 72.2308 344.152C70.8226 345.072 69.5284 346.156 68.3754 347.381C69.0134 345.557 69.7152 343.733 70.4352 341.909C71.4469 342.173 74.2997 340.951 77.3986 339.127C80.1918 337.279 82.8702 335.263 85.4191 333.09C85.6014 332.935 85.4191 332.634 85.1639 332.707C84.1158 332.999 82.4297 333.518 80.6068 334.166C78.8973 334.756 77.239 335.485 75.6486 336.346C74.1948 337.196 72.8379 338.202 71.6019 339.346C72.3857 337.577 73.1422 335.789 73.9898 334.047C74.9742 334.357 77.8999 333.309 81.099 331.603C82.6712 330.71 84.1926 329.729 85.6561 328.667C87.1873 327.59 88.5727 326.551 89.4112 325.931C89.6026 325.794 89.4112 325.484 89.1833 325.538C85.7747 326.246 82.4572 327.339 79.2943 328.794C77.8006 329.578 76.3951 330.52 75.1018 331.603C76.0132 329.87 76.8244 328.128 77.7449 326.414C78.6563 326.779 81.6914 325.848 84.9452 324.289C87.8782 322.699 90.723 320.952 93.467 319.054C93.6676 318.917 93.467 318.607 93.2574 318.644C89.8519 319.157 86.5199 320.076 83.332 321.38C81.7987 322.088 80.3497 322.966 79.0118 323.997C79.9232 322.292 80.8984 320.595 81.8828 318.926C82.8307 319.364 85.8657 318.58 89.1742 317.203Z" fill="#EA580C"/>
<path d="M49.7276 416.282H62.3782C72.4039 411.887 79.75 397.331 79.75 380.03C79.7953 373.27 78.587 366.56 76.1863 360.24H35.9194C33.5187 366.56 32.3104 373.27 32.3557 380.03C32.3557 397.331 39.711 411.887 49.7276 416.282Z" fill="#714128"/>
<path d="M556.218 320.75C556.034 319.925 555.772 319.118 555.434 318.343C555.083 317.46 554.682 316.598 554.231 315.762C553.433 314.324 552.518 312.955 551.496 311.667C551.464 311.62 551.415 311.587 551.36 311.573C551.305 311.559 551.247 311.566 551.196 311.591C551.146 311.616 551.106 311.659 551.084 311.712C551.062 311.764 551.059 311.823 551.077 311.877C551.214 312.424 551.396 313.153 551.597 313.974C551.797 314.795 551.961 315.734 552.153 316.71C552.544 318.534 552.809 320.541 553.155 321.945L553.748 324.38C553.948 325.119 554.149 325.766 554.349 326.305L552.526 324.672C551.925 324.125 551.268 323.66 550.64 323.14C550.972 322.3 551.064 321.384 550.904 320.495C550.72 318.965 550.327 317.468 549.737 316.045C549.394 315.259 548.998 314.497 548.552 313.765C547.117 311.541 545.367 309.538 543.357 307.818C543.315 307.784 543.262 307.765 543.208 307.764C543.154 307.763 543.101 307.78 543.057 307.812C543.013 307.844 542.982 307.89 542.967 307.943C542.952 307.995 542.954 308.05 542.974 308.101C543.23 308.63 543.567 309.305 543.886 310.089C544.205 310.873 544.588 311.749 544.961 312.652L546.894 317.668C547.24 318.507 547.577 319.282 547.905 319.966C548.178 320.589 548.482 321.198 548.817 321.79L547.349 320.787L545.809 319.875C545.732 319.561 545.582 319.271 545.371 319.027C545.054 318.669 544.703 318.342 544.323 318.051C543.253 317.236 542.059 316.599 540.787 316.163C539.277 315.669 537.7 315.414 536.111 315.406C534.742 315.378 533.375 315.512 532.037 315.807C531.828 315.862 531.855 316.227 532.037 316.282C533.278 316.66 534.495 317.111 535.683 317.631C537.087 318.206 538.518 318.917 539.666 319.319C542.063 320.231 544.223 320.76 545.262 320.586L546.784 321.498C547.285 321.808 547.759 322.155 548.252 322.483C547.619 322.411 546.983 322.386 546.347 322.41C545.585 322.469 544.827 322.572 544.077 322.72C543.337 322.878 542.613 323.107 541.917 323.404C541.145 323.712 540.396 324.075 539.675 324.49C538.955 324.909 538.29 325.338 537.715 325.739C537.141 326.14 536.667 326.56 536.321 326.861C536.157 326.998 536.157 327.326 536.321 327.28C537.023 327.071 538.208 326.806 539.584 326.542L541.708 326.168C542.409 326.067 543.111 325.949 543.749 325.803C545.189 325.484 546.565 325.21 547.732 324.891C548.588 324.718 549.401 324.374 550.12 323.879C550.722 324.371 551.36 324.791 551.943 325.347L553.675 326.916C553.051 326.757 552.418 326.639 551.779 326.56C551.024 326.457 550.261 326.43 549.5 326.478C547.899 326.576 546.319 326.899 544.806 327.435C544.013 327.709 543.275 327.992 542.619 328.284C541.963 328.575 541.407 328.876 540.988 329.104C540.796 329.205 540.741 329.524 540.915 329.515C541.68 329.442 542.929 329.46 544.369 329.442C545.089 329.442 545.818 329.487 546.556 329.487H548.68C550.138 329.487 551.615 329.323 552.781 329.205C553.658 329.168 554.517 328.95 555.306 328.566C556.396 329.683 557.427 330.855 558.396 332.077C557.092 331.538 555.716 331.191 554.313 331.047C552.703 330.918 551.084 330.988 549.491 331.257C548.11 331.489 546.745 331.815 545.408 332.233C545.198 332.305 545.098 332.616 545.271 332.634L548.771 333.19C550.166 333.5 551.806 333.728 553.082 333.92C554.461 334.096 555.849 334.19 557.238 334.202C558.11 334.291 558.99 334.188 559.818 333.901L561.212 335.789L562.506 337.741C561.258 337.063 559.92 336.565 558.533 336.264C556.941 335.912 555.312 335.762 553.684 335.817C552.268 335.845 550.856 335.961 549.455 336.163C549.236 336.163 549.099 336.492 549.272 336.546C550.02 336.802 551.287 337.212 552.736 337.65C554.14 338.179 555.573 338.627 557.029 338.99C558.378 339.333 559.748 339.589 561.13 339.757C561.993 339.922 562.881 339.903 563.737 339.702L564.931 341.726L565.997 343.733C564.828 342.932 563.551 342.299 562.206 341.854C560.648 341.364 559.04 341.058 557.411 340.942C555.985 340.802 554.552 340.744 553.119 340.769C552.891 340.769 552.718 341.061 552.9 341.143C553.684 341.471 554.878 342.055 556.29 342.693C557.637 343.342 559.015 343.924 560.419 344.435C561.723 344.912 563.057 345.305 564.411 345.612C565.25 345.875 566.136 345.956 567.009 345.849C567.683 347.253 568.257 348.712 568.832 350.162C567.753 349.246 566.557 348.477 565.277 347.873C563.785 347.219 562.222 346.739 560.62 346.441C559.218 346.155 557.799 345.957 556.372 345.849C556.145 345.849 555.944 346.095 556.108 346.195C556.856 346.597 557.977 347.308 559.307 348.019C560.638 348.731 562.042 349.597 563.199 350.181C565.933 351.448 568.522 352.488 569.579 352.315L570.253 354.549L570.837 356.82C569.893 355.756 568.8 354.835 567.592 354.084C566.192 353.265 564.703 352.611 563.153 352.132C561.793 351.713 560.412 351.366 559.016 351.093C558.797 351.093 558.569 351.293 558.715 351.403C559.335 351.895 560.538 352.689 561.64 353.582C562.743 354.476 564.11 355.406 565.286 356.136C567.82 357.714 570.281 359.064 571.329 359.045C571.622 360.565 571.808 362.105 571.885 363.651C571.885 363.842 572.095 363.988 572.35 363.988C572.404 363.995 572.459 363.99 572.511 363.974C572.563 363.959 572.612 363.933 572.653 363.898C572.695 363.863 572.729 363.819 572.754 363.771C572.779 363.722 572.793 363.669 572.796 363.614C572.714 362.029 572.525 360.451 572.231 358.89C573.216 358.617 575.093 356.355 576.351 353.099C576.942 351.443 577.334 349.722 577.518 347.974C577.706 346.421 577.803 344.859 577.809 343.295C577.804 343.242 577.781 343.193 577.744 343.155C577.707 343.117 577.659 343.092 577.606 343.085C577.554 343.077 577.501 343.088 577.455 343.114C577.409 343.141 577.373 343.182 577.354 343.231L575.367 347.591C574.546 349.305 573.744 351.038 573.197 352.397C572.638 353.792 572.166 355.22 571.785 356.674C571.593 355.89 571.384 355.105 571.183 354.321L570.481 351.996C571.215 351.49 571.8 350.797 572.177 349.989C572.906 348.655 573.46 347.233 573.826 345.757C574.219 344.056 574.414 342.315 574.41 340.568C574.41 339.024 574.331 337.48 574.173 335.944C574.173 335.698 573.781 335.698 573.708 335.944C573.398 336.975 572.796 338.68 572.213 340.504C571.63 342.328 570.955 344.152 570.627 345.502C570.216 346.949 569.911 348.424 569.716 349.916C569.132 348.411 568.54 346.897 567.838 345.438C568.516 344.845 569.025 344.084 569.315 343.231C569.861 341.822 570.249 340.357 570.472 338.863C570.656 337.141 570.656 335.404 570.472 333.683C570.318 332.152 570.087 330.63 569.78 329.123C569.725 328.885 569.369 328.922 569.315 329.168C569.114 330.217 568.686 331.995 568.285 333.801C567.884 335.607 567.428 337.495 567.228 338.927C567 340.409 566.869 341.905 566.836 343.405L565.715 341.252L564.484 339.164C565.096 338.508 565.518 337.697 565.705 336.82C566.109 335.365 566.348 333.869 566.416 332.36C566.425 330.631 566.264 328.905 565.933 327.207C565.523 325.383 565.022 323.724 564.685 322.647C564.612 322.41 564.247 322.483 564.229 322.729C564.12 323.833 563.937 325.639 563.746 327.527C563.555 329.414 563.254 331.311 563.217 332.734C563.144 334.233 563.169 335.735 563.29 337.23L561.95 335.206L560.529 333.3C561.072 332.578 561.415 331.725 561.522 330.828C561.768 329.321 561.836 327.791 561.723 326.268C561.531 324.507 561.133 322.774 560.538 321.106C559.98 319.604 559.341 318.133 558.624 316.701C558.593 316.658 558.549 316.625 558.498 316.609C558.447 316.593 558.393 316.593 558.342 316.611C558.292 316.628 558.248 316.662 558.219 316.706C558.189 316.75 558.174 316.803 558.177 316.856C558.268 317.978 558.332 319.838 558.405 321.708C558.478 323.578 558.405 325.584 558.578 326.998C558.678 328.504 558.869 330.002 559.152 331.485C558.113 330.235 557.102 328.977 555.944 327.837C556.39 327.054 556.62 326.166 556.609 325.265C556.677 323.749 556.545 322.232 556.218 320.75Z" fill="#EA580C"/>
<path d="M590.888 282.538C592.228 280.878 594.024 278.616 595.619 276.455C597.214 274.293 598.799 272.314 599.738 271.074C599.966 270.8 599.793 270.435 599.519 270.6C598.325 271.338 596.448 272.642 594.415 274.175C592.464 275.697 590.635 277.371 588.947 279.181C587.359 281.026 585.932 283.003 584.681 285.091L585.921 280.714L586.55 278.525L587.279 276.372C588.318 276.5 591.453 273.892 595.081 270.426C598.198 267.389 602.828 262.018 605.015 259.829C605.252 259.573 605.106 259.19 604.824 259.336C602.97 260.273 601.166 261.305 599.419 262.428C598.362 263.112 597.241 263.832 596.238 264.599C595.236 265.365 594.279 266.158 593.504 266.906C592.534 267.787 591.621 268.728 590.77 269.724C589.959 270.636 589.248 271.548 588.655 272.369C589.475 270.308 590.196 268.201 591.098 266.167C592.089 265.208 592.904 264.081 593.504 262.838C594.561 261.151 595.664 258.908 596.922 256.454C597.469 255.378 598.025 254.111 598.644 252.806L599.556 250.782L600.467 248.748C601.68 246.058 602.855 243.531 603.63 242.027C603.812 241.689 603.511 241.47 603.247 241.762C601.555 243.626 599.97 245.583 598.499 247.626L597.177 249.45L595.947 251.356C595.197 252.518 594.512 253.721 593.896 254.959C592.855 257.019 591.965 259.153 591.235 261.343C590.761 262.687 590.47 264.089 590.369 265.511L589.703 267.07L589.093 268.657L587.862 271.84C587.963 270.846 588.035 269.724 588.063 268.502C588.09 267.28 588.063 265.957 588.117 264.608C588.117 263.468 588.054 262.191 587.963 260.841C587.871 259.491 587.789 258.105 587.698 256.783C587.47 254.047 587.325 251.575 587.206 250.025C587.206 249.669 586.759 249.806 586.668 250.207L585.903 253.481C585.657 254.785 585.392 256.217 585.146 257.713C584.9 259.209 584.754 260.732 584.608 262.173C584.466 263.484 584.408 264.803 584.435 266.122C584.508 271.411 585.538 275.415 586.422 276.035L585.702 278.16C585.483 278.88 585.292 279.601 585.082 280.321L583.852 284.635C583.841 282.218 583.689 279.803 583.396 277.403C583.232 275.16 582.704 272.314 582.266 269.651C581.829 266.988 581.4 264.471 581.154 262.957C581.099 262.62 580.689 262.793 580.626 263.185C580.398 264.954 579.997 267.809 579.823 270.818C579.619 273.637 579.646 276.468 579.906 279.282C580.118 281.53 580.567 283.749 581.245 285.903C581.801 287.599 582.385 288.694 582.859 288.967L582.348 291.147L581.965 293.363L581.2 297.786C580.935 295.381 580.527 292.993 579.978 290.636C579.577 288.411 578.812 285.638 578.064 283.003C577.317 280.367 576.743 277.95 576.333 276.445C576.242 276.099 575.859 276.318 575.841 276.719C575.631 280.285 575.585 288.329 576.752 292.88C577.818 298.069 579.751 301.79 580.726 302.2C580.306 305.164 580.261 308.165 580.106 311.156C579.887 310.18 579.596 309.095 579.24 307.919C579.067 307.326 578.876 306.724 578.666 306.095C578.456 305.465 578.238 304.836 578.055 304.189C577.408 302.018 576.305 299.337 575.321 296.792C574.337 294.248 573.498 291.876 572.915 290.408C572.787 290.071 572.423 290.326 572.45 290.736C572.514 291.648 572.605 292.807 572.696 294.138C572.787 295.47 572.915 296.938 573.188 298.452C573.462 299.966 573.708 301.498 574.009 302.921C574.154 303.632 574.3 304.325 574.473 304.973C574.647 305.62 574.865 306.231 575.066 306.797C575.798 308.933 576.712 311.002 577.8 312.98C578.712 314.485 579.523 315.433 580.042 315.589C580.042 318.571 580.042 321.562 580.106 324.544C579.405 322.247 578.568 319.993 577.6 317.796C577.162 316.765 576.597 315.625 575.986 314.458L575.075 312.688L574.164 310.864L570.983 304.763C570.819 304.444 570.49 304.763 570.572 305.155C570.901 306.979 571.484 309.843 572.177 312.77C572.902 315.419 573.791 318.02 574.838 320.559C576.907 325.301 579.213 328.685 580.307 328.968C580.398 331.95 580.516 334.923 580.671 337.905C579.893 335.636 578.98 333.416 577.937 331.257C575.727 327.026 573.293 322.916 570.645 318.945C570.454 318.662 570.153 318.945 570.244 319.337C571.083 322.638 573.252 330.035 575.221 334.111C577.454 338.781 579.86 342.082 580.917 342.319C581.109 345.301 581.318 348.275 581.573 351.248C580.724 349.007 579.744 346.817 578.639 344.69C576.29 340.539 573.719 336.517 570.937 332.643C570.746 332.36 570.445 332.643 570.554 333.044C571.511 336.3 573.899 343.623 576.023 347.636C578.402 352.196 580.917 355.452 581.984 355.662C582.275 358.626 582.594 361.59 582.977 364.545C583.023 364.919 583.269 365.192 583.515 365.156C583.761 365.119 583.925 364.8 583.879 364.426C583.497 361.489 583.178 358.535 582.895 355.589C583.888 355.288 585.748 351.622 587.452 346.779C588.91 342.593 590.515 335.37 591.244 332.232C591.326 331.868 591.007 331.594 590.834 331.868C589.302 334.312 585.93 340.076 584.454 344.289C583.605 346.589 582.953 348.956 582.503 351.366C582.239 348.338 582.02 345.311 581.829 342.246C582.84 341.982 584.818 338.37 586.687 333.591C588.291 329.46 590.114 322.301 590.961 319.191C591.052 318.835 590.742 318.543 590.56 318.817C588.956 321.197 585.374 326.852 583.761 331.01C582.846 333.285 582.118 335.631 581.583 338.024C581.431 334.984 581.306 331.944 581.209 328.904C582.221 328.676 584.317 325.128 586.358 320.422C587.215 318.388 588.181 315.598 589.02 312.935C589.858 310.272 590.779 308.074 591.262 306.651C591.371 306.332 591.07 306.04 590.879 306.277C590.022 307.326 588.628 309.104 587.188 311.184C586.832 311.703 586.468 312.232 586.121 312.78C585.775 313.327 585.456 313.91 585.146 314.476C584.526 315.607 583.961 316.719 583.506 317.741C582.523 319.984 581.718 322.302 581.099 324.672C581.045 321.635 581.008 318.598 581.036 315.552C581.546 315.461 582.357 314.54 583.305 313.071C584.51 311.269 585.612 309.399 586.604 307.472C586.851 306.997 587.097 306.478 587.352 305.94L588.218 304.225C588.801 303.048 589.384 301.808 589.931 300.577C590.478 299.346 591.08 298.206 591.59 297.175L592.875 294.558C593.03 294.248 592.775 293.919 592.547 294.138C591.563 295.05 589.949 296.71 588.263 298.607C586.67 300.491 585.231 302.501 583.961 304.617C583.624 305.189 583.32 305.78 583.05 306.386C582.777 306.979 582.521 307.554 582.293 308.119C581.819 309.259 581.428 310.335 581.118 311.302C581.282 308.274 581.318 305.237 581.737 302.228C582.804 302.137 585.246 298.926 588.117 294.84C590.46 291.256 594.124 285.192 595.783 282.629C595.965 282.337 595.783 281.981 595.5 282.173C594.415 283.03 592.629 284.48 590.751 286.204C588.966 287.919 587.309 289.763 585.793 291.721C584.413 293.725 583.194 295.835 582.148 298.032L582.922 293.555L583.314 291.311L583.825 289.095C584.344 289.095 585.338 288.393 586.559 287.189C587.78 285.985 589.257 284.435 590.888 282.538Z" fill="#EA580C"/>
<path d="M614.686 317.203C617.538 315.981 621.649 313.555 623.417 312.524C623.627 312.406 623.481 312.086 623.235 312.114C622.159 312.205 620.391 312.424 618.504 312.78C616.701 313.103 614.931 313.595 613.218 314.248C611.668 314.873 610.197 315.678 608.834 316.646C609.828 314.977 610.885 313.354 611.942 311.731C612.854 312.196 615.925 311.539 619.306 310.408C620.756 309.916 622.533 309.095 624.174 308.365C625.814 307.636 627.309 306.979 628.193 306.541C628.403 306.459 628.275 306.14 628.038 306.131C626.478 306.085 624.916 306.139 623.362 306.295C621.526 306.452 619.711 306.803 617.948 307.344C616.352 307.864 614.822 308.571 613.391 309.451C614.212 308.292 615.023 307.125 615.87 305.985C616.928 305.83 619.042 303.778 621.266 301.142C621.758 300.55 622.296 299.866 622.825 299.109L624.474 296.829C625.393 295.535 626.382 294.293 627.436 293.108C627.471 293.067 627.491 293.016 627.493 292.962C627.496 292.909 627.481 292.856 627.451 292.812C627.422 292.768 627.378 292.735 627.328 292.717C627.278 292.7 627.223 292.699 627.172 292.716C625.663 293.398 624.228 294.232 622.888 295.205C622.077 295.771 621.312 296.427 620.573 297.029C619.908 297.628 619.281 298.268 618.696 298.944C616.536 301.498 615.296 304.079 615.251 305.265C614.339 306.423 613.555 307.618 612.717 308.803C613.025 307.165 613.217 305.507 613.291 303.842C613.364 302.219 613.291 300.112 613.218 298.069C613.145 296.026 613.091 294.074 613.091 292.871C613.088 292.812 613.065 292.756 613.025 292.713C612.985 292.67 612.931 292.643 612.872 292.637C612.814 292.63 612.755 292.645 612.707 292.677C612.658 292.71 612.623 292.759 612.608 292.816C611.957 294.466 611.403 296.153 610.949 297.868C610.417 299.747 610.078 301.675 609.937 303.623C609.755 307.353 610.384 310.417 611.131 311.156C610.092 312.761 609.044 314.357 608.069 315.999C608.269 314.347 608.355 312.683 608.324 311.019C608.278 309.405 608.078 307.326 607.813 305.319C607.549 303.313 607.312 301.407 607.166 300.249C607.166 300.186 607.141 300.125 607.097 300.081C607.052 300.037 606.992 300.012 606.929 300.012C606.866 300.012 606.806 300.037 606.762 300.081C606.717 300.125 606.692 300.186 606.692 300.249C606.036 302.556 604.869 307.764 604.97 311.019C605.043 314.74 605.799 317.75 606.61 318.452C605.635 320.094 604.705 321.763 603.785 323.441C603.914 321.783 603.914 320.119 603.785 318.461C603.548 315.269 602.418 310.135 601.962 307.846C601.948 307.794 601.917 307.748 601.874 307.716C601.831 307.683 601.779 307.666 601.725 307.666C601.671 307.666 601.619 307.683 601.576 307.716C601.534 307.748 601.503 307.794 601.488 307.846C600.713 311.379 600.352 314.99 600.413 318.607C600.677 322.301 601.579 325.274 602.409 325.903C601.497 327.59 600.668 329.305 599.811 331.01C599.877 329.347 599.804 327.682 599.592 326.031C599.009 322.499 598.236 319.001 597.277 315.552C597.263 315.5 597.232 315.455 597.189 315.422C597.146 315.39 597.094 315.372 597.04 315.372C596.987 315.372 596.934 315.39 596.892 315.422C596.849 315.455 596.818 315.5 596.803 315.552C596.63 316.701 596.393 318.589 596.247 320.586C596.082 322.489 596.082 324.402 596.247 326.304C596.667 329.952 597.697 332.916 598.562 333.537C597.724 335.26 596.977 337.02 596.202 338.762C596.184 337.099 596.031 335.44 595.746 333.801C595.41 331.929 594.966 330.077 594.415 328.256C593.878 326.341 593.313 324.535 592.966 323.432C592.951 323.378 592.918 323.331 592.872 323.299C592.826 323.267 592.77 323.253 592.715 323.259C592.659 323.264 592.607 323.289 592.568 323.329C592.529 323.369 592.505 323.422 592.501 323.477C592.264 325.776 591.891 331.038 592.438 334.257C593.012 337.905 594.26 340.824 595.117 341.389C594.406 343.158 593.704 344.946 593.076 346.752C592.944 345.088 592.694 343.436 592.328 341.808C591.881 339.957 591.336 338.131 590.697 336.336C590.077 334.44 589.43 332.688 589.038 331.548C589.017 331.497 588.98 331.454 588.932 331.426C588.883 331.398 588.827 331.388 588.772 331.396C588.717 331.405 588.667 331.432 588.629 331.473C588.591 331.513 588.568 331.566 588.564 331.621C588.427 333.965 588.309 339.282 589.047 342.474C589.84 346.122 591.225 348.931 592.155 349.442C591.544 351.266 591.016 353.09 590.505 354.914C590.246 353.265 589.877 351.635 589.403 350.035C588.491 346.952 586.367 342.091 585.493 339.93C585.468 339.881 585.428 339.843 585.379 339.819C585.33 339.796 585.275 339.79 585.222 339.801C585.169 339.813 585.121 339.841 585.086 339.883C585.051 339.924 585.03 339.976 585.028 340.03C584.982 342.383 585.21 347.773 586.167 350.974C587.224 354.622 588.837 357.294 589.813 357.714C589.363 359.581 589.02 361.472 588.783 363.377C588.769 363.498 588.805 363.619 588.881 363.714C588.957 363.809 589.067 363.87 589.188 363.883C589.309 363.897 589.43 363.861 589.525 363.785C589.62 363.709 589.681 363.599 589.694 363.478C589.933 361.61 590.271 359.756 590.706 357.924C591.727 358.024 594.352 356.391 597.177 354.276C599.565 352.388 602.864 348.986 604.359 347.545C604.523 347.381 604.304 347.107 604.067 347.189C600.846 348.359 597.784 349.927 594.953 351.859C593.596 352.865 592.371 354.038 591.307 355.352C591.818 353.482 592.356 351.622 592.975 349.779C593.978 349.971 596.767 348.566 599.738 346.587C602.398 344.597 604.951 342.466 607.385 340.203C607.558 340.048 607.385 339.756 607.112 339.829C606.082 340.167 604.377 340.741 602.554 341.48C600.851 342.165 599.213 343.001 597.66 343.979C596.25 344.897 594.956 345.981 593.805 347.208C594.443 345.384 595.145 343.56 595.865 341.736C596.876 342 599.729 340.778 602.828 338.954C605.618 337.106 608.294 335.09 610.839 332.916C611.031 332.761 610.839 332.46 610.593 332.533C609.545 332.825 607.813 333.345 605.991 333.993C604.251 334.599 602.565 335.349 600.95 336.236C599.496 337.089 598.136 338.095 596.894 339.237C597.678 337.467 598.444 335.68 599.292 333.938C600.276 334.248 603.202 333.199 606.392 331.494C607.966 330.604 609.488 329.624 610.949 328.557C612.48 327.481 613.865 326.441 614.704 325.821C614.904 325.684 614.704 325.374 614.476 325.429C611.098 326.149 607.811 327.247 604.678 328.703C603.233 329.527 601.876 330.499 600.631 331.603C601.543 329.87 602.363 328.128 603.284 326.414C604.241 326.779 607.23 325.848 610.475 324.289C613.409 322.697 616.257 320.95 619.006 319.054C619.197 318.917 619.006 318.607 618.787 318.644C615.384 319.157 612.055 320.076 608.871 321.38C607.336 322.086 605.887 322.964 604.55 323.997C605.462 322.292 606.428 320.595 607.421 318.926C608.342 319.364 611.377 318.58 614.686 317.203Z" fill="#EA580C"/>
<path d="M575.23 416.282H587.871C597.897 411.887 605.243 397.331 605.243 380.03C605.29 373.271 604.088 366.562 601.698 360.24H561.44C559.034 366.574 557.825 373.3 557.876 380.076C557.867 397.331 565.222 411.887 575.23 416.282Z" fill="#714128"/>
<path d="M325.38 107.89C343.149 107.89 357.553 93.476 357.553 75.696C357.553 57.916 343.149 43.5024 325.38 43.5024C307.611 43.5024 293.207 57.916 293.207 75.696C293.207 93.476 307.611 107.89 325.38 107.89Z" fill="#714128" stroke="#714128" stroke-miterlimit="10"/>
<path d="M325.38 104.242C341.135 104.242 353.908 91.4613 353.908 75.696C353.908 59.9307 341.135 47.1504 325.38 47.1504C309.625 47.1504 296.852 59.9307 296.852 75.696C296.852 91.4613 309.625 104.242 325.38 104.242Z" fill="white" stroke="#714128" stroke-miterlimit="10"/>
<path d="M325.38 78.7056C327.041 78.7056 328.388 77.3582 328.388 75.696C328.388 74.0338 327.041 72.6864 325.38 72.6864C323.719 72.6864 322.372 74.0338 322.372 75.696C322.372 77.3582 323.719 78.7056 325.38 78.7056Z" fill="#714128" stroke="#714128" stroke-miterlimit="10"/>
<path d="M339.416 75.696H325.38L334.658 53.5253" stroke="#714128" stroke-miterlimit="10" stroke-linecap="round"/>
<path d="M15.4944 416.282H619.772" stroke="#714128" stroke-miterlimit="10" stroke-linecap="round"/>
<path d="M590.515 307.8L587.17 329.998L591.426 413.592" stroke="#714128" stroke-width="4" stroke-miterlimit="10" stroke-linecap="round"/>
<path d="M549.218 307.8L545.882 329.998L550.129 413.592" stroke="#714128" stroke-width="4" stroke-miterlimit="10" stroke-linecap="round"/>
<path d="M533.095 329.086L529.139 414.504" stroke="#714128" stroke-width="4" stroke-miterlimit="10" stroke-linecap="round"/>
<path d="M496.638 329.086L492.682 414.504" stroke="#714128" stroke-width="4" stroke-miterlimit="10" stroke-linecap="round"/>
<path d="M548.625 313.126H589.64C590.726 313.101 591.767 312.688 592.576 311.962C593.385 311.237 593.908 310.246 594.051 309.168L599.428 262.355C599.501 261.858 599.465 261.351 599.322 260.87C599.179 260.389 598.933 259.945 598.6 259.568C598.268 259.192 597.857 258.893 597.397 258.693C596.937 258.492 596.439 258.394 595.937 258.406H554.923C553.84 258.433 552.802 258.846 551.995 259.569C551.189 260.293 550.666 261.281 550.521 262.355L545.134 309.168C545.06 309.665 545.095 310.173 545.237 310.656C545.38 311.138 545.626 311.584 545.958 311.961C546.291 312.338 546.702 312.638 547.163 312.839C547.624 313.04 548.123 313.138 548.625 313.126Z" fill="#EA580C" stroke="#714128" stroke-miterlimit="10" stroke-linecap="round"/>
<path d="M494.906 331.512H586.96C587.867 331.512 588.736 331.152 589.377 330.51C590.018 329.869 590.378 328.999 590.378 328.092C590.378 327.185 590.018 326.315 589.377 325.674C588.736 325.032 587.867 324.672 586.96 324.672H494.906C493.999 324.672 493.13 325.032 492.489 325.674C491.848 326.315 491.488 327.185 491.488 328.092C491.488 328.999 491.848 329.869 492.489 330.51C493.13 331.152 493.999 331.512 494.906 331.512Z" fill="#EA580C" stroke="#714128" stroke-miterlimit="10" stroke-linecap="round"/>
<path d="M533.833 223.878C533.833 223.878 530.306 226.231 527.726 232.998C525.147 239.765 519.988 276.664 519.988 278.78C519.988 280.896 525.384 282.063 527.498 279.957C529.613 277.85 534.79 260.23 534.79 260.23L536.895 224.781C536.895 224.781 536.175 223.176 533.833 223.878Z" fill="white" stroke="#714128" stroke-miterlimit="10" stroke-linecap="round"/>
<path d="M533.833 223.878C533.833 223.878 530.306 226.231 527.726 232.998C526.952 235.041 525.903 239.792 524.919 245.492L535.255 252.004L536.877 224.781C536.877 224.781 536.175 223.176 533.833 223.878Z" fill="white" stroke="#714128" stroke-miterlimit="10" stroke-linecap="round"/>
<path d="M551.414 218.716C551.414 218.716 540.386 221.297 535.92 222.701C531.454 224.106 532.165 228.812 530.524 235.852C528.884 242.893 526.541 250.882 527.945 254.868C529.349 258.853 533.815 265.903 534.043 266.842C534.27 267.781 527.243 294.074 527.243 294.074C527.243 294.074 483.13 315.443 482.191 319.665C481.253 323.888 474.9 398.38 474.9 398.38C476.167 400.514 485.226 408.056 484.424 405.621C484.196 404.919 488.07 379.073 492.481 367.563C496.893 356.054 500.93 341.736 502.799 334.932C504.667 328.128 505.205 326.496 505.205 326.496L558.469 327.198C558.469 327.198 576.059 329.551 578.174 314.759C580.288 299.966 575.831 294.33 573.954 291.047C572.076 287.763 565.505 265.456 565.505 265.456C565.505 265.456 574.191 247.845 575.358 241.972C576.524 236.099 577.937 229.058 574.893 226.012C571.849 222.966 559.872 219.199 559.872 219.199L551.414 218.716Z" fill="#714128" stroke="#714128" stroke-miterlimit="10" stroke-linecap="round"/>
<path d="M573.115 289.15C570.627 282.811 565.505 265.438 565.505 265.438C565.505 265.438 574.191 247.827 575.358 241.954C576.524 236.08 577.937 229.04 574.893 225.994C571.849 222.948 559.872 219.181 559.872 219.181L551.423 218.716C551.423 218.716 540.395 221.297 535.929 222.701C531.463 224.106 532.174 228.812 530.533 235.852C528.893 242.893 526.55 250.882 527.954 254.868C529.358 258.853 533.824 265.903 534.052 266.842C534.225 267.526 530.588 281.489 528.583 289.15H573.115Z" fill="white" stroke="#714128" stroke-miterlimit="10" stroke-linecap="round"/>
<path d="M474.955 398.38C474.955 398.38 467.271 405.43 466.487 405.749C465.704 406.068 449.334 410.117 450.492 411.312C451.649 412.507 483.358 418.079 483.358 418.079L484.479 405.612L474.955 398.38Z" fill="white" stroke="#714128" stroke-miterlimit="10" stroke-linecap="round"/>
<path d="M565.997 243.367L569.524 272.004L541.835 302.529L532.447 307.463L531.044 311.448C531.044 311.448 540.659 309.341 543.011 307.928C545.145 306.499 547.182 304.93 549.108 303.231L580.288 280.896C580.288 280.896 580.051 238.634 579.814 233.472C579.577 228.31 572.523 224.078 569.725 224.078" fill="white"/>
<path d="M565.997 243.367L569.524 272.004L541.835 302.529L532.447 307.463L531.044 311.448C531.044 311.448 540.659 309.341 543.011 307.928C545.145 306.499 547.182 304.93 549.108 303.231L580.288 280.896C580.288 280.896 580.051 238.634 579.814 233.472C579.577 228.31 572.523 224.078 569.725 224.078" stroke="#714128" stroke-miterlimit="10" stroke-linecap="round"/>
<path d="M569.497 272.004L541.808 302.529L532.42 307.463L531.016 311.448C531.016 311.448 540.632 309.341 542.984 307.928C545.118 306.499 547.155 304.93 549.081 303.231L580.288 280.896C580.288 280.896 580.179 261.899 580.042 247.827L566.991 251.612L569.497 272.004Z" fill="white" stroke="#714128" stroke-miterlimit="10" stroke-linecap="round"/>
<path d="M520.69 272.688C520.69 272.688 519.779 280.203 519.988 282.072C520.198 283.942 530.78 303.915 531.016 305.082C531.253 306.25 537.114 310.016 537.588 310.718C538.062 311.421 544.387 313.071 544.387 313.071C544.387 313.071 546.028 310.253 544.624 307.672C543.221 305.091 534.535 302.501 534.535 302.501L529.604 276.911V273.153" fill="white"/>
<path d="M520.69 272.688C520.69 272.688 519.779 280.203 519.988 282.072C520.198 283.942 530.78 303.915 531.016 305.082C531.253 306.25 537.114 310.016 537.588 310.718C538.062 311.421 544.387 313.071 544.387 313.071C544.387 313.071 546.028 310.253 544.624 307.672C543.221 305.091 534.535 302.501 534.535 302.501L529.604 276.911V273.153" stroke="#714128" stroke-miterlimit="10" stroke-linecap="round"/>
<path d="M569.497 301.589C569.497 301.589 563.627 299.473 553.301 301.124C542.974 302.775 519.049 317.084 519.514 319.437C519.979 321.79 538.053 400.195 538.053 400.195L548.607 406.305C548.607 406.305 546.784 375.781 546.966 359.793C547.149 343.806 546.966 325.748 546.966 325.748C546.966 325.748 563.627 330.208 571.138 326.45C578.648 322.693 579.113 315.415 578.174 309.779C577.235 304.143 575.121 302.976 575.121 302.976" fill="#714128"/>
<path d="M569.497 301.589C569.497 301.589 563.627 299.473 553.301 301.124C542.974 302.775 519.049 317.084 519.514 319.437C519.979 321.79 538.053 400.195 538.053 400.195L548.607 406.305C548.607 406.305 546.784 375.78 546.966 359.793C547.149 343.806 546.966 325.748 546.966 325.748C546.966 325.748 563.627 330.208 571.138 326.45C578.648 322.693 579.113 315.415 578.174 309.779C577.235 304.143 575.121 302.976 575.121 302.976" stroke="#714128" stroke-miterlimit="10" stroke-linecap="round"/>
<path d="M538.053 400.195C538.053 400.195 531.955 408.649 531.244 409.123C530.533 409.597 515.294 416.866 516.662 417.805C518.029 418.745 550.22 417.805 550.22 417.805L548.808 405.366L538.053 400.195Z" fill="white" stroke="#714128" stroke-miterlimit="10" stroke-linecap="round"/>
<path d="M543.485 185.683C543.485 185.683 538.171 180.147 541.79 175.469C545.408 170.79 556.236 167.179 568.558 172.496C580.881 177.813 580.89 190.143 580.462 197.585C580.033 205.027 576.214 216.299 576.214 216.299C569.336 216.52 562.45 216.307 555.598 215.661C549.124 214.974 542.955 212.551 537.743 208.647C537.743 208.647 542.428 188.866 543.485 185.683Z" fill="#714128" stroke="#714128" stroke-miterlimit="10" stroke-linecap="round"/>
<path d="M549.227 212.259C549.227 212.259 548.799 217.366 548.161 220.549C547.523 223.732 547.094 234.585 547.951 235.442C548.808 236.299 553.265 233.946 556.664 228.848C558.596 226.103 559.968 223.004 560.702 219.728L562.825 211.858C562.825 211.858 553.474 214.384 549.227 212.259Z" fill="white" stroke="#714128" stroke-miterlimit="10" stroke-linecap="round"/>
<path d="M562.598 212.669L561.13 212.241C558.232 212.861 552.353 213.828 549.227 212.241C549.227 212.241 548.972 215.296 548.562 218.15C550.208 218.294 551.867 218.089 553.429 217.548C556.692 216.605 559.76 215.086 562.488 213.061L562.598 212.669Z" fill="#714128" stroke="#714128" stroke-miterlimit="10" stroke-linecap="round"/>
<path d="M545.189 186.96C545.189 186.96 542.318 199.728 543.585 204.616C544.852 209.505 546.757 216.144 553.137 216.144C559.517 216.144 565.541 210.927 566.808 207.316C568.075 203.704 569.643 192.487 569.643 192.487C569.643 192.487 553.237 194.612 545.189 186.96Z" fill="white" stroke="#714128" stroke-miterlimit="10" stroke-linecap="round"/>
<path d="M556.701 197.822C556.701 197.822 557.885 196.053 562.169 197.466" stroke="#714128" stroke-miterlimit="10" stroke-linecap="round"/>
<path d="M549.518 195.697C549.518 195.697 548.407 192.432 545.736 192.432" stroke="#714128" stroke-miterlimit="10" stroke-linecap="round"/>
<path d="M547.878 193.973C547.878 194.712 547.577 194.803 547.231 194.767C546.884 194.73 546.629 194.575 546.629 193.855C546.629 193.134 546.903 192.551 547.249 192.587C547.595 192.624 547.878 193.235 547.878 193.973Z" fill="#714128"/>
<path d="M558.788 197.904C558.651 198.661 558.423 198.679 558.068 198.679C557.712 198.679 557.366 198.679 557.503 197.904C557.639 197.129 558.049 196.518 558.414 196.518C558.779 196.518 558.934 197.165 558.788 197.904Z" fill="#714128"/>
<path d="M551.132 195.168C551.176 196.173 550.989 197.174 550.585 198.096C549.938 199.281 547.933 200.923 548.388 201.561C548.672 202.124 549.124 202.584 549.681 202.878C550.238 203.172 550.872 203.286 551.496 203.203" stroke="#714128" stroke-miterlimit="10" stroke-linecap="round"/>
<path d="M547.842 205.2C547.842 205.2 550.302 207.024 554.778 206.203" stroke="#714128" stroke-miterlimit="10" stroke-linecap="round"/>
<path d="M545.946 190.225C546.703 189.9 547.547 189.842 548.341 190.059C549.136 190.276 549.833 190.755 550.321 191.42" stroke="#714128" stroke-miterlimit="10" stroke-linecap="round"/>
<path d="M556.145 193.426C556.145 193.426 559.708 191.42 563.363 194.794" stroke="#714128" stroke-miterlimit="10" stroke-linecap="round"/>
<path d="M367.816 414.924L371.179 327.28" stroke="#714128" stroke-width="4" stroke-miterlimit="10" stroke-linecap="round"/>
<path d="M373.148 414.924L377.641 304.517" stroke="#714128" stroke-width="4" stroke-miterlimit="10" stroke-linecap="round"/>
<path d="M435.471 414.924L430.696 305.648" stroke="#714128" stroke-width="4" stroke-miterlimit="10" stroke-linecap="round"/>
<path d="M440.247 414.924L436.875 327.28" stroke="#714128" stroke-width="4" stroke-miterlimit="10" stroke-linecap="round"/>
<path d="M429.729 259.92H377.778C375.513 259.92 373.677 261.757 373.677 264.024V310.08C373.677 312.347 375.513 314.184 377.778 314.184H429.729C431.995 314.184 433.831 312.347 433.831 310.08V264.024C433.831 261.757 431.995 259.92 429.729 259.92Z" fill="#EA580C" stroke="#714128" stroke-miterlimit="10" stroke-linecap="round"/>
<path d="M440.548 331.512H369.839C368.933 331.512 368.064 331.152 367.423 330.51C366.782 329.869 366.422 328.999 366.422 328.092C366.422 327.185 366.782 326.315 367.423 325.674C368.064 325.032 368.933 324.672 369.839 324.672H440.548C441.455 324.672 442.324 325.032 442.965 325.674C443.606 326.315 443.966 327.185 443.966 328.092C443.966 328.999 443.606 329.869 442.965 330.51C442.324 331.152 441.455 331.512 440.548 331.512Z" fill="#EA580C" stroke="#714128" stroke-miterlimit="10" stroke-linecap="round"/>
<path d="M378.79 291.84C378.79 291.84 374.233 300.258 372.537 303.149C370.842 306.04 369.165 316.829 371.334 319.993C373.503 323.158 375.18 324.325 377.104 325.046C379.027 325.766 429.292 325.046 429.292 325.046C429.292 325.046 434.824 317.349 435.307 313.737C435.79 310.126 434.341 301.462 432.901 298.58C431.461 295.698 427.369 290.873 427.369 290.873L378.79 291.84Z" fill="white" stroke="#714128" stroke-miterlimit="10" stroke-linecap="round"/>
<path d="M448.532 252.624L468.256 223.741C468.256 223.741 469.933 216.29 470.179 214.119C470.425 211.949 471.619 210.754 473.305 209.559C475.053 208.377 476.664 207.004 478.108 205.464C479.074 204.261 479.794 205.711 479.311 207.389C478.828 209.067 477.151 209.797 476.431 210.28C475.711 210.763 475.228 212.688 475.228 212.688C475.228 212.688 483.64 209.559 485.327 208.593C487.013 207.626 490.613 202.336 490.859 204.945C491.105 207.553 487.733 215.779 487.013 216.263C486.293 216.746 473.542 225.884 473.542 225.884C473.542 225.884 459.597 263.185 458.148 266.313C456.699 269.441 454.785 271.849 454.065 271.849C453.345 271.849 439.154 262.729 439.154 262.729L448.268 251.657L448.532 252.624Z" fill="white" stroke="#714128" stroke-miterlimit="10" stroke-linecap="round"/>
<path d="M354.546 252.624L334.822 223.741C334.822 223.741 333.145 216.29 332.899 214.119C332.653 211.949 331.459 210.754 329.773 209.559C328.022 208.377 326.408 207.004 324.961 205.464C324.004 204.261 323.284 205.711 323.767 207.389C324.25 209.067 325.927 209.797 326.647 210.28C327.367 210.763 327.85 212.688 327.85 212.688C327.85 212.688 319.437 209.559 317.751 208.593C316.065 207.626 312.456 202.336 312.219 204.945C311.982 207.553 315.345 215.779 316.065 216.263C316.785 216.746 329.536 225.884 329.536 225.884C329.536 225.884 343.481 263.185 344.921 266.313C346.361 269.441 348.293 271.849 349.013 271.849C349.733 271.849 363.924 262.729 363.924 262.729L354.81 251.657L354.546 252.624Z" fill="white" stroke="#714128" stroke-miterlimit="10" stroke-linecap="round"/>
<path d="M394.649 220.33L373.485 226.103L354.546 251.858L363.204 267.736L376.666 256.19L379.792 286.021L377.632 294.229C377.632 294.229 376.912 294.95 390.392 297.595C403.872 300.24 407.709 299.282 414.445 298.315C421.18 297.348 429.839 294.229 429.839 294.229L427.433 283.878L431.516 257.886L442.344 269.678L449.799 251.147L434.168 226.121L410.835 220.348L394.649 220.33Z" fill="#714128" stroke="#714128" stroke-miterlimit="10" stroke-linecap="round"/>
<path d="M389.344 190.654C389.344 190.654 386.61 186.568 385.188 190.727C383.766 194.885 389.809 199.992 389.809 199.992L390.219 191.283" fill="white"/>
<path d="M389.344 190.654C389.344 190.654 386.61 186.568 385.188 190.727C383.766 194.885 389.809 199.992 389.809 199.992L390.219 191.283" stroke="#714128" stroke-miterlimit="10" stroke-linecap="round"/>
<path d="M396.581 216.965L394.421 218.88L391.531 223.686L392.261 240.777L405.485 231.876L417.024 240.768C417.024 240.768 415.347 221.279 415.347 220.075C415.347 218.871 412.695 216.947 411.018 215.98C409.341 215.013 396.581 216.965 396.581 216.965Z" fill="white" stroke="#714128" stroke-miterlimit="10" stroke-linecap="round"/>
<path d="M395.861 214.32C395.861 214.32 396.107 220.576 396.344 221.78C396.581 222.984 405.458 235.46 405.458 235.46L411.71 220.786L412.194 206.586L395.861 214.32Z" fill="white" stroke="#714128" stroke-miterlimit="10" stroke-linecap="round"/>
<path d="M396.134 219.619C397.368 219.764 398.617 219.69 399.825 219.4C406.069 217.986 409.487 212.149 409.487 212.149L402.086 211.383L395.861 214.32C395.861 214.32 395.979 217.366 396.134 219.619Z" fill="#714128" stroke="#714128" stroke-miterlimit="10" stroke-linecap="round"/>
<path d="M388.533 183.467C388.533 183.467 389.39 205.765 390 208.091C390.611 210.417 395.469 217.977 400.937 217.384C406.406 216.792 411.966 212.496 412.503 208.939C413.041 205.382 414.481 194.885 415.393 190.644C416.304 186.404 419.95 181.862 412.084 177.694C404.219 173.526 388.633 176.654 388.533 183.467Z" fill="white" stroke="#714128" stroke-miterlimit="10" stroke-linecap="round"/>
<path d="M394.011 194.949C393.956 195.861 393.491 196.636 392.953 196.609C392.416 196.582 392.042 195.788 392.087 194.849C392.133 193.909 392.616 193.162 393.154 193.189C393.692 193.216 394.065 194.01 394.011 194.949Z" fill="#714128"/>
<path d="M402.952 196.992C402.897 197.904 402.423 198.679 401.894 198.643C401.366 198.606 400.983 197.822 401.029 196.883C401.074 195.943 401.557 195.195 402.086 195.223C402.614 195.25 403.006 196.007 402.952 196.992Z" fill="#714128"/>
<path d="M396.007 193.171C395.809 195.25 395.48 197.316 395.022 199.354C394.448 201.452 392.434 201.871 393.673 203.285C394.913 204.698 397.128 204.562 399.379 204.197" stroke="#714128" stroke-miterlimit="10" stroke-linecap="round"/>
<path d="M393.464 206.167C393.464 206.167 396.49 208.602 402.797 207.161" stroke="#714128" stroke-miterlimit="10" stroke-linecap="round"/>
<path d="M391.24 190.955C391.24 190.955 394.156 189.468 395.077 191.319" stroke="#714128" stroke-miterlimit="10" stroke-linecap="round"/>
<path d="M399.789 192.313C399.789 192.313 403.38 191.173 406.169 195.049" stroke="#714128" stroke-miterlimit="10" stroke-linecap="round"/>
<path d="M410.936 186.522C410.936 186.522 398.932 188.52 393.272 187.38C387.612 186.24 382.545 181.296 385.161 177.083C387.776 172.87 402.842 168.428 408.776 169.368C414.709 170.307 420.506 172.204 420.752 178.332C420.998 184.461 418.409 196.235 418.409 196.235L416.523 197.393C416.523 197.393 413.953 193.581 412.768 193.39C411.583 193.198 408.047 190.936 410.936 186.522Z" fill="#714128" stroke="#714128" stroke-miterlimit="10" stroke-linecap="round"/>
<path d="M413.433 196.91C413.433 196.91 418.902 191.684 420.524 193.645C422.146 195.606 420.305 201.16 416.969 203.805C413.634 206.449 412.303 204.042 412.303 204.042" fill="white"/>
<path d="M413.433 196.91C413.433 196.91 418.902 191.684 420.524 193.645C422.146 195.606 420.305 201.16 416.969 203.805C413.634 206.449 412.303 204.042 412.303 204.042" stroke="#714128" stroke-miterlimit="10" stroke-linecap="round"/>
<path d="M402.97 400.578C402.97 400.578 395.314 310.791 391.914 304.407C388.515 298.023 379.473 295.069 371.106 302.054C362.739 309.04 368.071 321.744 369.876 331.001C371.681 340.258 385.215 395.416 385.215 395.416L402.97 400.578Z" fill="white" stroke="#714128" stroke-miterlimit="10" stroke-linecap="round"/>
<path d="M385.215 395.416L382.417 403.104C382.417 403.104 370.951 412.224 371.407 413.656C371.484 413.875 371.539 414.101 371.571 414.331C371.637 414.849 371.886 415.327 372.274 415.677C372.663 416.027 373.163 416.226 373.686 416.237H405.832C406.092 413.507 406.092 410.759 405.832 408.029C405.367 404.746 403.098 400.204 403.098 400.204L385.215 395.416Z" fill="#714128" stroke="#714128" stroke-miterlimit="10" stroke-linecap="round"/>
<path d="M406.023 413.191H371.517C371.424 413.327 371.385 413.493 371.407 413.656C371.484 413.875 371.539 414.101 371.571 414.331C371.637 414.849 371.886 415.327 372.274 415.677C372.663 416.027 373.163 416.226 373.686 416.237H405.832C405.832 416.237 405.969 414.96 406.023 413.191Z" fill="white" stroke="#714128" stroke-miterlimit="10" stroke-linecap="round"/>
<path d="M410.699 401.025C410.699 401.025 413.552 311.065 416.669 304.544C419.786 298.023 428.7 294.676 437.358 301.288C446.017 307.9 441.241 320.832 439.837 330.153C438.434 339.474 428.371 395.808 428.371 395.808L410.699 401.025Z" fill="white" stroke="#714128" stroke-miterlimit="10" stroke-linecap="round"/>
<path d="M428.371 395.808L431.106 403.104C431.106 403.104 442.581 412.224 442.116 413.656C442.043 413.876 441.988 414.102 441.952 414.331C441.886 414.851 441.635 415.33 441.245 415.68C440.855 416.03 440.352 416.228 439.828 416.237H407.673C407.413 413.507 407.413 410.759 407.673 408.029C408.138 404.746 410.407 400.204 410.407 400.204L428.371 395.808Z" fill="#714128" stroke="#714128" stroke-miterlimit="10" stroke-linecap="round"/>
<path d="M407.491 413.191H442.043C442.136 413.327 442.175 413.493 442.152 413.656C442.079 413.876 442.024 414.102 441.988 414.331C441.922 414.851 441.672 415.33 441.282 415.68C440.892 416.03 440.388 416.228 439.865 416.237H407.673C407.673 416.237 407.545 414.96 407.491 413.191Z" fill="white" stroke="#714128" stroke-miterlimit="10" stroke-linecap="round"/>
<path d="M363.542 137.438H320.03C318.253 137.438 316.549 138.145 315.293 139.402C314.037 140.659 313.331 142.364 313.331 144.142V167.434C313.331 169.212 314.037 170.917 315.293 172.174C316.549 173.431 318.253 174.137 320.03 174.137H348.366L367.306 187.525L361.837 174.137H363.505C365.282 174.137 366.986 173.431 368.242 172.174C369.498 170.917 370.204 169.212 370.204 167.434V144.142C370.204 142.37 369.503 140.671 368.255 139.415C367.006 138.159 365.312 137.448 363.542 137.438Z" fill="#EA580C" stroke="#714128" stroke-miterlimit="10"/>
<path d="M331.313 155.496C331.324 155.962 331.195 156.42 330.944 156.812C330.692 157.204 330.329 157.512 329.901 157.696C329.473 157.88 329 157.931 328.542 157.843C328.085 157.756 327.664 157.533 327.334 157.204C327.004 156.876 326.78 156.456 326.691 155.998C326.601 155.541 326.651 155.067 326.833 154.638C327.015 154.209 327.321 153.845 327.712 153.591C328.102 153.338 328.56 153.207 329.026 153.216C329.627 153.228 330.201 153.471 330.627 153.896C331.054 154.321 331.299 154.894 331.313 155.496Z" fill="#714128"/>
<path d="M344.11 155.496C344.119 155.958 343.99 156.412 343.741 156.8C343.491 157.189 343.131 157.494 342.707 157.677C342.283 157.86 341.815 157.912 341.361 157.828C340.907 157.743 340.489 157.526 340.159 157.202C339.83 156.879 339.604 156.465 339.51 156.012C339.417 155.56 339.46 155.09 339.635 154.662C339.809 154.235 340.107 153.869 340.49 153.611C340.873 153.354 341.324 153.216 341.786 153.216C342.394 153.218 342.977 153.458 343.411 153.884C343.845 154.309 344.096 154.888 344.11 155.496Z" fill="#714128"/>
<path d="M356.915 155.496C356.917 155.959 356.782 156.411 356.526 156.797C356.27 157.182 355.906 157.483 355.479 157.66C355.053 157.838 354.583 157.885 354.129 157.795C353.676 157.706 353.259 157.483 352.932 157.156C352.605 156.829 352.383 156.412 352.293 155.958C352.204 155.505 352.251 155.034 352.428 154.607C352.606 154.18 352.906 153.816 353.292 153.56C353.677 153.304 354.129 153.169 354.591 153.17C355.207 153.173 355.797 153.419 356.232 153.854C356.667 154.29 356.913 154.88 356.915 155.496Z" fill="#714128"/>
<path d="M232.797 414.924L236.16 327.28" stroke="#714128" stroke-width="4" stroke-miterlimit="10" stroke-linecap="round"/>
<path d="M238.129 414.924L242.622 304.517" stroke="#714128" stroke-width="4" stroke-miterlimit="10" stroke-linecap="round"/>
<path d="M300.452 414.924L295.677 305.648" stroke="#714128" stroke-width="4" stroke-miterlimit="10" stroke-linecap="round"/>
<path d="M305.228 414.924L301.856 327.28" stroke="#714128" stroke-width="4" stroke-miterlimit="10" stroke-linecap="round"/>
<path d="M294.71 259.92H242.759C240.494 259.92 238.658 261.757 238.658 264.024V310.08C238.658 312.347 240.494 314.184 242.759 314.184H294.71C296.976 314.184 298.812 312.347 298.812 310.08V264.024C298.812 261.757 296.976 259.92 294.71 259.92Z" fill="#EA580C" stroke="#714128" stroke-miterlimit="10" stroke-linecap="round"/>
<path d="M305.529 331.512H234.82C233.914 331.512 233.045 331.152 232.404 330.51C231.763 329.869 231.403 328.999 231.403 328.092C231.403 327.185 231.763 326.315 232.404 325.674C233.045 325.032 233.914 324.672 234.82 324.672H305.529C306.436 324.672 307.305 325.032 307.946 325.674C308.587 326.315 308.947 327.185 308.947 328.092C308.947 328.999 308.587 329.869 307.946 330.51C307.305 331.152 306.436 331.512 305.529 331.512Z" fill="#EA580C" stroke="#714128" stroke-miterlimit="10" stroke-linecap="round"/>
<path d="M255.455 185.136C254.361 183.527 252.908 182.195 251.211 181.245C249.513 180.296 247.618 179.754 245.676 179.664C238.73 179.135 232.15 183.403 228.942 190.17C225.733 196.937 232.505 201.032 232.505 205.309C232.505 209.587 223.601 210.654 220.584 216.354C217.567 222.054 217.02 232.551 228.586 237.895C240.152 243.24 249.412 240.029 254.927 235.405C260.441 230.782 257.952 223.294 255.993 216.709C254.033 210.125 258.663 196.408 260.085 192.842C261.507 189.276 255.455 185.136 255.455 185.136Z" fill="#714128" stroke="#714128" stroke-miterlimit="10" stroke-linecap="round"/>
<path d="M241.738 268.128L236.06 289.56C236.06 289.56 232.87 293.208 228.996 292.068C225.123 290.928 225.579 286.14 225.806 285.228L231.959 260.604L241.738 268.128Z" fill="white" stroke="#714128" stroke-miterlimit="10" stroke-linecap="round"/>
<path d="M259.848 222.3C259.848 222.3 259.62 230.052 258.253 232.332C256.886 234.612 250.278 235.752 246.405 236.664C242.531 237.576 238.43 239.628 236.151 242.82C233.873 246.012 226.581 265.392 226.581 265.392L242.075 273.6L244.126 266.076L250.278 276.564C250.278 276.564 241.164 291.384 237.974 300.504C234.784 309.624 235.012 316.692 240.025 322.164C245.038 327.636 250.734 328.32 256.203 328.548C261.671 328.776 287.647 329.46 293.571 327.18C299.495 324.9 303.141 320.112 302.458 308.256C301.774 296.4 289.47 278.616 288.786 277.02C288.103 275.424 287.419 274.056 287.419 274.056L289.242 264.252L292.204 271.32L306.559 261.516C306.559 261.516 299.495 244.644 295.622 240.54C291.748 236.436 286.052 235.752 281.723 235.068C277.393 234.384 275.57 233.244 273.975 230.736C272.38 228.228 272.608 222.3 272.608 222.3H259.848Z" fill="white" stroke="#714128" stroke-miterlimit="10" stroke-linecap="round"/>
<path d="M272.599 223.157L266.219 222.3H259.839C259.839 222.3 259.839 223.577 259.666 225.228C261.389 226.65 265.891 230.161 268.625 230.481C270.291 230.615 271.967 230.432 273.565 229.943C272.862 227.752 272.535 225.457 272.599 223.157Z" fill="#714128" stroke="#714128" stroke-miterlimit="10" stroke-linecap="round"/>
<path d="M293.571 268.128L299.268 289.56C299.268 289.56 302.458 293.208 306.331 292.068C310.205 290.928 309.749 286.14 309.521 285.228L303.369 260.604L293.571 268.128Z" fill="white" stroke="#714128" stroke-miterlimit="10" stroke-linecap="round"/>
<path d="M302.458 308.256C301.774 296.4 289.47 278.616 288.786 277.02C288.103 275.424 287.419 274.056 287.419 274.056L289.242 264.252L292.204 271.32L306.559 261.516C306.559 261.516 299.495 244.644 295.622 240.54C292.842 237.594 289.123 236.418 285.596 235.734L281.221 252.852H252.967L247.553 236.436L246.359 236.7C242.486 237.612 238.384 239.664 236.106 242.856C233.827 246.048 226.581 265.392 226.581 265.392L242.075 273.6L244.126 266.076L250.278 276.564C250.278 276.564 241.164 291.384 237.974 300.504C234.784 309.624 235.012 316.692 240.025 322.164C245.038 327.636 250.734 328.32 256.203 328.548C261.671 328.776 287.647 329.46 293.571 327.18C299.495 324.9 303.141 320.112 302.458 308.256Z" fill="#714128" stroke="#714128" stroke-miterlimit="10" stroke-linecap="round"/>
<path d="M260.076 389.652C260.076 389.652 249.595 328.32 249.139 321.708C248.683 315.096 253.468 311.22 258.937 310.08C264.405 308.94 268.963 314.64 269.418 318.516C269.801 321.808 269.701 374.367 269.655 388.74C269.654 391.419 269.392 394.092 268.871 396.72C268.434 398.909 267.96 401.353 267.841 402.192C267.614 403.788 267.614 410.4 264.879 414.048C262.145 417.696 258.044 420.204 256.676 415.872C255.309 411.54 256.449 405.156 257.588 401.736C258.727 398.316 259.866 395.58 259.866 395.58L260.076 389.652Z" fill="white" stroke="#714128" stroke-miterlimit="10" stroke-linecap="round"/>
<path d="M267.595 399C266 403.104 264.861 406.296 261.443 406.524C258.025 406.752 257.57 401.736 257.57 401.736C256.43 405.156 255.291 411.54 256.658 415.872C258.025 420.204 262.127 417.696 264.861 414.048C267.595 410.4 267.595 403.788 267.823 402.192C267.942 401.38 268.416 398.936 268.853 396.72C268.953 396.218 269.035 395.708 269.117 395.206C268.589 396.501 268.051 397.823 267.595 399Z" fill="#714128" stroke="#714128" stroke-miterlimit="10" stroke-linecap="round"/>
<path d="M280.611 389.652C280.611 389.652 291.092 328.32 291.548 321.708C292.003 315.096 287.218 311.22 281.75 310.08C276.281 308.94 271.724 314.64 271.268 318.516C270.877 321.808 270.986 374.367 271.022 388.74C271.032 391.42 271.304 394.093 271.834 396.72C272.271 398.909 272.745 401.353 272.863 402.192C273.091 403.788 273.091 410.4 275.826 414.048C278.56 417.696 282.661 420.204 284.028 415.872C285.396 411.54 284.256 405.156 283.117 401.736C281.978 398.316 280.838 395.58 280.838 395.58L280.611 389.652Z" fill="white" stroke="#714128" stroke-miterlimit="10" stroke-linecap="round"/>
<path d="M273.091 399C274.686 403.104 275.826 406.296 279.244 406.524C282.661 406.752 283.117 401.736 283.117 401.736C284.256 405.156 285.396 411.54 284.029 415.872C282.661 420.204 278.56 417.696 275.826 414.048C273.091 410.4 273.091 403.788 272.864 402.192C272.745 401.38 272.271 398.936 271.834 396.72C271.733 396.218 271.642 395.708 271.56 395.206C272.098 396.501 272.627 397.823 273.091 399Z" fill="#714128" stroke="#714128" stroke-miterlimit="10" stroke-linecap="round"/>
<path d="M303.141 283.86L276.482 302.784C276.482 302.784 272.153 304.608 271.697 305.292C271.241 305.976 268.507 312.36 269.19 313.5C269.874 314.64 271.223 316.719 271.223 316.719C271.961 315.902 272.576 314.98 273.046 313.983C273.274 313.071 277.375 310.791 278.286 308.739C279.198 306.687 280.793 303.951 280.793 303.951C280.793 303.951 301.072 296.427 303.351 294.831C305.629 293.235 309.731 292.323 309.731 287.535" fill="white"/>
<path d="M303.141 283.86L276.482 302.784C276.482 302.784 272.153 304.608 271.697 305.292C271.241 305.976 268.507 312.36 269.19 313.5C269.874 314.64 271.223 316.719 271.223 316.719C271.961 315.902 272.576 314.98 273.046 313.983C273.274 313.071 277.375 310.791 278.286 308.739C279.198 306.687 280.793 303.951 280.793 303.951C280.793 303.951 301.072 296.427 303.351 294.831C305.629 293.235 309.731 292.323 309.731 287.535" stroke="#714128" stroke-miterlimit="10" stroke-linecap="round"/>
<path d="M231.886 283.632L260.413 299.592C260.413 299.592 264.916 300.942 265.444 301.571C265.973 302.2 269.373 308.256 268.808 309.46L267.222 312.916C266.361 312.169 265.615 311.3 265.007 310.335C264.688 309.423 260.359 307.599 259.238 305.684C258.117 303.769 256.23 301.188 256.23 301.188C256.23 301.188 235.267 295.88 232.824 294.54C230.382 293.199 226.217 292.716 225.706 287.964" fill="white"/>
<path d="M231.886 283.632L260.413 299.592C260.413 299.592 264.916 300.942 265.444 301.571C265.973 302.2 269.373 308.256 268.808 309.46L267.222 312.916C266.361 312.169 265.615 311.3 265.007 310.335C264.688 309.423 260.359 307.599 259.238 305.684C258.117 303.769 256.23 301.188 256.23 301.188C256.23 301.188 235.267 295.88 232.824 294.54C230.382 293.199 226.217 292.716 225.706 287.964" stroke="#714128" stroke-miterlimit="10" stroke-linecap="round"/>
<path d="M262.145 183.631C261.498 183.814 260.851 183.987 260.195 184.133C257.804 184.622 255.636 185.873 254.014 187.697C252.393 189.522 251.405 191.823 251.199 194.256C250.287 201.671 251.554 211.21 254.197 217.311C256.841 223.413 266.101 229.167 271.405 226.787C276.71 224.407 279.772 217.485 279.772 209.258C279.772 201.032 280.009 194.083 276.3 189.039C272.854 184.343 267.094 182.263 262.145 183.631Z" fill="white" stroke="#714128" stroke-miterlimit="10" stroke-linecap="round"/>
<path d="M276.3 189.021C272.854 184.343 267.094 182.263 262.145 183.631C261.498 183.814 260.851 183.987 260.195 184.133C257.804 184.622 255.636 185.873 254.014 187.697C252.393 189.522 251.405 191.823 251.199 194.256C250.772 198.372 250.849 202.525 251.427 206.623L251.518 206.568C251.518 206.568 253.724 205.145 253.724 202.92C253.724 200.695 253.414 195.341 257.989 192.177C262.564 189.012 269.838 188.866 272.672 189.65C275.507 190.435 277.093 190.763 278.669 194.867L279.152 196.126C278.764 193.568 277.788 191.136 276.3 189.021Z" fill="#714128" stroke="#714128" stroke-miterlimit="10" stroke-linecap="round"/>
<path d="M253.887 207.662C253.887 207.662 250.415 202.92 248.674 205.92C246.933 208.921 249.148 213.025 250.725 213.973C252.302 214.922 253.723 211.766 253.723 211.766" fill="white"/>
<path d="M253.887 207.662C253.887 207.662 250.415 202.92 248.674 205.92C246.933 208.921 249.148 213.025 250.725 213.973C252.302 214.922 253.723 211.766 253.723 211.766" stroke="#714128" stroke-miterlimit="10" stroke-linecap="round"/>
<path d="M263.43 206.997C263.934 206.997 264.342 206.274 264.342 205.382C264.342 204.491 263.934 203.768 263.43 203.768C262.927 203.768 262.519 204.491 262.519 205.382C262.519 206.274 262.927 206.997 263.43 206.997Z" fill="#714128"/>
<path d="M272.827 206.112C273.33 206.112 273.738 205.389 273.738 204.498C273.738 203.606 273.33 202.884 272.827 202.884C272.324 202.884 271.916 203.606 271.916 204.498C271.916 205.389 272.324 206.112 272.827 206.112Z" fill="#714128"/>
<path d="M269.673 202.291C269.673 202.291 269.983 205.765 270.585 206.851C271.186 207.936 274.376 208.273 272.955 210.006C272.722 210.314 272.429 210.572 272.094 210.764C271.759 210.956 271.389 211.078 271.005 211.122C270.622 211.166 270.233 211.132 269.863 211.022C269.494 210.912 269.15 210.728 268.853 210.48" stroke="#714128" stroke-miterlimit="10" stroke-linecap="round"/>
<path d="M265.408 213.189C266.616 213.832 267.978 214.127 269.344 214.044C270.709 213.96 272.025 213.5 273.146 212.715" stroke="#714128" stroke-miterlimit="10" stroke-linecap="round"/>
<path d="M258.937 201.652C258.937 201.652 261.781 198.342 265.408 200.394" stroke="#714128" stroke-miterlimit="10" stroke-linecap="round"/>
<path d="M269.828 200.075C269.828 200.075 273.146 197.712 275.507 200.394" stroke="#714128" stroke-miterlimit="10" stroke-linecap="round"/>
<path d="M75.7942 307.8L79.1301 329.998L74.8828 413.592" stroke="#714128" stroke-width="4" stroke-miterlimit="10" stroke-linecap="round"/>
<path d="M118.139 307.8L121.484 329.998L117.228 413.592" stroke="#714128" stroke-width="4" stroke-miterlimit="10" stroke-linecap="round"/>
<path d="M133.205 329.086L137.161 414.504" stroke="#714128" stroke-width="4" stroke-miterlimit="10" stroke-linecap="round"/>
<path d="M169.662 329.086L173.618 414.504" stroke="#714128" stroke-width="4" stroke-miterlimit="10" stroke-linecap="round"/>
<path d="M117.674 313.126H76.66C75.5755 313.099 74.5364 312.685 73.7294 311.959C72.9225 311.234 72.4007 310.244 72.2578 309.168L66.8713 262.355C66.7981 261.858 66.8343 261.351 66.9773 260.87C67.1203 260.389 67.3666 259.945 67.6991 259.568C68.0316 259.192 68.4422 258.893 68.9021 258.693C69.3621 258.492 69.8604 258.394 70.362 258.406H111.376C112.459 258.433 113.498 258.846 114.304 259.569C115.111 260.293 115.634 261.281 115.779 262.355L121.165 309.168C121.24 309.665 121.205 310.173 121.062 310.656C120.92 311.138 120.674 311.584 120.341 311.961C120.009 312.338 119.597 312.638 119.137 312.839C118.676 313.04 118.177 313.138 117.674 313.126Z" fill="#EA580C" stroke="#714128" stroke-miterlimit="10" stroke-linecap="round"/>
<path d="M171.412 331.512H79.358C78.4516 331.512 77.5822 331.152 76.9413 330.51C76.3003 329.869 75.9402 328.999 75.9402 328.092C75.9402 327.185 76.3003 326.315 76.9413 325.674C77.5822 325.032 78.4516 324.672 79.358 324.672H171.412C172.319 324.672 173.188 325.032 173.829 325.674C174.47 326.315 174.83 327.185 174.83 328.092C174.83 328.999 174.47 329.869 173.829 330.51C173.188 331.152 172.319 331.512 171.412 331.512Z" fill="#EA580C" stroke="#714128" stroke-miterlimit="10" stroke-linecap="round"/>
<path d="M120.527 235.752C120.527 235.752 127.363 238.26 128.73 241.452C130.097 244.644 138.537 281.124 138.537 281.124L169.298 287.736L165.88 292.296L130.106 292.752L120.527 235.752Z" fill="white" stroke="#714128" stroke-miterlimit="10" stroke-linecap="round"/>
<path d="M126.488 271.247L135.666 268.912C133.087 257.968 129.568 243.422 128.73 241.452C127.363 238.26 120.527 235.752 120.527 235.752L126.488 271.247Z" fill="#714128" stroke="#714128" stroke-miterlimit="10" stroke-linecap="round"/>
<path d="M90.2314 231.192L71.5471 241.452C71.5471 241.452 77.0157 282.948 78.6107 293.436C80.2057 303.924 81.8007 311.676 86.3578 313.272C90.915 314.868 128.056 306.204 130.562 305.292C133.069 304.38 132.157 296.4 131.018 292.296C129.879 288.192 123.726 243.96 123.499 240.312C123.271 236.664 120.309 234.84 115.524 233.016C110.739 231.192 98.89 230.508 95.2443 230.508C91.5985 230.508 90.2314 231.192 90.2314 231.192Z" fill="#714128" stroke="#714128" stroke-miterlimit="10" stroke-linecap="round"/>
<path d="M90.2314 231.192L84.936 234.101L105.261 259.92L113.199 232.341C107.649 231.028 98.3796 230.517 95.2352 230.517C91.5895 230.508 90.2314 231.192 90.2314 231.192Z" fill="white" stroke="#714128" stroke-miterlimit="10" stroke-linecap="round"/>
<path d="M87.0322 222.984L88.6272 233.016L103.666 253.536L108.451 232.104V221.844L87.0322 222.984Z" fill="white" stroke="#714128" stroke-miterlimit="10" stroke-linecap="round"/>
<path d="M80.2057 188.556C80.2057 188.556 79.0573 185.136 74.2723 185.136C69.4873 185.136 64.7114 190.608 64.7114 196.08C64.6876 197.144 64.8872 198.201 65.2972 199.182C65.7072 200.164 66.3185 201.049 67.0915 201.78C67.8646 202.51 68.7823 203.07 69.7853 203.424C70.7883 203.777 71.8542 203.916 72.9142 203.832C76.5599 203.604 78.6107 202.236 79.5221 199.272C80.4335 196.308 80.2057 188.556 80.2057 188.556Z" fill="#714128" stroke="#714128" stroke-miterlimit="10" stroke-linecap="round"/>
<path d="M81.7824 184.561C79.5166 187.281 78.1955 190.665 78.0182 194.201C77.7083 200.157 81.1444 210.8 82.0832 215.496C83.022 220.193 86.5857 227.553 97.5775 229.122C108.569 230.69 112.16 217.375 112.16 212.988C112.16 208.602 109.973 195.46 108.095 189.824C106.218 184.188 103.402 180.12 96.8301 179.491C90.2587 178.861 85.4555 180.731 81.7824 184.561Z" fill="white" stroke="#714128" stroke-miterlimit="10" stroke-linecap="round"/>
<path d="M112.106 212.988C111.92 209.315 111.484 205.659 110.802 202.044C110.893 203.13 111.058 204.78 111.395 207.261C112.078 212.277 110.939 212.961 110.939 212.961C110.939 212.961 108.888 209.541 102.28 208.401C95.6726 207.261 87.9255 216.837 87.2419 216.837C86.5583 216.837 86.3305 215.925 85.419 212.961C84.5076 209.997 81.7733 204.069 82.6847 201.333C83.5962 198.597 83.5962 198.141 82.229 195.633C80.8619 193.125 80.1783 192.213 84.0519 189.03C88.609 185.273 96.5567 184.835 102.28 184.58C103.598 184.408 104.935 184.67 106.09 185.328C105.169 183.641 103.831 182.219 102.203 181.198C100.575 180.178 98.7124 179.593 96.7937 179.5C90.2223 178.871 85.4555 180.74 81.7824 184.571C79.5166 187.291 78.1955 190.674 78.0182 194.21C77.7083 200.166 81.1444 210.809 82.0832 215.506C83.022 220.202 86.5857 227.562 97.5775 229.131C108.569 230.7 112.106 217.375 112.106 212.988Z" fill="#714128" stroke="#714128" stroke-miterlimit="10" stroke-linecap="round"/>
<path d="M105.489 212.724C101.984 213.991 98.2777 214.609 94.5515 214.548" stroke="white" stroke-miterlimit="10" stroke-linecap="round"/>
<path d="M101.168 198.588L102.308 207.024C102.308 207.024 99.5734 210.9 96.1555 206.112" stroke="#714128" stroke-miterlimit="10" stroke-linecap="round"/>
<path d="M95.9186 195.624C95.7272 195.834 89.5386 193.8 87.9436 199.044" stroke="#714128" stroke-width="2" stroke-miterlimit="10" stroke-linecap="round"/>
<path d="M101.387 194.712C101.387 194.712 105.489 191.52 108.679 195.852" stroke="#714128" stroke-width="2" stroke-miterlimit="10" stroke-linecap="round"/>
<path d="M93.0658 202.464C93.6346 202.464 94.0957 201.647 94.0957 200.64C94.0957 199.633 93.6346 198.816 93.0658 198.816C92.497 198.816 92.0359 199.633 92.0359 200.64C92.0359 201.647 92.497 202.464 93.0658 202.464Z" fill="#714128"/>
<path d="M105.489 201.552C106.057 201.552 106.519 200.735 106.519 199.728C106.519 198.721 106.057 197.904 105.489 197.904C104.92 197.904 104.459 198.721 104.459 199.728C104.459 200.735 104.92 201.552 105.489 201.552Z" fill="#714128"/>
<path d="M79.0573 204.288C79.0573 204.288 75.4116 201.552 75.1837 206.796C75.0773 208.459 75.5378 210.108 76.4897 211.475C77.4417 212.841 78.8289 213.844 80.4245 214.32C81.5637 214.548 81.7916 212.952 81.7916 212.952L79.0573 204.288Z" fill="white" stroke="#714128" stroke-miterlimit="10" stroke-linecap="round"/>
<path d="M74.0443 240.312C74.0443 240.312 67.2086 242.82 65.1579 244.416C63.1072 246.012 60.2909 252.469 62.2049 266.523C62.8793 271.493 67.8922 305.976 67.8922 305.976L123.945 303.012L133.287 299.82L81.5636 291.384L77.4713 252.624" fill="#714128"/>
<path d="M74.0443 240.312C74.0443 240.312 67.2086 242.82 65.1579 244.416C63.1072 246.012 60.2909 252.469 62.2049 266.523C62.8793 271.493 67.8922 305.976 67.8922 305.976L123.945 303.012L133.287 299.82L81.5636 291.384L77.4713 252.624" stroke="#714128" stroke-miterlimit="10" stroke-linecap="round"/>
<path d="M67.8922 305.976L123.945 303.012L133.287 299.82L81.5636 291.384L79.2942 273.646L63.2986 275.041C64.2191 287.617 67.8922 305.976 67.8922 305.976Z" fill="white" stroke="#714128" stroke-miterlimit="10" stroke-linecap="round"/>
<path d="M81.1169 306.432C81.1169 306.432 84.7627 321.024 90.0034 325.584C95.2441 330.144 104.358 329.46 113.017 329.46C121.676 329.46 140.588 324.444 141.271 324.444C141.955 324.444 173.627 332.424 173.627 332.424L163.829 404.7L177.956 407.436C177.956 407.436 197.78 336.528 197.78 334.932C197.78 333.336 202.337 326.952 194.59 317.148C186.843 307.344 148.791 304.38 140.36 302.328C131.929 300.276 81.1169 306.432 81.1169 306.432Z" fill="white" stroke="#714128" stroke-miterlimit="10" stroke-linecap="round"/>
<path d="M158.06 311.84L146.503 325.52L141.271 324.444L134.663 326.04C134.663 326.04 134.335 323.413 138.902 317.932C143.468 312.451 158.06 311.84 158.06 311.84Z" fill="#714128"/>
<path d="M163.82 404.7L161.542 416.328C161.542 416.328 173.162 419.064 176.352 419.748C179.542 420.432 189.796 419.976 192.074 419.748C194.353 419.52 190.479 417.24 189.112 416.556C187.745 415.872 177.264 409.488 177.264 409.488L177.947 407.436L163.82 404.7Z" fill="white" stroke="#714128" stroke-miterlimit="10" stroke-linecap="round"/>
<path d="M95.6999 310.308C95.6999 310.308 140.36 292.177 144.917 290.472C154.715 286.824 168.532 287.791 170.437 288.192C174.766 289.104 215.325 329.916 215.325 329.916L206.666 337.668L164.968 308.484C164.968 308.484 140.588 323.076 134.663 326.04C128.739 329.004 115.523 330.828 105.726 330.144C95.9277 329.46 89.7756 324.444 88.1806 321.252C86.5856 318.06 87.2691 316.008 87.2691 316.008" fill="white"/>
<path d="M95.6999 310.308C95.6999 310.308 140.36 292.177 144.917 290.472C154.715 286.824 168.532 287.791 170.437 288.192C174.766 289.104 215.325 329.916 215.325 329.916L206.666 337.668L164.968 308.484C164.968 308.484 140.588 323.076 134.663 326.04C128.739 329.004 115.523 330.828 105.726 330.144C95.9277 329.46 89.7756 324.444 88.1806 321.252C86.5856 318.06 87.2691 316.008 87.2691 316.008" stroke="#714128" stroke-miterlimit="10" stroke-linecap="round"/>
<path d="M206.657 337.668L218.278 348.384C218.278 348.384 240.38 325.128 241.064 324.216C241.747 323.304 243.798 319.428 242.431 319.428C241.064 319.428 217.594 330.6 217.594 330.6L215.316 329.916L206.657 337.668Z" fill="white" stroke="#714128" stroke-miterlimit="10" stroke-linecap="round"/>
<path d="M169.289 287.736C169.289 287.736 179.77 288.42 180.226 289.332C180.681 290.244 184.555 295.716 184.783 297.312C184.928 298.446 185.004 299.588 185.011 300.732C185.011 300.732 176.352 295.944 175.896 294.804C175.552 293.691 175.323 292.544 175.213 291.384L169.289 287.736Z" fill="white" stroke="#714128" stroke-miterlimit="10" stroke-linecap="round"/>
<path d="M568.285 59.353L545.426 82.5086H601.725L578.866 59.353H568.285Z" fill="#714128" stroke="#714128" stroke-miterlimit="10"/>
<path d="M578.757 56.2704H568.285V59.353H578.757V56.2704Z" fill="#714128" stroke="#714128" stroke-miterlimit="10"/>
<path d="M573.443 56.2704V16.416" stroke="#714128" stroke-miterlimit="10"/>
<path d="M70.6448 59.353L47.7861 82.5086H104.085L81.2264 59.353H70.6448Z" fill="#714128" stroke="#714128" stroke-miterlimit="10"/>
<path d="M81.1171 56.2704H70.6448V59.353H81.1171V56.2704Z" fill="#714128" stroke="#714128" stroke-miterlimit="10"/>
<path d="M75.8035 56.2704V16.416" stroke="#714128" stroke-miterlimit="10"/>
</svg>
